<svg width="551" height="1139" viewBox="0 0 551 1139" fill="none" xmlns="http://www.w3.org/2000/svg">
<path d="M37.4055 112.781L66.7092 82.16C70.9975 77.6789 75.9884 73.9277 81.4851 71.0545L131.749 44.78C134.337 43.4276 137.024 42.276 139.787 41.3354L188.179 24.8629C194.093 22.8495 200.299 21.8223 206.547 21.8223H271.922H345.965C351.862 21.8223 357.724 22.7376 363.341 24.5354L414.291 40.8432C418.247 42.1096 422.053 43.8047 425.642 45.8985L468.447 70.8759C473.577 73.8691 478.207 77.6456 482.171 82.0687L509.691 112.781L515.858 118.901C522.528 125.52 526.28 134.529 526.28 143.926V160.067C526.28 165.339 522.956 170.037 517.986 171.793C513.015 173.549 509.691 178.248 509.691 183.519V217.564C509.691 226.905 512.589 236.015 517.986 243.64C523.382 251.264 526.28 260.374 526.28 269.715V1113.37C526.28 1116.35 527.593 1119.19 529.87 1121.11C537.082 1127.22 532.765 1139 523.315 1139H232.565H26.1984C16.8303 1139 12.3096 1127.52 19.1614 1121.13C21.2547 1119.18 22.4433 1116.45 22.4433 1113.59V269.261C22.4433 260.182 25.039 251.292 29.9244 243.64C34.8099 235.987 37.4055 227.097 37.4055 218.018V184.225C37.4055 178.227 34.6467 172.562 29.9244 168.863C25.2021 165.165 22.4433 159.5 22.4433 153.502V144.183C22.4433 134.57 26.0258 125.302 32.4915 118.188L37.4055 112.781Z" fill="black"/>
<rect x="21.4668" y="240.012" width="505.463" height="883.921" rx="10" fill="black"/>
<ellipse cx="273.548" cy="99.9466" rx="208.495" ry="87.6108" fill="black"/>
<rect x="65.0781" y="187.465" width="417.372" height="52.5387" fill="white"/>
<path d="M494.598 151.193C494.598 221.434 468.133 13.1541 275.5 51.5413C98.4859 13.1541 51.1953 197.723 51.1953 151.193C51.1953 80.9524 154.495 24.0111 275.5 24.0111C396.505 24.0111 494.598 80.9524 494.598 151.193Z" fill="white"/>
<rect x="59.4023" y="264.686" width="426.991" height="840.458" fill="black" stroke="white" stroke-width="6"/>
<rect x="79.3594" y="932.679" width="387.943" height="153.284" fill="black" stroke="white" stroke-width="6"/>
<line x1="508.086" y1="1108.14" x2="508.086" y2="261.686" stroke="white" stroke-width="6"/>
<line x1="38.6504" y1="1108.14" x2="38.6504" y2="261.686" stroke="white" stroke-width="6"/>
<path d="M275.24 49.08C274.6 49.08 274.072 48.872 273.656 48.456C273.24 48.04 273.032 47.528 273.032 46.92C273.032 46.12 273.272 45.336 273.752 44.568C274.36 43.448 274.664 42.344 274.664 41.256C274.664 40.968 274.632 40.776 274.568 40.68C274.536 40.584 274.44 40.536 274.28 40.536C274.12 40.536 273.896 40.632 273.608 40.824C272.808 41.432 272.056 42.264 271.352 43.32C270.456 44.632 269.528 45.288 268.568 45.288C267.96 45.288 267.432 45.08 266.984 44.664C266.568 44.216 266.36 43.688 266.36 43.08C266.36 42.312 266.648 41.704 267.224 41.256C267.832 40.808 268.648 40.584 269.672 40.584C271.176 40.584 272.36 40.312 273.224 39.768C273.288 39.736 273.384 39.672 273.512 39.576C273.64 39.48 273.704 39.368 273.704 39.24C273.704 39.112 273.64 39 273.512 38.904C273.384 38.808 273.288 38.744 273.224 38.712C272.36 38.168 271.176 37.896 269.672 37.896C268.648 37.896 267.832 37.672 267.224 37.224C266.648 36.776 266.36 36.168 266.36 35.4C266.36 34.792 266.568 34.28 266.984 33.864C267.432 33.416 267.96 33.192 268.568 33.192C269.528 33.192 270.456 33.848 271.352 35.16C272.056 36.216 272.808 37.048 273.608 37.656C273.896 37.848 274.12 37.944 274.28 37.944C274.44 37.944 274.536 37.896 274.568 37.8C274.632 37.704 274.664 37.512 274.664 37.224C274.664 36.136 274.36 35.032 273.752 33.912C273.272 33.144 273.032 32.36 273.032 31.56C273.032 30.952 273.24 30.44 273.656 30.024C274.072 29.608 274.6 29.4 275.24 29.4C275.88 29.4 276.408 29.608 276.824 30.024C277.24 30.44 277.448 30.952 277.448 31.56C277.448 32.36 277.208 33.144 276.728 33.912C276.12 35.032 275.816 36.136 275.816 37.224C275.816 37.512 275.832 37.704 275.864 37.8C275.928 37.896 276.04 37.944 276.2 37.944C276.36 37.944 276.584 37.848 276.872 37.656C277.672 37.048 278.424 36.216 279.128 35.16C280.024 33.848 280.952 33.192 281.912 33.192C282.52 33.192 283.032 33.416 283.448 33.864C283.896 34.28 284.12 34.792 284.12 35.4C284.12 36.168 283.816 36.776 283.208 37.224C282.632 37.672 281.832 37.896 280.808 37.896C279.304 37.896 278.12 38.168 277.256 38.712C277.192 38.744 277.096 38.808 276.968 38.904C276.84 39 276.776 39.112 276.776 39.24C276.776 39.368 276.84 39.48 276.968 39.576C277.096 39.672 277.192 39.736 277.256 39.768C278.12 40.312 279.304 40.584 280.808 40.584C281.832 40.584 282.632 40.808 283.208 41.256C283.816 41.704 284.12 42.312 284.12 43.08C284.12 43.688 283.896 44.216 283.448 44.664C283.032 45.08 282.52 45.288 281.912 45.288C280.952 45.288 280.024 44.632 279.128 43.32C278.424 42.264 277.672 41.432 276.872 40.824C276.584 40.632 276.36 40.536 276.2 40.536C276.04 40.536 275.928 40.584 275.864 40.68C275.832 40.776 275.816 40.968 275.816 41.256C275.816 42.344 276.12 43.448 276.728 44.568C277.208 45.336 277.448 46.12 277.448 46.92C277.448 47.528 277.24 48.04 276.824 48.456C276.408 48.872 275.88 49.08 275.24 49.08Z" fill="black"/>
<line x1="482.455" y1="178.352" x2="65.0753" y2="178.352" stroke="white" stroke-width="6"/>
<rect x="79.3594" y="276.362" width="387.943" height="616.959" fill="black" stroke="white" stroke-width="6"/>
<rect x="363.102" y="760.052" width="85.978" height="116.59" fill="black" stroke="white" stroke-width="6"/>
<rect x="363.102" y="608.273" width="85.978" height="116.59" fill="black" stroke="white" stroke-width="6"/>
<rect x="363.102" y="456.494" width="85.978" height="116.59" fill="black" stroke="white" stroke-width="6"/>
<rect x="363.102" y="304.716" width="85.978" height="116.59" fill="black" stroke="white" stroke-width="6"/>
<rect x="100.184" y="304.716" width="85.978" height="116.59" fill="black" stroke="white" stroke-width="6"/>
<rect x="100.184" y="456.494" width="85.978" height="116.59" fill="black" stroke="white" stroke-width="6"/>
<rect x="100.184" y="608.273" width="85.978" height="116.59" fill="black" stroke="white" stroke-width="6"/>
<rect x="100.184" y="760.052" width="85.978" height="116.59" fill="black" stroke="white" stroke-width="6"/>
<rect x="233.812" y="760.052" width="85.978" height="116.59" fill="black" stroke="white" stroke-width="6"/>
<rect x="232.945" y="608.273" width="85.978" height="116.59" fill="black" stroke="white" stroke-width="6"/>
<rect x="233.812" y="456.494" width="85.978" height="116.59" fill="black" stroke="white" stroke-width="6"/>
<rect x="233.812" y="304.716" width="85.978" height="116.59" fill="black" stroke="white" stroke-width="6"/>
<rect x="100.184" y="1062.61" width="106.583" height="345.425" transform="rotate(-90 100.184 1062.61)" fill="black" stroke="white" stroke-width="6"/>
<path d="M406.6 716.8C404.067 716.8 401.8 716.167 399.8 714.9C397.8 713.7 396.8 712 396.8 709.8C396.8 709 397.033 708.3 397.5 707.7C398.033 707.1 398.7 706.8 399.5 706.8C401.233 706.8 402.3 707.967 402.7 710.3C402.9 711.567 403.467 712.567 404.4 713.3C405.333 714.033 406.5 714.4 407.9 714.4C409.967 714.4 411.5 713.933 412.5 713C413.5 712.133 414 710.933 414 709.4C414 705.933 411.733 704.2 407.2 704.2H402.3L404 694.7C398.333 694.167 393.467 692.067 389.4 688.4C385.333 684.667 382.233 680 380.1 674.4C378.033 668.8 377 662.933 377 656.8C377 650.067 378.133 643.9 380.4 638.3C382.667 632.7 385.9 628.267 390.1 625C394.3 621.667 399.2 620 404.8 620C407.733 620 410.5 620.667 413.1 622C415.7 623.333 417.833 624.767 419.5 626.3C421.1 627.767 422.167 628.5 422.7 628.5C423.233 628.5 423.6 628.333 423.8 628C424.067 627.667 424.333 627.133 424.6 626.4L426.5 620.8H429L429.4 651.8H426.6C425.133 645.467 423.233 640.167 420.9 635.9C418.567 631.567 416 628.367 413.2 626.3C410.467 624.233 407.733 623.2 405 623.2C398.667 623.2 394.167 626.067 391.5 631.8C388.9 637.533 387.6 645.867 387.6 656.8C387.6 668.067 388.967 676.7 391.7 682.7C394.433 688.633 399.4 691.6 406.6 691.6C413 691.6 417.867 689.233 421.2 684.5C424.6 679.7 426.533 673.9 427 667.1H430.6C430.4 671.033 429.567 675.1 428.1 679.3C426.7 683.5 424.233 687.133 420.7 690.2C417.167 693.267 412.467 694.8 406.6 694.8L405.9 698.6H409C411.6 698.6 413.8 699.3 415.6 700.7C417.467 702.1 418.4 704.1 418.4 706.7C418.4 709.5 417.467 711.867 415.6 713.8C413.733 715.8 410.733 716.8 406.6 716.8Z" fill="white"/>
<path d="M125.8 702.8H135.4C137.2 702.8 138.1 701.9 138.1 700.1V640.4C138.1 639.467 137.9 638.8 137.5 638.4C137.1 637.933 136.4 637.7 135.4 637.7H131.8C127.6 637.7 123.967 639.833 120.9 644.1C118.967 646.833 117.667 650.267 117 654.4C116.333 658.467 116 661.467 116 663.4H113.2L114 634.8H171.4L172.2 663.4H169.4C169.4 661.467 169.067 658.467 168.4 654.4C167.733 650.267 166.433 646.833 164.5 644.1C161.433 639.833 157.8 637.7 153.6 637.7H150C149 637.7 148.3 637.933 147.9 638.4C147.5 638.8 147.3 639.467 147.3 640.4V700.1C147.3 701.9 148.2 702.8 150 702.8H159.6V706H125.8V702.8Z" fill="white"/>
<path d="M135.76 329.392C134.352 329.392 133.168 328.912 132.208 327.952C131.248 326.992 130.768 325.808 130.768 324.4C130.768 322.928 131.248 321.744 132.208 320.848C133.168 319.888 134.352 319.408 135.76 319.408C137.232 319.408 138.416 319.888 139.312 320.848C140.272 321.744 140.752 322.928 140.752 324.4C140.752 325.808 140.272 326.992 139.312 327.952C138.416 328.912 137.232 329.392 135.76 329.392ZM155.344 329.392C153.936 329.392 152.752 328.912 151.792 327.952C150.832 326.992 150.352 325.808 150.352 324.4C150.352 322.928 150.832 321.744 151.792 320.848C152.752 319.888 153.936 319.408 155.344 319.408C156.816 319.408 158 319.888 158.896 320.848C159.856 321.744 160.336 322.928 160.336 324.4C160.336 325.808 159.856 326.992 158.896 327.952C158 328.912 156.816 329.392 155.344 329.392ZM145.744 407.728C139.984 407.728 135.216 406.608 131.44 404.368C127.664 402.064 124.88 399.088 123.088 395.44C121.36 391.728 120.496 387.664 120.496 383.248V343.312C120.496 342.416 120.272 341.776 119.824 341.392C119.44 340.944 118.8 340.72 117.904 340.72H110.992V337.648H138.928V340.72H131.92C131.024 340.72 130.352 340.944 129.904 341.392C129.52 341.776 129.328 342.416 129.328 343.312V385.84C129.328 391.792 130.768 396.432 133.648 399.76C136.528 403.024 140.56 404.656 145.744 404.656C149.776 404.656 153.232 403.856 156.112 402.256C158.992 400.592 161.168 398.416 162.64 395.728C164.112 393.04 164.848 390.128 164.848 386.992V348.496C164.848 346.128 164.272 344.24 163.12 342.832C161.968 341.424 160.496 340.72 158.704 340.72H155.344V337.648H178.192V340.72H174.832C173.04 340.72 171.568 341.424 170.416 342.832C169.264 344.24 168.688 346.128 168.688 348.496V386.032C168.688 390.064 167.76 393.744 165.904 397.072C164.112 400.336 161.456 402.928 157.936 404.848C154.48 406.768 150.416 407.728 145.744 407.728Z" fill="white"/>
<path d="M268.856 793.696C272.995 791.52 276.152 788.448 278.328 784.48H280.888C282.979 788.491 286.136 791.563 290.36 793.696L289.592 795.232C287.757 794.592 286.136 793.909 284.728 793.184C283.32 792.416 281.613 791.392 279.608 790.112C277.603 791.392 275.896 792.416 274.488 793.184C273.08 793.909 271.459 794.592 269.624 795.232L268.856 793.696ZM253.112 804.64C252.643 803.232 251.96 802.187 251.064 801.504C250.168 800.821 248.824 800.48 247.032 800.48H245.816V798.432H266.616V800.48H264.76C264.163 800.48 263.672 800.693 263.288 801.12C262.947 801.547 262.776 802.08 262.776 802.72C262.776 803.232 262.883 803.765 263.096 804.32L271.16 828.96L277.176 808.48L275.768 804.192C275.299 802.784 274.68 801.824 273.912 801.312C273.187 800.757 272.12 800.48 270.712 800.48H269.624V798.432H290.616V800.48H287.48C286.883 800.48 286.392 800.672 286.008 801.056C285.624 801.44 285.432 801.867 285.432 802.336C285.432 802.763 285.496 803.232 285.624 803.744L293.752 828.704L299.576 807.648C299.661 807.349 299.747 806.837 299.832 806.112C299.96 805.344 300.024 804.704 300.024 804.192C300.024 803.253 299.747 802.4 299.192 801.632C298.68 800.864 297.827 800.48 296.632 800.48H293.432V798.432H310.712V800.48H308.728C305.869 800.48 303.821 802.421 302.584 806.304L291.768 845.152H289.08L278.584 812.768L269.112 845.152H266.424L253.112 804.64Z" fill="white"/>
<path d="M262.136 537.952H266.616C267.213 537.952 267.619 537.845 267.832 537.632C268.045 537.376 268.152 536.971 268.152 536.416V498.016C268.152 497.419 268.045 497.013 267.832 496.8C267.619 496.587 267.213 496.48 266.616 496.48C264.525 496.48 262.776 496.992 261.368 498.016C260.003 498.997 258.851 500.427 257.912 502.304C257.187 503.712 256.611 505.376 256.184 507.296C255.8 509.216 255.608 510.389 255.608 510.816H253.56L254.072 494.432H292.984L293.496 510.816H291.448C291.448 510.389 291.235 509.216 290.808 507.296C290.424 505.376 289.869 503.712 289.144 502.304C288.205 500.427 287.032 498.997 285.624 498.016C284.259 496.992 282.531 496.48 280.44 496.48H279.16C278.605 496.48 278.2 496.587 277.944 496.8C277.731 497.013 277.624 497.419 277.624 498.016V514.528H289.016C296.611 514.528 300.408 518.027 300.408 525.024V536.416C300.408 536.971 300.515 537.376 300.728 537.632C300.984 537.845 301.389 537.952 301.944 537.952H306.424V540H285.816V537.952H289.4C289.997 537.952 290.403 537.845 290.616 537.632C290.829 537.376 290.936 536.971 290.936 536.416V522.144C290.936 520.053 290.509 518.603 289.656 517.792C288.803 516.981 287.565 516.576 285.944 516.576H277.624V536.416C277.624 536.971 277.731 537.376 277.944 537.632C278.2 537.845 278.605 537.952 279.16 537.952H282.744V540H262.136V537.952Z" fill="white"/>
<path d="M391.4 401.8H397.8C398.733 401.8 399.367 401.633 399.7 401.3C400.033 400.9 400.2 400.267 400.2 399.4V391.4H394.8C390.333 391.4 386.133 390.467 382.2 388.6C378.267 386.733 375.1 384.1 372.7 380.7C370.367 377.3 369.2 373.4 369.2 369C369.2 364.6 370.367 360.7 372.7 357.3C375.1 353.9 378.267 351.267 382.2 349.4C386.133 347.533 390.333 346.6 394.8 346.6H400.2V339.4C400.2 338.467 400.033 337.833 399.7 337.5C399.367 337.167 398.733 337 397.8 337H391.4V333.8H423.8V337H417.4C416.533 337 415.9 337.167 415.5 337.5C415.167 337.833 415 338.467 415 339.4V346.6H420.4C424.867 346.6 429.067 347.533 433 349.4C436.933 351.267 440.067 353.9 442.4 357.3C444.8 360.7 446 364.6 446 369C446 373.4 444.8 377.3 442.4 380.7C440.067 384.1 436.933 386.733 433 388.6C429.067 390.467 424.867 391.4 420.4 391.4H415V399.4C415 400.267 415.167 400.9 415.5 401.3C415.9 401.633 416.533 401.8 417.4 401.8H423.8V405H391.4V401.8ZM400.2 388.2V349.8H397.3C392.967 349.8 389.867 351.367 388 354.5C386.133 357.633 385.2 362.467 385.2 369C385.2 375.533 386.133 380.367 388 383.5C389.867 386.633 392.967 388.2 397.3 388.2H400.2ZM417.9 388.2C422.233 388.2 425.333 386.633 427.2 383.5C429.067 380.367 430 375.533 430 369C430 362.467 429.067 357.633 427.2 354.5C425.333 351.367 422.233 349.8 417.9 349.8H415V388.2H417.9Z" fill="white"/>
</svg>
