<svg width="387" height="369" viewBox="0 0 387 369" fill="none" xmlns="http://www.w3.org/2000/svg">
<rect width="346.007" height="317.375" transform="matrix(0.987429 -0.158061 0.141574 0.989928 0.0996094 54.7463)" fill="#646F75"/>
<path d="M190.967 92.2849C179.96 101.059 157.617 114.452 156.301 97.8338L167.794 71.6051L77.0895 93.1363L154.408 163.378L81.9912 127.411L120.262 191.098L63.2258 163.035L83.6526 208.543L58.0588 189.471L62.918 223.447L71.5707 283.949L83.3869 304.008L93.925 280.371L90.5151 256.528L121.293 251.601L132.154 274.251L127.772 296.903L99.1251 316.732L76.7708 320.31L52.2853 308.986L44.4851 254.445L37.3242 204.374L27.5633 136.123L17.7598 67.5742L109.445 52.8979L193.679 39.4144L232.257 54.2745L204.071 58.7863L190.967 92.2849Z" fill="#788389"/>
</svg>
