<svg width="1280" height="749" viewBox="0 0 1280 749" fill="none" xmlns="http://www.w3.org/2000/svg">
<path d="M1171.75 378.704C1178.37 385.238 1184.82 393.574 1193.19 396.9C1192.09 387.709 1191.19 378.681 1191.51 369.335C1191.72 363.339 1204.61 366.553 1207.83 367.595C1215.81 370.175 1243.02 394.196 1247.6 379.508C1251.62 366.652 1267.52 353.525 1277.25 347.116C1298.51 333.124 1321.89 338.617 1344.72 342.163C1376.44 347.088 1406.15 346.936 1430.57 374.689C1449.79 396.524 1462.71 416.392 1458.04 448.307C1453.26 481.01 1437.58 501.477 1408.85 508.005C1399.48 510.134 1415.67 514.8 1421.15 518.177C1432.38 525.1 1443.05 535.462 1443.56 551.239C1443.95 563.157 1443.56 581.082 1433.56 588.048C1418.34 598.654 1396.69 597.487 1379.77 597.685C1322.49 598.357 1270.72 580.342 1216.57 559.939C1199.63 553.556 1214.12 564.613 1214.27 577.072C1214.52 598.5 1204.63 606.768 1187.49 608.393C1141.55 612.748 1095.86 611.504 1051.76 595.276C1038.62 590.442 1016.48 576.018 1001.88 579.883C997.326 581.087 999.481 589.835 998.197 593.67C995.062 603.035 978.777 606.803 971.763 609.598C953.948 616.696 935.328 616.694 916.683 616.692L915.791 616.692C893.594 616.692 865.036 619.803 844.877 606.252C835.099 599.678 824.794 591.079 815.914 582.961C806.559 574.409 811.044 554.294 819.64 544.805C807.11 545.459 791.266 548.234 779.825 543.475C751.327 531.622 762.982 482.717 773.849 461.023C780.571 447.601 793.327 445.985 805.57 444.559C813.792 443.602 836.123 449.088 830.281 442.284C825.55 436.774 825.126 433.316 825.338 425.017C825.607 414.556 825.639 398.151 831.775 389.814C845.912 370.605 872.738 360.069 893.379 356.485C923.611 351.237 962.58 364.528 989.003 382.185C1000.66 389.976 1004.5 375.045 1012.22 365.721C1028.79 345.706 1042.93 328.017 1066.24 320.613C1091.69 312.528 1106.47 318.144 1127.84 336.14C1143.19 349.066 1157.3 364.464 1171.75 378.704Z" fill="black"/>
<path d="M1195.65 397.711C1186.06 395.188 1179.01 385.864 1171.75 378.704C1157.3 364.464 1143.19 349.066 1127.84 336.14C1106.47 318.144 1091.69 312.528 1066.24 320.613C1042.93 328.017 1028.79 345.706 1012.22 365.721C1004.5 375.045 1000.66 389.976 989.003 382.185C962.58 364.528 923.611 351.237 893.379 356.485C872.738 360.069 845.912 370.605 831.775 389.814C825.639 398.151 825.607 414.556 825.338 425.017C825.126 433.316 825.55 436.774 830.281 442.284C836.123 449.088 813.792 443.602 805.57 444.559C793.327 445.985 780.571 447.601 773.849 461.023C762.982 482.717 751.327 531.622 779.825 543.475C792.477 548.738 810.514 544.787 823.499 544.68C838.832 544.553 831.709 537.536 824.994 540.664C813.284 546.119 804.758 572.763 815.914 582.961C824.794 591.079 835.099 599.678 844.877 606.252C865.036 619.803 893.594 616.692 915.791 616.692C934.733 616.692 953.664 616.809 971.763 609.598C978.777 606.803 995.062 603.035 998.197 593.67C999.481 589.835 997.326 581.087 1001.88 579.883C1016.48 576.018 1038.62 590.442 1051.76 595.276C1095.86 611.504 1141.55 612.748 1187.49 608.393C1204.63 606.768 1214.52 598.5 1214.27 577.072C1214.12 564.613 1199.63 553.556 1216.57 559.939C1270.72 580.342 1322.49 598.357 1379.77 597.685C1396.69 597.487 1418.34 598.654 1433.56 588.048C1443.56 581.082 1443.95 563.157 1443.56 551.239C1443.05 535.462 1432.38 525.1 1421.15 518.177C1415.67 514.8 1399.48 510.134 1408.85 508.005C1437.58 501.477 1453.26 481.01 1458.04 448.307C1462.71 416.392 1449.79 396.524 1430.57 374.689C1406.15 346.936 1376.44 347.088 1344.72 342.163C1321.89 338.617 1298.51 333.124 1277.25 347.116C1267.52 353.525 1251.62 366.652 1247.6 379.508C1243.02 394.196 1215.81 370.175 1207.83 367.595C1204.61 366.553 1191.72 363.339 1191.51 369.335C1191.16 379.771 1192.32 389.809 1193.58 400.121" stroke="black" stroke-width="3" stroke-linecap="round"/>
<line x1="1006.77" y1="57.7906" x2="892.744" y2="168.89" stroke="black" stroke-width="5"/>
<line x1="1229.77" y1="107.791" x2="1115.74" y2="218.89" stroke="black" stroke-width="5"/>
<line x1="541.77" y1="12.7906" x2="427.744" y2="123.89" stroke="black" stroke-width="5"/>
<line x1="725.036" y1="30.6168" x2="642.453" y2="111.094" stroke="black" stroke-width="10"/>
<line x1="528.036" y1="88.6168" x2="445.453" y2="169.094" stroke="white" stroke-width="10"/>
<line x1="765.036" y1="208.617" x2="682.453" y2="289.094" stroke="white" stroke-width="10"/>
<line x1="1050.04" y1="196.617" x2="967.453" y2="277.094" stroke="black" stroke-width="10"/>
<line x1="201.77" y1="122.791" x2="87.7439" y2="233.89" stroke="white" stroke-width="5"/>
<path d="M467.502 149.641C475.888 156.697 484.049 165.7 494.641 169.292C493.249 159.366 492.111 149.616 492.518 139.522C492.778 133.046 509.093 136.517 513.17 137.642C523.264 140.429 557.688 166.371 563.492 150.508C568.571 136.624 588.694 122.447 601.015 115.525C627.912 100.414 657.492 106.347 686.387 110.176C726.521 115.495 764.127 115.331 795.03 145.304C819.344 168.886 835.693 190.343 829.79 224.812C823.742 260.131 803.894 282.235 767.542 289.285C755.684 291.585 776.171 296.624 783.104 300.272C797.312 307.748 810.818 318.939 811.465 335.978C811.953 348.849 811.461 368.209 798.812 375.732C779.551 387.187 752.155 385.926 730.746 386.14C658.256 386.865 592.746 367.409 524.223 345.374C502.786 338.481 521.129 350.422 521.314 363.878C521.633 387.02 509.116 395.95 487.427 397.705C429.296 402.408 371.472 401.064 315.664 383.538C299.042 378.318 271.023 362.739 252.544 366.913C246.787 368.214 249.514 377.662 247.89 381.803C243.923 391.918 223.315 395.987 214.439 399.006C191.895 406.671 168.333 406.669 144.74 406.667L143.61 406.667C115.522 406.667 79.3838 410.027 53.8745 395.392C41.5015 388.293 28.4607 379.005 17.2239 370.238C5.38561 361.002 11.0611 339.277 21.9395 329.029C6.08332 329.736 -13.9661 332.733 -28.4438 327.593C-64.5062 314.792 -49.7573 261.975 -36.0066 238.545C-27.4992 224.049 -11.3587 222.304 4.13445 220.764C14.5382 219.73 42.797 225.655 35.4038 218.306C29.4175 212.356 28.8807 208.621 29.1499 199.658C29.4892 188.361 29.53 170.643 37.2945 161.639C55.1845 140.894 89.1299 129.514 115.25 125.644C153.507 119.975 202.818 134.331 236.255 153.399C251.01 161.815 255.864 145.688 265.633 135.619C286.604 114.003 304.49 94.8988 333.989 86.9021C366.202 78.17 384.902 84.2355 411.945 103.671C431.369 117.631 449.225 134.261 467.502 149.641Z" fill="black"/>
<path d="M497.753 170.168C485.611 167.443 476.691 157.373 467.502 149.641C449.225 134.261 431.369 117.631 411.945 103.671C384.902 84.2355 366.202 78.17 333.989 86.9021C304.49 94.8988 286.604 114.003 265.633 135.619C255.864 145.688 251.01 161.815 236.255 153.399C202.818 134.331 153.507 119.975 115.25 125.644C89.1299 129.514 55.1845 140.894 37.2945 161.639C29.53 170.643 29.4892 188.361 29.1499 199.658C28.8807 208.621 29.4175 212.356 35.4038 218.306C42.797 225.655 14.5382 219.73 4.13445 220.764C-11.3587 222.304 -27.4992 224.049 -36.0066 238.545C-49.7573 261.975 -64.5062 314.792 -28.4438 327.593C-12.4334 333.277 10.3909 329.01 26.8229 328.894C46.2249 328.758 37.2109 321.179 28.7136 324.558C13.8958 330.449 3.10636 359.224 17.2239 370.238C28.4607 379.005 41.5015 388.293 53.8745 395.392C79.3838 410.028 115.522 406.667 143.61 406.667C167.58 406.667 191.535 406.794 214.439 399.006C223.315 395.987 243.923 391.918 247.89 381.803C249.514 377.662 246.787 368.214 252.544 366.913C271.023 362.739 299.042 378.318 315.664 383.538C371.472 401.064 429.296 402.408 487.427 397.705C509.116 395.95 521.633 387.02 521.314 363.878C521.129 350.422 502.786 338.481 524.223 345.374C592.746 367.409 658.256 386.865 730.746 386.14C752.155 385.926 779.551 387.187 798.812 375.732C811.461 368.209 811.953 348.849 811.465 335.978C810.818 318.939 797.312 307.748 783.104 300.272C776.171 296.624 755.684 291.585 767.542 289.285C803.894 282.235 823.742 260.131 829.79 224.812C835.693 190.343 819.344 168.886 795.03 145.304C764.127 115.331 726.521 115.495 686.387 110.176C657.492 106.347 627.912 100.414 601.015 115.525C588.694 122.447 568.571 136.624 563.492 150.508C557.688 166.371 523.264 140.429 513.17 137.642C509.093 136.517 492.778 133.046 492.518 139.522C492.064 150.792 493.535 161.634 495.136 172.77" stroke="black" stroke-width="3" stroke-linecap="round"/>
<line x1="79.3431" y1="158.46" x2="10.494" y2="225.553" stroke="white" stroke-width="7"/>
<line x1="137.343" y1="353.46" x2="68.494" y2="420.553" stroke="white" stroke-width="7"/>
<path d="M52.4368 702.8C48.0893 698.097 43.8571 692.096 38.3682 689.704C39.0935 696.323 39.687 702.825 39.4808 709.557C39.3486 713.876 30.8944 711.566 28.7818 710.817C23.5508 708.962 5.70492 691.673 2.70493 702.254C0.0792815 711.514 -10.3403 720.976 -16.7206 725.596C-30.6494 735.682 -45.9772 731.735 -60.9492 729.191C-81.7442 725.658 -101.228 725.78 -117.251 705.801C-129.858 690.083 -138.338 675.779 -135.294 652.791C-132.176 629.235 -121.902 614.487 -103.072 609.774C-96.929 608.236 -107.545 604.883 -111.139 602.452C-118.503 597.471 -125.505 590.012 -125.848 578.65C-126.106 570.066 -125.859 557.156 -119.309 552.135C-109.335 544.489 -95.1408 545.321 -84.0493 545.171C-46.4931 544.663 -12.5443 557.616 22.9662 572.288C34.0756 576.878 24.5672 568.921 24.4654 559.948C24.2902 544.514 30.7717 538.555 42.0076 537.378C72.123 534.222 102.082 535.099 131.003 546.768C139.617 550.244 154.14 560.624 163.712 557.834C166.694 556.964 165.277 550.665 166.117 547.903C168.168 541.156 178.843 538.435 183.44 536.419C195.117 531.3 207.324 531.293 219.548 531.287L220.133 531.286C234.685 531.277 253.407 529.024 266.629 538.776C273.043 543.506 279.803 549.695 285.628 555.538C291.766 561.694 288.835 576.183 283.203 583.021C291.418 582.545 301.804 580.54 309.307 583.962C327.996 592.487 320.377 627.715 313.263 643.344C308.862 653.014 300.5 654.183 292.474 655.215C287.084 655.909 272.441 651.967 276.275 656.865C279.379 660.831 279.658 663.321 279.523 669.299C279.352 676.833 279.338 688.649 275.319 694.656C266.059 708.496 248.477 716.097 234.947 718.686C215.128 722.479 189.574 712.922 172.243 700.217C164.595 694.61 162.087 705.366 157.03 712.084C146.174 726.506 136.916 739.252 121.636 744.595C104.95 750.429 95.2592 746.39 81.2405 733.438C71.171 724.135 61.9128 713.051 52.4368 702.8Z" fill="black"/>
<path d="M36.7551 689.121C43.0474 690.934 47.6728 697.647 52.4368 702.8C61.9128 713.051 71.171 724.135 81.2405 733.438C95.2592 746.39 104.95 750.429 121.636 744.595C136.916 739.252 146.174 726.506 157.03 712.084C162.087 705.366 164.595 694.61 172.243 700.217C189.574 712.922 215.128 722.479 234.947 718.686C248.477 716.097 266.059 708.496 275.319 694.656C279.338 688.649 279.352 676.833 279.523 669.299C279.658 663.321 279.379 660.831 276.275 656.865C272.441 651.967 287.084 655.909 292.474 655.215C300.5 654.183 308.862 653.014 313.263 643.344C320.377 627.715 327.996 592.487 309.307 583.962C301.009 580.177 289.186 583.03 280.673 583.113C270.621 583.211 275.294 588.261 279.695 586.006C287.37 582.072 292.947 562.879 285.628 555.538C279.803 549.695 273.043 543.506 266.629 538.776C253.407 529.024 234.685 531.277 220.133 531.286C207.714 531.294 195.303 531.218 183.44 536.419C178.843 538.435 168.168 541.156 166.117 547.903C165.277 550.665 166.694 556.964 163.712 557.834C154.14 560.624 139.617 550.244 131.003 546.768C102.082 535.099 72.123 534.222 42.0076 537.378C30.7717 538.555 24.2902 544.514 24.4653 559.948C24.5672 568.921 34.0756 576.878 22.9662 572.288C-12.5443 557.616 -46.4931 544.663 -84.0493 545.171C-95.1408 545.321 -109.335 544.489 -119.309 552.135C-125.859 557.156 -126.106 570.066 -125.848 578.65C-125.505 590.012 -118.503 597.471 -111.139 602.452C-107.545 604.883 -96.929 608.236 -103.072 609.774C-121.902 614.487 -132.176 629.235 -135.294 652.791C-138.338 675.779 -129.858 690.083 -117.251 705.801C-101.228 725.78 -81.7442 725.658 -60.9492 729.191C-45.9772 731.735 -30.6494 735.682 -16.7206 725.596C-10.3403 720.976 0.0792793 711.514 2.70493 702.254C5.70491 691.673 23.5508 708.962 28.7818 710.817C30.8944 711.566 39.3486 713.876 39.4808 709.557C39.711 702.04 38.9443 694.811 38.1103 687.385" stroke="black" stroke-width="3" stroke-linecap="round"/>
<line x1="1237.34" y1="503.46" x2="1168.49" y2="570.553" stroke="white" stroke-width="7"/>
<line x1="160.343" y1="510.46" x2="91.494" y2="577.553" stroke="white" stroke-width="7"/>
<line x1="1148.34" y1="353.46" x2="1079.49" y2="420.553" stroke="white" stroke-width="7"/>
<line x1="125.343" y1="667.46" x2="56.494" y2="734.553" stroke="white" stroke-width="7"/>
<line x1="941.343" y1="458.46" x2="872.494" y2="525.553" stroke="white" stroke-width="7"/>
<line x1="522.343" y1="308.46" x2="453.494" y2="375.553" stroke="white" stroke-width="7"/>
<line x1="361.036" y1="83.6168" x2="278.453" y2="164.094" stroke="white" stroke-width="10"/>
<line x1="131.036" y1="42.6168" x2="48.4529" y2="123.094" stroke="black" stroke-width="10"/>
<line x1="322.77" y1="-16.2094" x2="208.744" y2="94.8899" stroke="black" stroke-width="5"/>
<path d="M96.968 272.952H101.576C102.728 272.952 103.304 272.376 103.304 271.224V233.208C103.304 232.056 102.728 231.48 101.576 231.48H96.968V229.432H115.528V231.48H110.92C109.768 231.48 109.192 232.056 109.192 233.208V250.04H128.52V233.208C128.52 232.056 127.944 231.48 126.792 231.48H122.184V229.432H140.744V231.48H136.136C134.984 231.48 134.408 232.056 134.408 233.208V271.224C134.408 272.376 134.984 272.952 136.136 272.952H140.744V275H122.184V272.952H126.792C127.944 272.952 128.52 272.376 128.52 271.224V252.088H109.192V271.224C109.192 272.376 109.768 272.952 110.92 272.952H115.528V275H96.968V272.952ZM154.702 275.768C152.44 275.768 150.478 275.213 148.814 274.104C147.192 272.995 146.382 271.032 146.382 268.216C146.382 266.04 146.936 264.333 148.046 263.096C149.155 261.859 150.435 260.984 151.885 260.472C153.379 259.917 155.171 259.448 157.262 259.064L163.15 257.976V252.536C163.15 248.568 161.166 246.584 157.198 246.584C155.747 246.584 154.424 246.968 153.23 247.736C152.035 248.461 151.438 249.293 151.438 250.232C151.438 250.659 151.502 250.979 151.63 251.192C151.715 251.32 151.843 251.448 152.014 251.576C152.227 251.704 152.419 251.789 152.59 251.832C153.358 252.045 153.934 252.344 154.318 252.728C154.744 253.112 154.958 253.645 154.958 254.328C154.958 255.224 154.68 255.864 154.126 256.248C153.614 256.632 152.952 256.824 152.142 256.824C151.203 256.824 150.35 256.461 149.582 255.736C148.814 255.011 148.43 253.965 148.43 252.6C148.43 251.021 148.856 249.656 149.71 248.504C150.606 247.352 151.736 246.499 153.102 245.944C154.51 245.347 155.939 245.048 157.39 245.048C160.206 245.048 162.638 245.795 164.686 247.288C166.734 248.739 167.758 251.021 167.758 254.136V269.88C167.758 272.013 168.419 273.08 169.742 273.08C170.808 273.08 171.576 272.461 172.046 271.224C172.515 269.987 172.75 268.472 172.75 266.68H173.902C173.902 269.24 173.518 271.395 172.75 273.144C172.024 274.893 170.702 275.768 168.782 275.768C166.947 275.768 165.56 275.235 164.622 274.168C163.726 273.059 163.235 271.544 163.15 269.624L162.83 269.496C162.19 270.989 161.144 272.419 159.694 273.784C158.286 275.107 156.622 275.768 154.702 275.768ZM155.726 273.464C157.646 273.464 159.139 272.717 160.206 271.224C161.315 269.688 162.296 267.747 163.15 265.4V259.32L157.582 260.536C155.534 260.963 154.04 261.816 153.102 263.096C152.206 264.333 151.758 266.104 151.758 268.408C151.758 270.371 152.163 271.715 152.974 272.44C153.784 273.123 154.702 273.464 155.726 273.464ZM191.767 273.464H194.519C195.031 273.464 195.393 273.357 195.607 273.144C195.82 272.931 195.927 272.568 195.927 272.056V260.216C195.287 260.856 194.177 261.453 192.599 262.008C191.063 262.563 189.633 262.84 188.311 262.84C185.623 262.84 183.681 262.2 182.487 260.92C181.292 259.64 180.695 258.147 180.695 256.44V248.76C180.695 248.248 180.588 247.885 180.375 247.672C180.161 247.459 179.799 247.352 179.286 247.352H176.599V245.816H189.399V247.352H186.711C186.199 247.352 185.836 247.459 185.623 247.672C185.409 247.885 185.303 248.248 185.303 248.76V257.208C185.303 258.36 185.537 259.341 186.007 260.152C186.476 260.92 187.415 261.304 188.823 261.304C190.231 261.304 191.575 261.091 192.855 260.664C194.177 260.237 195.201 259.704 195.927 259.064V248.76C195.927 248.248 195.82 247.885 195.607 247.672C195.393 247.459 195.031 247.352 194.519 247.352H191.831V245.816H204.631V247.352H201.943C201.431 247.352 201.068 247.459 200.855 247.672C200.641 247.885 200.535 248.248 200.535 248.76V272.056C200.535 272.568 200.641 272.931 200.855 273.144C201.068 273.357 201.431 273.464 201.943 273.464H204.631V275H191.767V273.464ZM223.319 275.768C219.351 275.768 216.151 274.424 213.719 271.736C211.329 269.048 210.135 265.315 210.135 260.536C210.135 257.805 210.668 255.267 211.735 252.92C212.801 250.531 214.273 248.632 216.151 247.224C218.071 245.773 220.204 245.048 222.551 245.048C225.153 245.048 227.287 245.752 228.951 247.16C230.615 248.568 231.809 250.36 232.535 252.536C233.303 254.669 233.687 256.867 233.687 259.128C233.687 259.597 233.537 259.917 233.239 260.088C232.94 260.216 232.428 260.28 231.703 260.28H215.767C215.767 264.547 216.364 267.939 217.559 270.456C218.796 272.973 220.801 274.232 223.575 274.232C225.537 274.232 227.372 273.485 229.079 271.992C230.828 270.499 231.937 268.173 232.407 265.016H233.943C233.687 268.131 232.599 270.712 230.679 272.76C228.801 274.765 226.348 275.768 223.319 275.768ZM228.183 258.744C228.183 255.331 227.735 252.451 226.839 250.104C225.943 247.757 224.471 246.584 222.423 246.584C220.247 246.584 218.583 247.779 217.431 250.168C216.321 252.515 215.767 255.373 215.767 258.744H228.183ZM238.292 288.184H241.62C242.132 288.184 242.495 288.077 242.708 287.864C242.921 287.651 243.028 287.288 243.028 286.776V248.76C243.028 248.248 242.921 247.885 242.708 247.672C242.495 247.459 242.132 247.352 241.62 247.352H238.292V245.816H247.636V250.552L247.892 250.616C248.703 248.909 249.727 247.565 250.964 246.584C252.244 245.56 253.695 245.048 255.316 245.048C257.321 245.048 259.177 245.731 260.884 247.096C262.633 248.419 264.02 250.253 265.044 252.6C266.068 254.947 266.58 257.549 266.58 260.408C266.58 263.267 266.068 265.869 265.044 268.216C264.02 270.563 262.633 272.419 260.884 273.784C259.177 275.107 257.321 275.768 255.316 275.768C253.652 275.768 252.159 275.235 250.836 274.168C249.513 273.059 248.532 271.736 247.892 270.2L247.636 270.264V286.776C247.636 287.288 247.743 287.651 247.956 287.864C248.169 288.077 248.532 288.184 249.044 288.184H252.372V289.72H238.292V288.184ZM254.612 273.976C256.703 273.976 258.281 272.803 259.348 270.456C260.415 268.109 260.948 264.76 260.948 260.408C260.948 256.056 260.415 252.707 259.348 250.36C258.281 248.013 256.703 246.84 254.612 246.84C253.332 246.84 252.159 247.309 251.092 248.248C250.025 249.187 249.172 250.488 248.532 252.152C247.935 253.773 247.636 255.544 247.636 257.464V263.352C247.636 265.272 247.935 267.064 248.532 268.728C249.172 270.349 250.025 271.629 251.092 272.568C252.159 273.507 253.332 273.976 254.612 273.976ZM278.329 273.464H281.017C281.529 273.464 281.892 273.357 282.105 273.144C282.318 272.931 282.425 272.568 282.425 272.056V248.76C282.425 248.248 282.318 247.885 282.105 247.672C281.892 247.459 281.529 247.352 281.017 247.352C279.652 247.352 278.5 247.651 277.561 248.248C276.622 248.803 275.897 249.571 275.385 250.552C274.745 251.832 274.254 253.176 273.913 254.584C273.614 255.949 273.465 256.781 273.465 257.08H272.185L272.633 245.816H296.889L297.273 257.08H295.993C295.993 256.781 295.822 255.949 295.481 254.584C295.182 253.176 294.713 251.832 294.073 250.552C293.561 249.571 292.836 248.803 291.897 248.248C290.958 247.651 289.806 247.352 288.441 247.352C287.929 247.352 287.566 247.459 287.353 247.672C287.14 247.885 287.033 248.248 287.033 248.76V272.056C287.033 272.568 287.14 272.931 287.353 273.144C287.566 273.357 287.929 273.464 288.441 273.464H291.129V275H278.329V273.464ZM311.077 275.768C308.815 275.768 306.853 275.213 305.189 274.104C303.567 272.995 302.757 271.032 302.757 268.216C302.757 266.04 303.311 264.333 304.421 263.096C305.53 261.859 306.81 260.984 308.26 260.472C309.754 259.917 311.546 259.448 313.637 259.064L319.525 257.976V252.536C319.525 248.568 317.541 246.584 313.573 246.584C312.122 246.584 310.799 246.968 309.605 247.736C308.41 248.461 307.812 249.293 307.812 250.232C307.812 250.659 307.877 250.979 308.005 251.192C308.09 251.32 308.218 251.448 308.389 251.576C308.602 251.704 308.794 251.789 308.965 251.832C309.733 252.045 310.309 252.344 310.693 252.728C311.119 253.112 311.333 253.645 311.333 254.328C311.333 255.224 311.055 255.864 310.501 256.248C309.989 256.632 309.327 256.824 308.517 256.824C307.578 256.824 306.725 256.461 305.957 255.736C305.189 255.011 304.805 253.965 304.805 252.6C304.805 251.021 305.231 249.656 306.085 248.504C306.981 247.352 308.111 246.499 309.477 245.944C310.885 245.347 312.314 245.048 313.765 245.048C316.581 245.048 319.013 245.795 321.061 247.288C323.109 248.739 324.133 251.021 324.133 254.136V269.88C324.133 272.013 324.794 273.08 326.117 273.08C327.183 273.08 327.951 272.461 328.421 271.224C328.89 269.987 329.125 268.472 329.125 266.68H330.277C330.277 269.24 329.893 271.395 329.125 273.144C328.399 274.893 327.077 275.768 325.157 275.768C323.322 275.768 321.935 275.235 320.997 274.168C320.101 273.059 319.61 271.544 319.525 269.624L319.205 269.496C318.565 270.989 317.519 272.419 316.069 273.784C314.661 275.107 312.997 275.768 311.077 275.768ZM312.101 273.464C314.021 273.464 315.514 272.717 316.581 271.224C317.69 269.688 318.671 267.747 319.525 265.4V259.32L313.957 260.536C311.909 260.963 310.415 261.816 309.477 263.096C308.581 264.333 308.133 266.104 308.133 268.408C308.133 270.371 308.538 271.715 309.349 272.44C310.159 273.123 311.077 273.464 312.101 273.464ZM333.87 273.464H336.558C337.07 273.464 337.432 273.357 337.646 273.144C337.859 272.931 337.966 272.568 337.966 272.056V248.76C337.966 248.248 337.859 247.885 337.646 247.672C337.432 247.459 337.07 247.352 336.558 247.352H333.87V245.816H346.67V247.352H343.982C343.47 247.352 343.107 247.459 342.894 247.672C342.68 247.885 342.574 248.248 342.574 248.76V259H355.374V248.76C355.374 248.248 355.267 247.885 355.054 247.672C354.84 247.459 354.478 247.352 353.966 247.352H351.278V245.816H364.078V247.352H361.39C360.878 247.352 360.515 247.459 360.302 247.672C360.088 247.885 359.982 248.248 359.982 248.76V272.056C359.982 272.568 360.088 272.931 360.302 273.144C360.515 273.357 360.878 273.464 361.39 273.464H364.078V275H351.278V273.464H353.966C354.478 273.464 354.84 273.357 355.054 273.144C355.267 272.931 355.374 272.568 355.374 272.056V260.536H342.574V272.056C342.574 272.568 342.68 272.931 342.894 273.144C343.107 273.357 343.47 273.464 343.982 273.464H346.67V275H333.87V273.464ZM368.932 273.464H371.62C372.132 273.464 372.495 273.357 372.708 273.144C372.921 272.931 373.028 272.568 373.028 272.056V248.76C373.028 248.248 372.921 247.885 372.708 247.672C372.495 247.459 372.132 247.352 371.62 247.352H368.932V245.816H381.732V247.352H379.044C378.532 247.352 378.169 247.459 377.956 247.672C377.743 247.885 377.636 248.248 377.636 248.76V267.576L389.796 250.424V248.76C389.796 248.248 389.689 247.885 389.476 247.672C389.263 247.459 388.9 247.352 388.388 247.352H385.7V245.816H398.5V247.352H395.812C395.3 247.352 394.937 247.459 394.724 247.672C394.511 247.885 394.404 248.248 394.404 248.76V272.056C394.404 272.568 394.511 272.931 394.724 273.144C394.937 273.357 395.3 273.464 395.812 273.464H398.5V275H385.7V273.464H388.388C388.9 273.464 389.263 273.357 389.476 273.144C389.689 272.931 389.796 272.568 389.796 272.056V253.24L377.636 270.392V272.056C377.636 272.568 377.743 272.931 377.956 273.144C378.169 273.357 378.532 273.464 379.044 273.464H381.732V275H368.932V273.464ZM407.722 275.768C406.1 275.768 404.906 275.405 404.138 274.68C403.37 273.912 402.9 273.059 402.73 272.12C402.559 271.139 402.474 269.987 402.474 268.664H403.754C403.754 270.2 403.903 271.437 404.202 272.376C404.5 273.272 405.14 273.72 406.122 273.72C406.847 273.72 407.338 273.421 407.594 272.824C407.892 272.184 408.106 271.181 408.234 269.816C408.362 267.725 408.895 265.955 409.834 264.504C410.772 263.053 412.394 261.816 414.698 260.792V260.664C413.716 260.579 412.607 260.259 411.37 259.704C410.175 259.149 409.108 258.36 408.17 257.336C407.274 256.312 406.826 255.075 406.826 253.624C406.826 251.021 407.828 249.08 409.834 247.8C411.839 246.477 414.25 245.816 417.066 245.816H431.53V247.352H428.842C428.33 247.352 427.967 247.459 427.754 247.672C427.54 247.885 427.434 248.248 427.434 248.76V272.056C427.434 272.568 427.54 272.931 427.754 273.144C427.967 273.357 428.33 273.464 428.842 273.464H431.53V275H418.602V273.464H421.418C421.93 273.464 422.292 273.357 422.506 273.144C422.719 272.931 422.826 272.568 422.826 272.056V261.048H417.322C415.914 261.048 414.911 261.667 414.314 262.904C413.716 264.099 413.375 265.912 413.29 268.344C413.204 270.819 412.799 272.675 412.074 273.912C411.348 275.149 409.898 275.768 407.722 275.768ZM422.826 259.512V248.76C422.826 248.248 422.719 247.885 422.506 247.672C422.292 247.459 421.93 247.352 421.418 247.352H418.282C416.404 247.352 414.954 247.907 413.93 249.016C412.948 250.083 412.458 251.619 412.458 253.624C412.458 255.416 412.884 256.845 413.738 257.912C414.591 258.979 415.722 259.512 417.13 259.512H422.826ZM454.557 273.464H457.245C457.757 273.464 458.12 273.357 458.333 273.144C458.546 272.931 458.653 272.568 458.653 272.056V248.76C458.653 248.248 458.546 247.885 458.333 247.672C458.12 247.459 457.757 247.352 457.245 247.352H454.557V245.816H467.357V247.352H464.669C464.157 247.352 463.794 247.459 463.581 247.672C463.368 247.885 463.261 248.248 463.261 248.76V272.056C463.261 272.568 463.368 272.931 463.581 273.144C463.794 273.357 464.157 273.464 464.669 273.464H472.733C473.245 273.464 473.608 273.357 473.821 273.144C474.034 272.931 474.141 272.568 474.141 272.056V248.76C474.141 248.248 474.034 247.885 473.821 247.672C473.608 247.459 473.245 247.352 472.733 247.352H470.045V245.816H482.845V247.352H480.157C479.645 247.352 479.282 247.459 479.069 247.672C478.856 247.885 478.749 248.248 478.749 248.76V272.056C478.749 272.568 478.856 272.931 479.069 273.144C479.282 273.357 479.645 273.464 480.157 273.464H488.221C488.733 273.464 489.096 273.357 489.309 273.144C489.522 272.931 489.629 272.568 489.629 272.056V248.76C489.629 248.248 489.522 247.885 489.309 247.672C489.096 247.459 488.733 247.352 488.221 247.352H485.533V245.816H498.333V247.352H495.645C495.133 247.352 494.77 247.459 494.557 247.672C494.344 247.885 494.237 248.248 494.237 248.76V272.056C494.237 272.568 494.344 272.931 494.557 273.144C494.77 273.357 495.133 273.464 495.645 273.464H498.333V275H454.557V273.464ZM502.667 288.184H505.995C506.507 288.184 506.87 288.077 507.083 287.864C507.296 287.651 507.403 287.288 507.403 286.776V248.76C507.403 248.248 507.296 247.885 507.083 247.672C506.87 247.459 506.507 247.352 505.995 247.352H502.667V245.816H512.011V250.552L512.267 250.616C513.078 248.909 514.102 247.565 515.339 246.584C516.619 245.56 518.07 245.048 519.691 245.048C521.696 245.048 523.552 245.731 525.259 247.096C527.008 248.419 528.395 250.253 529.419 252.6C530.443 254.947 530.955 257.549 530.955 260.408C530.955 263.267 530.443 265.869 529.419 268.216C528.395 270.563 527.008 272.419 525.259 273.784C523.552 275.107 521.696 275.768 519.691 275.768C518.027 275.768 516.534 275.235 515.211 274.168C513.888 273.059 512.907 271.736 512.267 270.2L512.011 270.264V286.776C512.011 287.288 512.118 287.651 512.331 287.864C512.544 288.077 512.907 288.184 513.419 288.184H516.747V289.72H502.667V288.184ZM518.987 273.976C521.078 273.976 522.656 272.803 523.723 270.456C524.79 268.109 525.323 264.76 525.323 260.408C525.323 256.056 524.79 252.707 523.723 250.36C522.656 248.013 521.078 246.84 518.987 246.84C517.707 246.84 516.534 247.309 515.467 248.248C514.4 249.187 513.547 250.488 512.907 252.152C512.31 253.773 512.011 255.544 512.011 257.464V263.352C512.011 265.272 512.31 267.064 512.907 268.728C513.547 270.349 514.4 271.629 515.467 272.568C516.534 273.507 517.707 273.976 518.987 273.976ZM536.432 273.464H539.12C539.632 273.464 539.995 273.357 540.208 273.144C540.421 272.931 540.528 272.568 540.528 272.056V248.76C540.528 248.248 540.421 247.885 540.208 247.672C539.995 247.459 539.632 247.352 539.12 247.352H536.432V245.816H549.232V247.352H546.544C546.032 247.352 545.669 247.459 545.456 247.672C545.243 247.885 545.136 248.248 545.136 248.76V267.576L557.296 250.424V248.76C557.296 248.248 557.189 247.885 556.976 247.672C556.763 247.459 556.4 247.352 555.888 247.352H553.2V245.816H566V247.352H563.312C562.8 247.352 562.437 247.459 562.224 247.672C562.011 247.885 561.904 248.248 561.904 248.76V272.056C561.904 272.568 562.011 272.931 562.224 273.144C562.437 273.357 562.8 273.464 563.312 273.464H566V275H553.2V273.464H555.888C556.4 273.464 556.763 273.357 556.976 273.144C557.189 272.931 557.296 272.568 557.296 272.056V253.24L545.136 270.392V272.056C545.136 272.568 545.243 272.931 545.456 273.144C545.669 273.357 546.032 273.464 546.544 273.464H549.232V275H536.432V273.464ZM583.414 289.464C584.864 287.629 585.888 285.731 586.486 283.768C587.083 281.805 587.382 279.608 587.382 277.176V271.352H587.253C586.827 272.589 586.123 273.635 585.142 274.488C584.16 275.341 582.944 275.768 581.494 275.768C579.403 275.768 577.59 275.021 576.054 273.528C574.56 271.992 573.43 270.051 572.661 267.704C571.894 265.357 571.51 262.925 571.51 260.408C571.51 257.891 571.894 255.459 572.661 253.112C573.43 250.765 574.56 248.845 576.054 247.352C577.59 245.816 579.403 245.048 581.494 245.048C582.944 245.048 584.139 245.517 585.078 246.456C586.016 247.395 586.742 248.568 587.253 249.976H587.382V244.024C587.382 241.592 587.083 239.395 586.486 237.432C585.888 235.469 584.864 233.571 583.414 231.736L584.182 230.968C585.163 231.779 586.272 233.101 587.51 234.936C588.747 236.771 589.472 238.435 589.686 239.928C589.899 238.435 590.624 236.771 591.862 234.936C593.099 233.101 594.208 231.779 595.19 230.968L595.958 231.736C594.507 233.571 593.483 235.469 592.886 237.432C592.288 239.395 591.99 241.592 591.99 244.024V249.976H592.118C592.63 248.568 593.355 247.395 594.294 246.456C595.275 245.517 596.47 245.048 597.878 245.048C599.968 245.048 601.76 245.816 603.254 247.352C604.79 248.845 605.942 250.765 606.71 253.112C607.478 255.459 607.862 257.891 607.862 260.408C607.862 262.925 607.478 265.357 606.71 267.704C605.942 270.051 604.79 271.992 603.254 273.528C601.76 275.021 599.968 275.768 597.878 275.768C596.427 275.768 595.211 275.341 594.23 274.488C593.248 273.635 592.544 272.589 592.118 271.352H591.99V277.176C591.99 279.608 592.288 281.805 592.886 283.768C593.483 285.731 594.507 287.629 595.958 289.464L595.19 290.232C594.208 289.421 593.099 288.099 591.862 286.264C590.624 284.429 589.899 282.765 589.686 281.272C589.472 282.765 588.747 284.429 587.51 286.264C586.272 288.099 585.163 289.421 584.182 290.232L583.414 289.464ZM582.006 274.232C583.67 274.232 584.971 273.165 585.91 271.032C586.891 268.899 587.382 266.424 587.382 263.608V257.592C587.382 254.733 586.891 252.195 585.91 249.976C584.928 247.715 583.627 246.584 582.006 246.584C580.086 246.584 578.784 247.907 578.102 250.552C577.462 253.197 577.142 256.483 577.142 260.408C577.142 264.333 577.462 267.619 578.102 270.264C578.784 272.909 580.086 274.232 582.006 274.232ZM597.366 274.232C599.286 274.232 600.566 272.909 601.206 270.264C601.888 267.619 602.229 264.333 602.229 260.408C602.229 256.483 601.888 253.197 601.206 250.552C600.566 247.907 599.286 246.584 597.366 246.584C595.744 246.584 594.443 247.715 593.462 249.976C592.48 252.195 591.99 254.733 591.99 257.592V263.608C591.99 266.424 592.459 268.899 593.398 271.032C594.379 273.165 595.702 274.232 597.366 274.232ZM619.642 273.464H622.33C622.842 273.464 623.204 273.357 623.418 273.144C623.631 272.931 623.738 272.568 623.738 272.056V248.76C623.738 248.248 623.631 247.885 623.418 247.672C623.204 247.459 622.842 247.352 622.33 247.352C620.964 247.352 619.812 247.651 618.874 248.248C617.935 248.803 617.21 249.571 616.698 250.552C616.058 251.832 615.567 253.176 615.226 254.584C614.927 255.949 614.778 256.781 614.778 257.08H613.498L613.946 245.816H638.202L638.586 257.08H637.306C637.306 256.781 637.135 255.949 636.794 254.584C636.495 253.176 636.026 251.832 635.386 250.552C634.874 249.571 634.148 248.803 633.21 248.248C632.271 247.651 631.119 247.352 629.753 247.352C629.242 247.352 628.879 247.459 628.666 247.672C628.452 247.885 628.346 248.248 628.346 248.76V272.056C628.346 272.568 628.452 272.931 628.666 273.144C628.879 273.357 629.242 273.464 629.753 273.464H632.442V275H619.642V273.464ZM652.389 275.768C650.128 275.768 648.165 275.213 646.501 274.104C644.88 272.995 644.069 271.032 644.069 268.216C644.069 266.04 644.624 264.333 645.733 263.096C646.842 261.859 648.122 260.984 649.573 260.472C651.066 259.917 652.858 259.448 654.949 259.064L660.837 257.976V252.536C660.837 248.568 658.853 246.584 654.885 246.584C653.434 246.584 652.112 246.968 650.917 247.736C649.722 248.461 649.125 249.293 649.125 250.232C649.125 250.659 649.189 250.979 649.317 251.192C649.402 251.32 649.53 251.448 649.701 251.576C649.914 251.704 650.106 251.789 650.277 251.832C651.045 252.045 651.621 252.344 652.005 252.728C652.432 253.112 652.645 253.645 652.645 254.328C652.645 255.224 652.368 255.864 651.813 256.248C651.301 256.632 650.64 256.824 649.829 256.824C648.89 256.824 648.037 256.461 647.269 255.736C646.501 255.011 646.117 253.965 646.117 252.6C646.117 251.021 646.544 249.656 647.397 248.504C648.293 247.352 649.424 246.499 650.789 245.944C652.197 245.347 653.626 245.048 655.077 245.048C657.893 245.048 660.325 245.795 662.373 247.288C664.421 248.739 665.445 251.021 665.445 254.136V269.88C665.445 272.013 666.106 273.08 667.429 273.08C668.496 273.08 669.264 272.461 669.733 271.224C670.202 269.987 670.437 268.472 670.437 266.68H671.589C671.589 269.24 671.205 271.395 670.437 273.144C669.712 274.893 668.389 275.768 666.469 275.768C664.634 275.768 663.248 275.235 662.309 274.168C661.413 273.059 660.922 271.544 660.837 269.624L660.517 269.496C659.877 270.989 658.832 272.419 657.381 273.784C655.973 275.107 654.309 275.768 652.389 275.768ZM653.413 273.464C655.333 273.464 656.826 272.717 657.893 271.224C659.002 269.688 659.984 267.747 660.837 265.4V259.32L655.269 260.536C653.221 260.963 651.728 261.816 650.789 263.096C649.893 264.333 649.445 266.104 649.445 268.408C649.445 270.371 649.85 271.715 650.661 272.44C651.472 273.123 652.389 273.464 653.413 273.464Z" fill="white"/>
</svg>
