<svg width="1280" height="1390" viewBox="0 0 1280 1390" fill="none" xmlns="http://www.w3.org/2000/svg">
<rect width="1280" height="1390" fill="white"/>
<path d="M1187.5 34L1224.31 205.75H1150.69L1187.5 34Z" fill="black"/>
<ellipse cx="1187.5" cy="212.368" rx="37.2287" ry="37.3945" fill="black"/>
<path d="M1008.5 298L1045.31 469.75H971.694L1008.5 298Z" fill="black"/>
<ellipse cx="1008.5" cy="476.368" rx="37.2287" ry="37.3945" fill="black"/>
<path d="M751.5 8L788.306 179.75H714.694L751.5 8Z" fill="black"/>
<ellipse cx="751.5" cy="186.368" rx="37.2287" ry="37.3945" fill="black"/>
<path d="M295.5 275L332.306 446.75H258.694L295.5 275Z" fill="black"/>
<ellipse cx="295.5" cy="453.368" rx="37.2287" ry="37.3945" fill="black"/>
<path d="M108.5 28L145.306 199.75H71.6939L108.5 28Z" fill="black"/>
<ellipse cx="108.5" cy="206.368" rx="37.2287" ry="37.3945" fill="black"/>
<path d="M905 151L926.651 235H883.349L905 151Z" fill="black"/>
<ellipse cx="905.001" cy="238.237" rx="21.8993" ry="18.289" fill="black"/>
<path d="M1046 27L1067.65 111H1024.35L1046 27Z" fill="black"/>
<ellipse cx="1046" cy="114.237" rx="21.8993" ry="18.289" fill="black"/>
<path d="M1162 322L1183.65 406H1140.35L1162 322Z" fill="black"/>
<ellipse cx="1162" cy="409.237" rx="21.8993" ry="18.289" fill="black"/>
<path d="M181 273L202.651 357H159.349L181 273Z" fill="black"/>
<ellipse cx="181.001" cy="360.237" rx="21.8993" ry="18.289" fill="black"/>
<path d="M68.0001 435L89.6509 519H46.3494L68.0001 435Z" fill="black"/>
<ellipse cx="68.0009" cy="522.237" rx="21.8993" ry="18.289" fill="black"/>
<path d="M358 57L379.651 141H336.349L358 57Z" fill="black"/>
<ellipse cx="358.001" cy="144.237" rx="21.8993" ry="18.289" fill="black"/>
<path d="M537 139L558.651 223H515.349L537 139Z" fill="black"/>
<ellipse cx="537.001" cy="226.237" rx="21.8993" ry="18.289" fill="black"/>
</svg>
