<svg width="274" height="1303" viewBox="0 0 274 1303" fill="none" xmlns="http://www.w3.org/2000/svg">
<ellipse cx="227.998" cy="149.214" rx="73" ry="131" transform="rotate(23.3848 227.998 149.214)" fill="black"/>
<ellipse cx="227.54" cy="149.015" rx="48.5" ry="84" transform="rotate(23.3848 227.54 149.015)" fill="white"/>
<ellipse cx="148.745" cy="384.488" rx="73" ry="131" transform="rotate(13.594 148.745 384.488)" fill="black"/>
<ellipse cx="148.259" cy="384.371" rx="48.5" ry="84" transform="rotate(13.594 148.259 384.371)" fill="white"/>
<ellipse cx="97.518" cy="621.208" rx="73" ry="131" transform="rotate(9.45018 97.518 621.208)" fill="black"/>
<ellipse cx="97.0244" cy="621.126" rx="48.5" ry="84" transform="rotate(9.45018 97.0244 621.126)" fill="white"/>
<ellipse cx="87.5938" cy="866.881" rx="73" ry="131" transform="rotate(-5.7175 87.5938 866.881)" fill="black"/>
<ellipse cx="87.0959" cy="866.931" rx="48.5" ry="84" transform="rotate(-5.7175 87.0959 866.931)" fill="white"/>
<ellipse cx="91.5088" cy="1117.55" rx="73" ry="131" transform="rotate(4.70906 91.5088 1117.55)" fill="black"/>
<ellipse cx="91.0105" cy="1117.51" rx="48.5" ry="84" transform="rotate(4.70906 91.0105 1117.51)" fill="white"/>
<circle cx="67.5" cy="1302.5" r="67.5" fill="black"/>
</svg>
