<svg width="1012" height="717" viewBox="0 0 1012 717" fill="none" xmlns="http://www.w3.org/2000/svg">
<path d="M17.0175 224.395C13.6812 224.8 12.3047 220.252 15.3054 218.738L351.016 49.4044C351.852 48.9828 352.837 48.9755 353.678 49.3847L702.062 218.712C705.101 220.189 703.757 224.784 700.4 224.39L608.419 213.577C607.507 213.469 606.596 213.786 605.947 214.435L549.472 270.932C548.574 271.831 547.208 272.066 546.061 271.52L452.7 227.065C451.894 226.681 450.958 226.676 450.148 227.052L353.485 271.901C352.754 272.24 351.918 272.271 351.164 271.986L231.835 226.961C230.992 226.643 230.052 226.72 229.273 227.171L153.403 271.085C152.079 271.851 150.391 271.498 149.484 270.266L108.682 214.818C108.04 213.946 106.979 213.487 105.905 213.618L17.0175 224.395Z" fill="black"/>
<path d="M554.562 184.729C554.562 226.387 457.079 184.729 356.139 184.729C255.199 184.729 148.785 226.387 148.785 184.729C148.785 143.071 255.199 33.8735 356.139 33.8735C457.079 33.8735 554.562 143.071 554.562 184.729Z" fill="black"/>
<path d="M340.104 260.363H363.218V670.318L360.473 679.153L356.354 687.164L350.425 694.992L342.875 703.836L332.579 711.839L308.556 716.999L285.905 710.331L269.431 698.327L252.271 676.32L261.195 673.652L271.49 670.318L285.905 688.991L295.514 695.659L305.81 698.994L316.792 697.168L326.153 689.832L335.325 679.153L340.104 670.318V646.969V610.906V564.951V466.268V260.363Z" fill="black"/>
<rect x="335.172" y="249.916" width="32.5642" height="22.5149" fill="black"/>
<rect x="336.803" width="29.3872" height="49.688" fill="black"/>
<path d="M278.12 204.768C276.712 204.768 275.517 204.533 274.536 204.064C273.597 203.595 272.851 202.827 272.296 201.76C271.144 199.541 270.525 195.765 270.44 190.432C270.397 187.573 269.885 185.205 268.904 183.328C267.923 181.408 266.344 180.448 264.168 180.448H257.192V200.224C257.192 200.821 257.32 201.269 257.576 201.568C257.832 201.824 258.28 201.952 258.92 201.952H264.616V204H244.968V201.952H249.576C250.728 201.952 251.304 201.376 251.304 200.224V162.208C251.304 161.611 251.155 161.184 250.856 160.928C250.6 160.629 250.173 160.48 249.576 160.48H244.968V158.432H265.96C270.099 158.432 273.491 159.221 276.136 160.8C278.781 162.379 280.104 165.003 280.104 168.672C280.104 171.829 278.909 174.368 276.52 176.288C274.173 178.208 271.336 179.339 268.008 179.68V179.936C270.44 180.405 272.424 181.536 273.96 183.328C275.539 185.077 276.584 188.085 277.096 192.352C277.395 194.784 277.651 196.555 277.864 197.664C278.12 198.773 278.419 199.563 278.76 200.032C279.144 200.459 279.699 200.672 280.424 200.672C282.259 200.672 283.176 198.368 283.176 193.76H284.776C284.776 196.533 284.371 199.072 283.56 201.376C282.749 203.637 280.936 204.768 278.12 204.768ZM263.4 178.4C266.984 178.4 269.523 177.547 271.016 175.84C272.552 174.091 273.32 171.701 273.32 168.672C273.32 166.069 272.616 164.064 271.208 162.656C269.843 161.205 267.965 160.48 265.576 160.48H258.92C258.323 160.48 257.875 160.629 257.576 160.928C257.32 161.184 257.192 161.611 257.192 162.208V178.4H263.4ZM303.069 204.768C299.101 204.768 295.901 203.424 293.469 200.736C291.079 198.048 289.885 194.315 289.885 189.536C289.885 186.805 290.418 184.267 291.485 181.92C292.551 179.531 294.023 177.632 295.901 176.224C297.821 174.773 299.954 174.048 302.301 174.048C304.903 174.048 307.037 174.752 308.701 176.16C310.365 177.568 311.559 179.36 312.285 181.536C313.053 183.669 313.437 185.867 313.437 188.128C313.437 188.597 313.287 188.917 312.989 189.088C312.69 189.216 312.178 189.28 311.453 189.28H295.517C295.517 193.547 296.114 196.939 297.309 199.456C298.546 201.973 300.551 203.232 303.325 203.232C305.287 203.232 307.122 202.485 308.829 200.992C310.578 199.499 311.687 197.173 312.157 194.016H313.693C313.437 197.131 312.349 199.712 310.429 201.76C308.551 203.765 306.098 204.768 303.069 204.768ZM307.933 187.744C307.933 184.331 307.485 181.451 306.589 179.104C305.693 176.757 304.221 175.584 302.173 175.584C299.997 175.584 298.333 176.779 297.181 179.168C296.071 181.515 295.517 184.373 295.517 187.744H307.933ZM333.402 219.232C329.647 219.232 326.405 218.635 323.674 217.44C320.943 216.245 319.578 214.368 319.578 211.808C319.578 210.229 320.197 208.843 321.434 207.648C322.671 206.453 324.143 205.728 325.85 205.472V205.28C322.095 204.469 320.218 202.891 320.218 200.544C320.218 198.795 320.879 197.429 322.202 196.448C323.567 195.424 325.231 194.741 327.194 194.4V194.208C325.402 193.44 323.866 192.288 322.586 190.752C321.349 189.173 320.73 187.104 320.73 184.544C320.73 182.368 321.263 180.491 322.33 178.912C323.397 177.333 324.783 176.139 326.49 175.328C328.239 174.475 330.117 174.048 332.122 174.048C333.359 174.048 334.575 174.261 335.77 174.688C337.007 175.072 338.053 175.541 338.906 176.096C339.802 176.608 340.378 177.035 340.634 177.376C341.018 176.267 341.637 175.435 342.49 174.88C343.343 174.325 344.197 174.048 345.05 174.048C346.501 174.048 347.695 174.475 348.634 175.328C349.573 176.181 350.042 177.291 350.042 178.656C350.042 179.68 349.786 180.512 349.274 181.152C348.805 181.792 348.165 182.112 347.354 182.112C346.671 182.112 346.074 181.941 345.562 181.6C345.05 181.216 344.794 180.619 344.794 179.808C344.794 178.869 345.157 178.187 345.882 177.76C346.138 177.589 346.309 177.44 346.394 177.312C346.522 177.141 346.586 176.907 346.586 176.608C346.586 176.267 346.415 176.011 346.074 175.84C345.733 175.669 345.327 175.584 344.858 175.584C344.09 175.584 343.386 175.904 342.746 176.544C342.149 177.141 341.807 177.845 341.722 178.656C342.917 180.32 343.514 182.283 343.514 184.544C343.514 186.677 343.002 188.555 341.978 190.176C340.954 191.755 339.567 192.971 337.818 193.824C336.111 194.635 334.213 195.04 332.122 195.04C329.69 195.04 327.514 195.381 325.594 196.064C323.717 196.704 322.778 197.792 322.778 199.328C322.778 200.139 323.141 200.693 323.866 200.992C324.591 201.291 325.594 201.44 326.874 201.44C327.77 201.44 328.495 201.419 329.05 201.376C329.562 201.333 330.223 201.312 331.034 201.312H337.626C340.357 201.312 342.639 202.059 344.474 203.552C346.309 205.003 347.226 207.157 347.226 210.016C347.226 213.003 345.946 215.285 343.386 216.864C340.869 218.443 337.541 219.232 333.402 219.232ZM332.122 193.504C334.085 193.504 335.621 192.715 336.73 191.136C337.839 189.557 338.394 187.36 338.394 184.544C338.394 181.728 337.839 179.531 336.73 177.952C335.621 176.373 334.085 175.584 332.122 175.584C330.159 175.584 328.623 176.373 327.514 177.952C326.405 179.531 325.85 181.728 325.85 184.544C325.85 187.36 326.405 189.557 327.514 191.136C328.623 192.715 330.159 193.504 332.122 193.504ZM333.402 217.696C336.474 217.696 339.162 217.141 341.466 216.032C343.77 214.965 344.922 213.131 344.922 210.528C344.922 209.205 344.517 208.053 343.706 207.072C342.938 206.133 341.573 205.664 339.61 205.664H332.506C329.775 205.664 327.407 206.112 325.402 207.008C323.397 207.947 322.394 209.504 322.394 211.68C322.394 213.685 323.525 215.179 325.786 216.16C328.047 217.184 330.586 217.696 333.402 217.696ZM365.533 204.768C362.418 204.768 360.199 203.808 358.877 201.888C357.597 199.968 356.957 197.664 356.957 194.976V177.76C356.957 177.248 356.85 176.885 356.637 176.672C356.423 176.459 356.061 176.352 355.549 176.352H352.861V174.816H361.565V196.192C361.565 198.069 361.927 199.669 362.653 200.992C363.421 202.315 364.701 202.976 366.493 202.976C367.986 202.976 369.309 202.464 370.461 201.44C371.655 200.373 372.573 198.944 373.213 197.152C373.895 195.317 374.237 193.291 374.237 191.072V177.76C374.237 177.248 374.13 176.885 373.917 176.672C373.703 176.459 373.341 176.352 372.829 176.352H370.141V174.816H378.845V201.056C378.845 201.568 378.951 201.931 379.165 202.144C379.378 202.357 379.741 202.464 380.253 202.464H382.941V204H374.237V198.752L373.981 198.688C372.999 200.736 371.783 202.272 370.333 203.296C368.882 204.277 367.282 204.768 365.533 204.768ZM386.792 202.464H390.12C390.632 202.464 390.995 202.357 391.208 202.144C391.421 201.931 391.528 201.568 391.528 201.056V161.376C391.528 160.864 391.421 160.501 391.208 160.288C390.995 160.075 390.632 159.968 390.12 159.968H386.792V158.432H396.136V201.056C396.136 201.568 396.243 201.931 396.456 202.144C396.669 202.357 397.032 202.464 397.544 202.464H400.872V204H386.792V202.464ZM413.514 204.768C411.253 204.768 409.29 204.213 407.626 203.104C406.005 201.995 405.194 200.032 405.194 197.216C405.194 195.04 405.749 193.333 406.858 192.096C407.967 190.859 409.247 189.984 410.698 189.472C412.191 188.917 413.983 188.448 416.074 188.064L421.962 186.976V181.536C421.962 177.568 419.978 175.584 416.01 175.584C414.559 175.584 413.237 175.968 412.042 176.736C410.847 177.461 410.25 178.293 410.25 179.232C410.25 179.659 410.314 179.979 410.442 180.192C410.527 180.32 410.655 180.448 410.826 180.576C411.039 180.704 411.231 180.789 411.402 180.832C412.17 181.045 412.746 181.344 413.13 181.728C413.557 182.112 413.77 182.645 413.77 183.328C413.77 184.224 413.493 184.864 412.938 185.248C412.426 185.632 411.765 185.824 410.954 185.824C410.015 185.824 409.162 185.461 408.394 184.736C407.626 184.011 407.242 182.965 407.242 181.6C407.242 180.021 407.669 178.656 408.522 177.504C409.418 176.352 410.549 175.499 411.914 174.944C413.322 174.347 414.751 174.048 416.202 174.048C419.018 174.048 421.45 174.795 423.498 176.288C425.546 177.739 426.57 180.021 426.57 183.136V198.88C426.57 201.013 427.231 202.08 428.554 202.08C429.621 202.08 430.389 201.461 430.858 200.224C431.327 198.987 431.562 197.472 431.562 195.68H432.714C432.714 198.24 432.33 200.395 431.562 202.144C430.837 203.893 429.514 204.768 427.594 204.768C425.759 204.768 424.373 204.235 423.434 203.168C422.538 202.059 422.047 200.544 421.962 198.624L421.642 198.496C421.002 199.989 419.957 201.419 418.506 202.784C417.098 204.107 415.434 204.768 413.514 204.768ZM414.538 202.464C416.458 202.464 417.951 201.717 419.018 200.224C420.127 198.688 421.109 196.747 421.962 194.4V188.32L416.394 189.536C414.346 189.963 412.853 190.816 411.914 192.096C411.018 193.333 410.57 195.104 410.57 197.408C410.57 199.371 410.975 200.715 411.786 201.44C412.597 202.123 413.514 202.464 414.538 202.464ZM436.307 202.464H438.995C439.507 202.464 439.87 202.357 440.083 202.144C440.296 201.931 440.403 201.568 440.403 201.056V177.76C440.403 177.248 440.296 176.885 440.083 176.672C439.87 176.459 439.507 176.352 438.995 176.352H436.307V174.816H445.011V181.216L445.267 181.28C446.163 179.061 447.315 177.312 448.723 176.032C450.174 174.709 451.71 174.048 453.331 174.048C454.952 174.048 456.275 174.517 457.299 175.456C458.323 176.395 458.835 177.675 458.835 179.296C458.835 180.235 458.494 181.152 457.811 182.048C457.171 182.944 456.339 183.392 455.315 183.392C454.504 183.392 453.822 183.179 453.267 182.752C452.712 182.325 452.435 181.728 452.435 180.96C452.435 180.064 452.862 179.296 453.715 178.656C454.099 178.4 454.376 178.165 454.547 177.952C454.76 177.739 454.867 177.461 454.867 177.12C454.867 176.736 454.675 176.437 454.291 176.224C453.95 175.968 453.459 175.84 452.819 175.84C451.496 175.84 450.216 176.48 448.979 177.76C447.784 179.04 446.824 180.704 446.099 182.752C445.374 184.8 445.011 186.933 445.011 189.152V201.056C445.011 201.568 445.118 201.931 445.331 202.144C445.544 202.357 445.907 202.464 446.419 202.464H449.107V204H436.307V202.464Z" fill="white"/>
<path d="M277.888 139.904H282.624C287.659 139.904 291.328 136.789 293.632 130.56L321.152 52.864H324.352L352.128 134.272C352.981 136.405 354.005 137.899 355.2 138.752C356.395 139.52 357.931 139.904 359.808 139.904H366.976V144H327.296V139.904H335.744C337.024 139.904 338.091 139.605 338.944 139.008C339.797 138.325 340.224 137.557 340.224 136.704C340.224 135.595 340.053 134.656 339.712 133.888L333.696 116.864H303.744L300.672 125.44C299.477 128.853 298.88 131.328 298.88 132.864C298.88 134.741 299.349 136.405 300.288 137.856C301.227 139.221 302.848 139.904 305.152 139.904H312.96V144H277.888V139.904ZM305.152 112.768H332.288L318.976 73.728L305.152 112.768ZM392.278 145.536C387.755 145.536 383.83 144.427 380.502 142.208C377.259 139.989 375.638 136.064 375.638 130.432C375.638 126.08 376.747 122.667 378.966 120.192C381.185 117.717 383.745 115.968 386.646 114.944C389.633 113.835 393.217 112.896 397.398 112.128L409.174 109.952V99.072C409.174 91.136 405.206 87.168 397.27 87.168C394.369 87.168 391.723 87.936 389.334 89.472C386.945 90.9227 385.75 92.5867 385.75 94.464C385.75 95.3173 385.878 95.9573 386.134 96.384C386.305 96.64 386.561 96.896 386.902 97.152C387.329 97.408 387.713 97.5787 388.054 97.664C389.59 98.0907 390.742 98.688 391.51 99.456C392.363 100.224 392.79 101.291 392.79 102.656C392.79 104.448 392.235 105.728 391.126 106.496C390.102 107.264 388.779 107.648 387.158 107.648C385.281 107.648 383.574 106.923 382.038 105.472C380.502 104.021 379.734 101.931 379.734 99.2C379.734 96.0427 380.587 93.312 382.294 91.008C384.086 88.704 386.347 86.9973 389.078 85.888C391.894 84.6933 394.753 84.096 397.654 84.096C403.286 84.096 408.15 85.5893 412.246 88.576C416.342 91.4773 418.39 96.0427 418.39 102.272V133.76C418.39 138.027 419.713 140.16 422.358 140.16C424.491 140.16 426.027 138.923 426.966 136.448C427.905 133.973 428.374 130.944 428.374 127.36H430.678C430.678 132.48 429.91 136.789 428.374 140.288C426.923 143.787 424.278 145.536 420.438 145.536C416.769 145.536 413.995 144.469 412.118 142.336C410.326 140.117 409.345 137.088 409.174 133.248L408.534 132.992C407.254 135.979 405.163 138.837 402.262 141.568C399.446 144.213 396.118 145.536 392.278 145.536ZM394.326 140.928C398.166 140.928 401.153 139.435 403.286 136.448C405.505 133.376 407.467 129.493 409.174 124.8V112.64L398.038 115.072C393.942 115.925 390.955 117.632 389.078 120.192C387.286 122.667 386.39 126.208 386.39 130.816C386.39 134.741 387.201 137.429 388.822 138.88C390.443 140.245 392.278 140.928 394.326 140.928Z" fill="white"/>
</svg>
