<svg width="501" height="498" viewBox="0 0 501 498" fill="none" xmlns="http://www.w3.org/2000/svg">
<path d="M17.0841 155.227C13.7454 155.63 12.3731 151.076 15.3786 149.567L244.533 34.5126C245.366 34.0943 246.346 34.0871 247.186 34.4931L484.985 149.541C488.03 151.014 486.689 155.614 483.33 155.221L424.969 148.392C424.06 148.286 423.152 148.6 422.503 149.246L383.856 187.731C382.959 188.624 381.598 188.858 380.454 188.316L316.261 157.89C315.458 157.509 314.526 157.504 313.719 157.877L246.993 188.693C246.265 189.03 245.432 189.061 244.68 188.778L162.165 157.787C161.325 157.471 160.389 157.548 159.612 157.996L107.736 187.883C106.415 188.645 104.733 188.293 103.826 187.067L76.1488 149.628C75.5071 148.76 74.4486 148.303 73.3769 148.433L17.0841 155.227Z" fill="black"/>
<path d="M386.958 128.306C386.958 157.239 318.937 128.306 248.504 128.306C178.071 128.306 103.818 157.239 103.818 128.306C103.818 99.372 178.071 23.5273 248.504 23.5273C318.937 23.5273 386.958 99.372 386.958 128.306Z" fill="black"/>
<path d="M237.316 180.838H253.445V465.577L251.529 471.714L248.655 477.278L244.518 482.715L239.25 488.858L232.066 494.416L215.303 498L199.498 493.369L188.003 485.031L176.029 469.746L182.256 467.893L189.44 465.577L199.498 478.547L206.203 483.178L213.387 485.494L221.05 484.226L227.582 479.131L233.982 471.714L237.316 465.577V449.36V424.312V392.394V323.852V180.838Z" fill="black"/>
<rect x="233.873" y="173.583" width="22.7223" height="15.638" fill="black"/>
<rect x="235.012" width="20.5055" height="34.5114" fill="black"/>
<path d="M193.92 147.72H196.96C197.68 147.72 198.133 147.36 198.32 146.64L204.76 122.88C204.813 122.667 204.84 122.507 204.84 122.4C204.84 122 204.56 121.8 204 121.8H200.96L201.28 120.52H213.12L212.8 121.8H209.76C209.04 121.8 208.587 122.16 208.4 122.88L201.96 146.64C201.907 146.853 201.88 147 201.88 147.08C201.88 147.507 202.16 147.72 202.72 147.72H205.76L205.44 149H193.6L193.92 147.72ZM215.056 149.48C214.176 149.48 213.456 149.187 212.896 148.6C212.362 147.987 212.096 147.16 212.096 146.12C212.096 145.107 212.242 144.013 212.536 142.84L215.416 132.36H212.656L212.936 131.24H215.736L218.336 121.64H220.976L218.376 131.24H222.896L222.616 132.36H218.056L214.736 144.68C214.656 144.947 214.576 145.32 214.496 145.8C214.442 146.253 214.416 146.627 214.416 146.92C214.416 147.16 214.509 147.413 214.696 147.68C214.882 147.947 215.176 148.08 215.576 148.08C215.922 148.08 216.269 147.973 216.616 147.76C217.229 147.333 217.749 146.613 218.176 145.6C218.629 144.56 219.069 143.267 219.496 141.72L220.296 141.96C219.762 144.227 219.096 146.053 218.296 147.44C217.496 148.8 216.416 149.48 215.056 149.48ZM228.988 149.48C227.575 149.48 226.468 148.987 225.668 148C224.895 146.987 224.508 145.653 224.508 144C224.508 142.373 224.748 140.813 225.228 139.32C225.708 137.8 226.255 136.56 226.868 135.6C227.801 134.133 228.881 132.96 230.108 132.08C231.361 131.2 232.628 130.76 233.908 130.76C234.735 130.76 235.481 131.053 236.148 131.64C236.815 132.2 237.295 133.08 237.588 134.28L237.748 134.36L238.628 131.24H241.268L237.868 143.84C237.495 145.333 237.308 146.4 237.308 147.04C237.308 147.413 237.361 147.693 237.468 147.88C237.575 148.04 237.761 148.12 238.028 148.12C238.748 148.12 239.495 147.533 240.268 146.36C241.041 145.16 241.748 143.613 242.388 141.72L243.188 141.96C242.495 144.013 241.641 145.787 240.628 147.28C239.641 148.747 238.535 149.48 237.308 149.48C235.761 149.48 234.988 148.12 234.988 145.4C234.988 145.053 234.988 144.8 234.988 144.64C235.015 144.453 235.028 144.347 235.028 144.32L234.908 144.24C234.348 145.44 233.521 146.613 232.428 147.76C231.361 148.907 230.215 149.48 228.988 149.48ZM229.228 148.52C230.215 148.52 231.161 148.027 232.068 147.04C232.975 146.027 233.815 144.68 234.588 143C235.121 141.8 235.588 140.467 235.988 139C236.388 137.533 236.588 136.333 236.588 135.4C236.588 134.227 236.348 133.32 235.868 132.68C235.388 132.04 234.735 131.72 233.908 131.72C233.081 131.72 232.295 132.173 231.548 133.08C230.801 133.987 230.161 135.027 229.628 136.2C228.961 137.693 228.415 139.28 227.988 140.96C227.588 142.64 227.388 144.187 227.388 145.6C227.388 146.4 227.521 147.093 227.788 147.68C228.081 148.24 228.561 148.52 229.228 148.52ZM248.753 149.48C247.207 149.48 246.433 148.12 246.433 145.4C246.433 144.867 246.567 144.067 246.833 143L252.513 122.36C252.567 122.147 252.593 122.013 252.593 121.96C252.593 121.64 252.353 121.48 251.873 121.48H248.353L248.633 120.52H255.633L249.393 143.48C248.967 145.187 248.753 146.373 248.753 147.04C248.753 147.413 248.807 147.693 248.913 147.88C249.02 148.04 249.22 148.12 249.513 148.12C250.26 148.12 251.007 147.507 251.753 146.28C252.527 145.027 253.22 143.507 253.833 141.72L254.633 141.96C253.913 143.987 253.087 145.747 252.153 147.24C251.22 148.733 250.087 149.48 248.753 149.48ZM266.595 125.56C266.008 125.56 265.515 125.36 265.115 124.96C264.715 124.56 264.515 124.067 264.515 123.48C264.515 122.867 264.715 122.373 265.115 122C265.515 121.6 266.008 121.4 266.595 121.4C267.208 121.4 267.702 121.6 268.075 122C268.475 122.373 268.675 122.867 268.675 123.48C268.675 124.067 268.475 124.56 268.075 124.96C267.702 125.36 267.208 125.56 266.595 125.56ZM262.315 149.48C261.595 149.48 260.982 149.16 260.475 148.52C259.995 147.88 259.755 146.92 259.755 145.64C259.755 145.053 259.835 144.36 259.995 143.56C260.155 142.733 260.342 142.067 260.555 141.56L263.115 135.6C263.248 135.307 263.382 134.92 263.515 134.44C263.675 133.96 263.755 133.56 263.755 133.24C263.755 132.867 263.675 132.56 263.515 132.32C263.382 132.08 263.168 131.96 262.875 131.96C261.968 131.96 261.088 132.653 260.235 134.04C259.408 135.427 258.702 136.92 258.115 138.52L257.315 138.28C258.035 136.147 258.915 134.36 259.955 132.92C260.995 131.48 262.115 130.76 263.315 130.76C264.008 130.76 264.595 131.093 265.075 131.76C265.582 132.427 265.835 133.373 265.835 134.6C265.835 135.187 265.755 135.907 265.595 136.76C265.435 137.587 265.248 138.227 265.035 138.68L262.475 144.64C262.342 144.933 262.195 145.32 262.035 145.8C261.902 146.28 261.835 146.68 261.835 147C261.835 147.373 261.915 147.68 262.075 147.92C262.235 148.16 262.462 148.28 262.755 148.28C263.662 148.28 264.528 147.587 265.355 146.2C266.182 144.813 266.888 143.32 267.475 141.72L268.275 141.96C267.555 144.12 266.675 145.92 265.635 147.36C264.622 148.773 263.515 149.48 262.315 149.48ZM276.674 149.48C275.074 149.48 273.781 148.827 272.794 147.52C271.808 146.187 271.314 144.573 271.314 142.68C271.314 141.08 271.608 139.507 272.194 137.96C272.781 136.387 273.661 134.987 274.834 133.76C275.768 132.773 276.701 132.027 277.634 131.52C278.594 131.013 279.661 130.76 280.834 130.76C281.848 130.76 282.741 131.08 283.514 131.72C284.288 132.36 284.674 133.373 284.674 134.76C284.674 135.56 284.448 136.227 283.994 136.76C283.568 137.293 283.034 137.56 282.394 137.56C281.888 137.56 281.501 137.413 281.234 137.12C280.968 136.8 280.834 136.44 280.834 136.04C280.834 135.267 281.261 134.573 282.114 133.96C282.408 133.72 282.554 133.373 282.554 132.92C282.554 132.68 282.408 132.427 282.114 132.16C281.821 131.867 281.341 131.72 280.674 131.72C278.594 131.72 276.781 134.04 275.234 138.68C274.941 139.56 274.688 140.667 274.474 142C274.288 143.307 274.194 144.333 274.194 145.08C274.194 146.253 274.448 147.12 274.954 147.68C275.488 148.24 276.128 148.52 276.874 148.52C278.528 148.52 279.874 147.853 280.914 146.52C281.954 145.187 282.688 143.947 283.114 142.8L283.954 143.08C283.314 144.893 282.341 146.413 281.034 147.64C279.728 148.867 278.274 149.48 276.674 149.48Z" fill="white"/>
<path d="M189.808 110.928H197.104C198.832 110.928 199.92 110.064 200.368 108.336L215.824 51.312C215.952 50.8 216.016 50.416 216.016 50.16C216.016 49.2 215.344 48.72 214 48.72H206.704L207.472 45.648H240.88C243.888 45.648 246.672 46.224 249.232 47.376C251.792 48.464 253.84 50.128 255.376 52.368C256.976 54.544 257.776 57.2 257.776 60.336C257.776 63.92 256.656 66.96 254.416 69.456C252.176 71.952 249.424 73.872 246.16 75.216C242.96 76.56 239.76 77.456 236.56 77.904L236.464 78.096C239.152 78.224 241.68 78.928 244.048 80.208C246.416 81.488 248.304 83.216 249.712 85.392C251.12 87.568 251.824 90.064 251.824 92.88C251.824 97.04 250.448 100.752 247.696 104.016C244.944 107.216 241.456 109.68 237.232 111.408C233.072 113.136 228.976 114 224.944 114H189.04L189.808 110.928ZM230.704 76.176C235.12 76.176 238.64 75.344 241.264 73.68C243.952 71.952 245.84 69.872 246.928 67.44C248.016 65.008 248.56 62.576 248.56 60.144C248.56 52.528 245.008 48.72 237.904 48.72H227.824C226.096 48.72 225.008 49.584 224.56 51.312L217.84 76.176H230.704ZM226.576 110.928C229.584 110.928 232.24 110.064 234.544 108.336C236.848 106.544 238.608 104.304 239.824 101.616C241.04 98.864 241.648 96.112 241.648 93.36C241.648 89.008 240.688 85.584 238.768 83.088C236.848 80.528 234 79.248 230.224 79.248H216.976L209.104 108.336C208.976 108.848 208.912 109.2 208.912 109.392C208.912 110.416 209.584 110.928 210.928 110.928H226.576ZM273.753 115.152C269.977 115.152 266.937 113.84 264.633 111.216C262.393 108.528 261.273 104.4 261.273 98.832C261.273 94.352 262.329 89.904 264.441 85.488C266.617 81.008 269.497 77.36 273.081 74.544C276.665 71.664 280.473 70.224 284.505 70.224C287.321 70.224 289.593 71.056 291.321 72.72C293.049 74.384 293.913 76.336 293.913 78.576C293.913 81.264 292.697 83.472 290.265 85.2C287.897 86.928 285.337 88.112 282.585 88.752L282.489 89.232C284.921 89.232 287.065 90.128 288.921 91.92C290.841 93.712 291.801 96.048 291.801 98.928C291.801 102.064 290.969 104.88 289.305 107.376C287.641 109.808 285.401 111.728 282.585 113.136C279.833 114.48 276.889 115.152 273.753 115.152ZM276.537 88.944C279.801 88.176 282.521 86.832 284.697 84.912C286.873 82.992 287.961 80.592 287.961 77.712C287.961 76.048 287.577 74.768 286.809 73.872C286.105 72.976 285.145 72.528 283.929 72.528C282.201 72.528 280.601 73.104 279.129 74.256C277.657 75.344 276.185 77.2 274.713 79.824C273.881 81.232 273.017 83.024 272.121 85.2C271.289 87.312 270.681 89.136 270.297 90.672L276.537 88.944ZM274.329 112.848C276.441 112.848 278.297 112.176 279.897 110.832C281.497 109.424 282.713 107.664 283.545 105.552C284.441 103.376 284.889 101.2 284.889 99.024C284.889 96.72 284.281 94.896 283.065 93.552C281.849 92.208 280.153 91.536 277.977 91.536C274.585 91.536 271.769 92.272 269.529 93.744C268.633 97.712 268.185 101.008 268.185 103.632C268.185 106.832 268.697 109.168 269.721 110.64C270.745 112.112 272.281 112.848 274.329 112.848Z" fill="white"/>
</svg>
