<svg width="1280" height="1572" viewBox="0 0 1280 1572" fill="none" xmlns="http://www.w3.org/2000/svg">
<rect x="965" width="317" height="140" fill="black"/>
<rect x="490" width="443" height="140" fill="black"/>
<rect x="22" width="449" height="140" fill="black"/>
<rect x="2" y="170" width="227" height="140" fill="black"/>
<rect x="247" y="170" width="457" height="140" fill="black"/>
<rect x="736" y="170" width="431" height="140" fill="black"/>
<rect x="1193" y="173" width="89" height="140" fill="black"/>
<rect x="490" y="340" width="443" height="140" fill="black"/>
<rect x="965" y="340" width="317" height="140" fill="black"/>
<rect x="2" y="340" width="469" height="140" fill="black"/>
<rect x="2" y="513" width="222" height="140" fill="black"/>
<rect x="250" y="513" width="407" height="140" fill="black"/>
<rect x="675" y="513" width="449" height="140" fill="black"/>
<rect x="965" y="686" width="317" height="140" fill="black"/>
<rect x="1145" y="513" width="137" height="140" fill="black"/>
<rect x="503" y="686" width="445" height="140" fill="black"/>
<rect x="2" y="686" width="484" height="140" fill="black"/>
<rect x="2" y="847" width="222" height="140" fill="black"/>
<rect x="250" y="847" width="425" height="140" fill="black"/>
<rect x="701" y="847" width="444" height="140" fill="black"/>
<rect x="1171" y="847" width="111" height="140" fill="black"/>
<rect x="984" y="1020" width="298" height="140" fill="black"/>
<rect x="519" y="1020" width="429" height="140" fill="black"/>
<rect x="60" y="1020" width="423" height="140" fill="black"/>
<rect x="1" y="1020" width="34" height="140" fill="black"/>
<rect x="-1" y="1193" width="225" height="140" fill="black"/>
<rect x="250" y="1193" width="451" height="140" fill="black"/>
<rect x="726" y="1193" width="431" height="140" fill="black"/>
<rect x="1183" y="1193" width="99" height="140" fill="black"/>
<rect x="-1" y="1349" width="430" height="223" fill="black"/>
<rect x="856" y="1349" width="426" height="223" fill="black"/>
<rect x="443" y="1349" width="395" height="223" fill="black"/>
</svg>
