<svg width="501" height="498" viewBox="0 0 501 498" fill="none" xmlns="http://www.w3.org/2000/svg">
<path d="M17.0841 155.227C13.7454 155.63 12.3731 151.076 15.3786 149.567L244.533 34.5126C245.366 34.0943 246.346 34.0871 247.186 34.4931L484.985 149.541C488.03 151.014 486.689 155.614 483.33 155.221L424.969 148.392C424.06 148.286 423.152 148.6 422.503 149.246L383.856 187.731C382.959 188.624 381.598 188.858 380.454 188.316L316.261 157.89C315.458 157.509 314.526 157.504 313.719 157.877L246.993 188.693C246.265 189.03 245.432 189.061 244.68 188.778L162.165 157.787C161.325 157.471 160.389 157.548 159.612 157.996L107.736 187.883C106.415 188.645 104.733 188.293 103.826 187.067L76.1488 149.628C75.5071 148.76 74.4486 148.303 73.3769 148.433L17.0841 155.227Z" fill="black"/>
<path d="M386.958 128.306C386.958 157.239 318.937 128.306 248.504 128.306C178.071 128.306 103.818 157.239 103.818 128.306C103.818 99.372 178.071 23.5273 248.504 23.5273C318.937 23.5273 386.958 99.372 386.958 128.306Z" fill="black"/>
<path d="M237.316 180.838H253.445V465.577L251.529 471.714L248.655 477.278L244.518 482.715L239.25 488.858L232.066 494.416L215.303 498L199.498 493.369L188.003 485.031L176.029 469.746L182.256 467.893L189.44 465.577L199.498 478.547L206.203 483.178L213.387 485.494L221.05 484.226L227.582 479.131L233.982 471.714L237.316 465.577V449.36V424.312V392.394V323.852V180.838Z" fill="black"/>
<rect x="233.873" y="173.583" width="22.7223" height="15.638" fill="black"/>
<rect x="235.012" width="20.5055" height="34.5114" fill="black"/>
<path d="M192.952 109.928H199.672C200.568 109.928 201.176 109.768 201.496 109.448C201.816 109.064 201.976 108.456 201.976 107.624V50.024C201.976 49.128 201.816 48.52 201.496 48.2C201.176 47.88 200.568 47.72 199.672 47.72H192.952V44.648H244.984L245.752 69.608H242.68C242.68 69.224 242.36 67.752 241.72 65.192C241.08 62.632 240.248 60.296 239.224 58.184C235.96 51.208 231.896 47.72 227.032 47.72H218.488C217.656 47.72 217.048 47.88 216.664 48.2C216.344 48.52 216.184 49.128 216.184 50.024V75.752H227.704C232.184 75.752 236.152 76.552 239.608 78.152C243.128 79.752 245.848 81.96 247.768 84.776C249.752 87.528 250.744 90.664 250.744 94.184C250.744 97.704 249.752 100.904 247.768 103.784C245.848 106.6 243.128 108.84 239.608 110.504C236.152 112.168 232.184 113 227.704 113H192.952V109.928ZM226.264 109.928C232.344 109.928 235.384 104.488 235.384 93.608C235.384 88.936 234.712 85.32 233.368 82.76C232.024 80.136 229.656 78.824 226.264 78.824H216.184V107.624C216.184 108.456 216.344 109.064 216.664 109.448C217.048 109.768 217.656 109.928 218.488 109.928H226.264ZM279.545 114.152C276.089 114.152 272.857 113.128 269.849 111.08C266.841 108.968 264.441 106.088 262.649 102.44C260.857 98.792 259.961 94.728 259.961 90.248C259.961 83.848 260.089 78.888 260.345 75.368C260.601 71.848 261.241 68.68 262.265 65.864C263.353 63.048 265.017 60.392 267.257 57.896C269.561 55.4 272.441 53.48 275.897 52.136C279.417 50.792 283.705 49.512 288.761 48.296C291.129 47.72 292.761 47.144 293.657 46.568C294.553 45.928 295.129 45.032 295.385 43.88H297.689C297.689 47.72 297.145 50.696 296.057 52.808C294.969 54.856 293.529 56.296 291.737 57.128C290.009 57.96 287.737 58.632 284.921 59.144C280.825 59.912 277.561 60.68 275.129 61.448C272.697 62.152 270.425 63.272 268.313 64.808C266.393 66.216 264.985 68.168 264.089 70.664C263.193 73.096 262.649 75.72 262.457 78.536L262.937 78.632C266.777 70.44 272.313 66.344 279.545 66.344C283.001 66.344 286.233 67.4 289.241 69.512C292.249 71.56 294.649 74.408 296.441 78.056C298.233 81.704 299.129 85.768 299.129 90.248C299.129 94.728 298.233 98.792 296.441 102.44C294.649 106.088 292.249 108.968 289.241 111.08C286.233 113.128 283.001 114.152 279.545 114.152ZM279.545 111.848C282.297 111.848 284.185 110.152 285.209 106.76C286.297 103.368 286.841 97.864 286.841 90.248C286.841 82.632 286.297 77.128 285.209 73.736C284.185 70.344 282.297 68.648 279.545 68.648C276.729 68.648 274.809 70.344 273.785 73.736C272.761 77.064 272.249 82.568 272.249 90.248C272.249 97.928 272.761 103.464 273.785 106.856C274.809 110.184 276.729 111.848 279.545 111.848Z" fill="white"/>
<path d="M207.48 146.72H210.28C210.653 146.72 210.907 146.653 211.04 146.52C211.173 146.36 211.24 146.107 211.24 145.76V121.76C211.24 121.387 211.173 121.133 211.04 121C210.907 120.867 210.653 120.8 210.28 120.8H207.48V119.52H221.56C223.133 119.52 224.6 119.813 225.96 120.4C227.347 120.987 228.453 121.8 229.28 122.84C230.107 123.853 230.52 125.013 230.52 126.32C230.52 128.08 229.867 129.507 228.56 130.6C227.253 131.693 225.653 132.493 223.76 133V133.24C224.987 133.427 226.187 133.827 227.36 134.44C228.56 135.027 229.547 135.813 230.32 136.8C231.093 137.787 231.48 138.933 231.48 140.24C231.48 141.867 231.053 143.267 230.2 144.44C229.347 145.613 228.2 146.507 226.76 147.12C225.347 147.707 223.787 148 222.08 148H207.48V146.72ZM220.84 132.48C222.28 132.48 223.253 131.973 223.76 130.96C224.267 129.92 224.52 128.373 224.52 126.32C224.52 124.587 224.213 123.24 223.6 122.28C222.987 121.293 222.147 120.8 221.08 120.8H218.12C217.773 120.8 217.52 120.867 217.36 121C217.227 121.133 217.16 121.387 217.16 121.76V132.48H220.84ZM220.84 146.72C222.253 146.72 223.307 146.253 224 145.32C224.72 144.36 225.08 142.667 225.08 140.24C225.08 137.813 224.72 136.133 224 135.2C223.307 134.24 222.253 133.76 220.84 133.76H217.16V145.76C217.16 146.107 217.227 146.36 217.36 146.52C217.52 146.653 217.773 146.72 218.12 146.72H220.84ZM243.478 148.48C242.038 148.48 240.692 148.053 239.438 147.2C238.185 146.32 237.185 145.12 236.438 143.6C235.692 142.08 235.318 140.387 235.318 138.52C235.318 136.653 235.692 134.96 236.438 133.44C237.185 131.92 238.185 130.733 239.438 129.88C240.692 129 242.038 128.56 243.478 128.56C244.918 128.56 246.265 129 247.518 129.88C248.772 130.733 249.772 131.92 250.518 133.44C251.265 134.96 251.638 136.653 251.638 138.52C251.638 140.387 251.265 142.08 250.518 143.6C249.772 145.12 248.772 146.32 247.518 147.2C246.265 148.053 244.918 148.48 243.478 148.48ZM243.478 147.52C244.625 147.52 245.412 146.813 245.838 145.4C246.292 143.987 246.518 141.693 246.518 138.52C246.518 135.347 246.292 133.053 245.838 131.64C245.412 130.227 244.625 129.52 243.478 129.52C242.332 129.52 241.532 130.227 241.078 131.64C240.652 133.053 240.438 135.347 240.438 138.52C240.438 141.693 240.652 143.987 241.078 145.4C241.532 146.813 242.332 147.52 243.478 147.52ZM254.595 147.04H256.835C257.075 147.04 257.235 147 257.315 146.92C257.421 146.813 257.475 146.64 257.475 146.4V121.12C257.475 120.88 257.421 120.72 257.315 120.64C257.235 120.533 257.075 120.48 256.835 120.48H254.595V119.52H262.115V146.4C262.115 146.64 262.155 146.813 262.235 146.92C262.341 147 262.515 147.04 262.755 147.04H264.995V148H254.595V147.04ZM274.979 148.48C273.593 148.48 272.353 148.013 271.259 147.08C270.166 146.12 269.313 144.88 268.699 143.36C268.086 141.813 267.779 140.2 267.779 138.52C267.779 136.813 268.073 135.2 268.659 133.68C269.246 132.16 270.073 130.933 271.139 130C272.206 129.04 273.433 128.56 274.819 128.56C275.673 128.56 276.433 128.813 277.099 129.32C277.766 129.827 278.313 130.52 278.739 131.4L278.979 131.32V121.12C278.979 120.88 278.926 120.72 278.819 120.64C278.739 120.533 278.579 120.48 278.339 120.48H276.099V119.52H283.619V146.4C283.619 146.64 283.659 146.813 283.739 146.92C283.846 147 284.019 147.04 284.259 147.04H286.499V148H278.979V145.68H278.739C278.393 146.427 277.886 147.08 277.219 147.64C276.579 148.2 275.833 148.48 274.979 148.48ZM275.539 147.2C276.153 147.2 276.713 146.827 277.219 146.08C277.753 145.307 278.179 144.267 278.499 142.96C278.819 141.653 278.979 140.213 278.979 138.64C278.979 136.72 278.793 135.093 278.419 133.76C278.046 132.427 277.593 131.44 277.059 130.8C276.526 130.16 276.019 129.84 275.539 129.84C273.779 129.84 272.899 132.733 272.899 138.52C272.899 144.307 273.779 147.2 275.539 147.2Z" fill="white"/>
</svg>
