<svg width="1280" height="1121" viewBox="0 0 1280 1121" fill="none" xmlns="http://www.w3.org/2000/svg">
<g clip-path="url(#clip0_174_699)">
<rect width="1280" height="1121" fill="white"/>
<path d="M234.084 105.238C231.85 91.7626 232.396 79.4044 235.721 68.1629C239.103 56.985 245.367 47.2918 254.511 39.0833C263.655 30.8749 273.966 25.6903 285.443 23.5295C296.976 21.4322 309.322 22.2188 322.478 25.8892L321.37 29.6364C311.788 28.032 303.904 27.9996 297.718 29.5393C291.588 31.1424 285.571 34.5946 279.665 39.8959L252.614 64.1793C246.708 69.4806 242.629 75.0918 240.376 81.0131C238.18 86.9978 237.364 94.8396 237.929 104.538L234.084 105.238ZM134.613 139.144C144.195 140.748 152.05 140.749 158.179 139.146C164.365 137.606 170.411 134.186 176.317 128.884L203.369 104.601C209.274 99.2996 213.325 93.6566 215.521 87.6719C217.774 81.7506 218.618 73.9406 218.053 64.2417L221.898 63.5426C224.132 77.0176 223.558 89.344 220.176 100.522C216.85 111.763 210.616 121.488 201.471 129.697C192.327 137.905 181.988 143.058 170.454 145.155C158.977 147.316 146.661 146.561 133.504 142.891L134.613 139.144ZM124.639 189.206C123.499 187.936 122.971 186.518 123.056 184.952C123.14 183.385 123.786 182.06 124.992 180.977C126.58 179.552 128.563 178.632 130.942 178.216C134.248 177.428 136.98 176.064 139.139 174.126C139.711 173.613 140.035 173.208 140.111 172.91C140.245 172.675 140.169 172.399 139.884 172.082C139.599 171.764 139.009 171.491 138.115 171.261C135.484 170.757 132.493 170.746 129.143 171.23C124.944 171.79 121.989 171.117 120.279 169.212C119.196 168.005 118.668 166.587 118.695 164.957C118.843 163.333 119.521 161.98 120.727 160.897C122.251 159.529 123.971 159.017 125.886 159.362C127.858 159.771 129.756 160.991 131.58 163.023C134.259 166.007 136.908 167.872 139.527 168.618C139.704 168.688 140.002 168.764 140.421 168.847C140.839 168.93 141.176 168.858 141.43 168.63C141.684 168.402 141.792 168.075 141.754 167.65C141.717 167.225 141.673 166.921 141.622 166.737C141.163 164.053 139.593 161.219 136.914 158.235C135.09 156.203 134.081 154.184 133.887 152.18C133.75 150.239 134.444 148.584 135.968 147.216C137.174 146.133 138.561 145.634 140.127 145.718C141.814 145.809 143.199 146.458 144.282 147.664C145.992 149.569 146.344 152.579 145.336 156.695C144.495 159.973 144.183 162.947 144.402 165.618C144.534 166.531 144.742 167.147 145.027 167.464C145.312 167.782 145.579 167.887 145.826 167.779C146.131 167.735 146.569 167.457 147.14 166.944C149.299 165.006 150.949 162.436 152.088 159.234C152.757 156.914 153.885 155.041 155.473 153.616C156.679 152.533 158.066 152.033 159.633 152.118C161.199 152.202 162.552 152.879 163.692 154.15C164.833 155.42 165.36 156.838 165.276 158.404C165.191 159.971 164.546 161.296 163.339 162.379C161.752 163.804 159.768 164.724 157.389 165.14C154.084 165.928 151.351 167.292 149.192 169.23C148.621 169.743 148.268 170.117 148.135 170.351C148.058 170.649 148.163 170.957 148.448 171.274C148.733 171.592 149.322 171.865 150.216 172.095C152.848 172.599 155.838 172.61 159.188 172.125C163.388 171.566 166.343 172.239 168.053 174.144C169.136 175.351 169.603 176.766 169.455 178.39C169.428 180.02 168.811 181.376 167.604 182.459C166.08 183.827 164.332 184.307 162.36 183.899C160.445 183.554 158.575 182.365 156.751 180.333C154.072 177.349 151.423 175.483 148.805 174.738C148.627 174.668 148.329 174.592 147.911 174.509C147.492 174.426 147.156 174.498 146.902 174.726C146.648 174.954 146.54 175.281 146.577 175.706C146.615 176.131 146.659 176.435 146.709 176.619C147.169 179.303 148.738 182.137 151.417 185.121C153.241 187.153 154.222 189.14 154.359 191.081C154.553 193.086 153.888 194.772 152.364 196.14C151.157 197.223 149.711 197.719 148.024 197.628C146.457 197.544 145.132 196.898 144.049 195.692C142.339 193.787 141.988 190.776 142.995 186.661C143.837 183.383 144.148 180.409 143.93 177.738C143.798 176.825 143.589 176.209 143.304 175.892C143.019 175.574 142.724 175.437 142.42 175.481C142.172 175.589 141.763 175.899 141.191 176.412C139.032 178.35 137.383 180.92 136.243 184.122C135.574 186.442 134.446 188.315 132.859 189.74C131.652 190.823 130.266 191.323 128.699 191.238C127.132 191.154 125.779 190.476 124.639 189.206ZM23.2174 311.383L60.9372 277.523L27.2484 239.994L33.3445 234.521L67.0334 272.051L104.753 238.191L110.567 244.668L72.8477 278.528L106.537 316.057L100.44 321.529L66.7515 284L29.0317 317.86L23.2174 311.383Z" fill="black"/>
<path d="M575.648 46.9263C580.523 49.471 585.343 50.6782 590.109 50.5479C594.869 50.5335 598.703 49.1997 601.61 46.5466C602.034 46.1597 602.26 45.6766 602.286 45.0974C602.428 44.5235 602.279 43.9942 601.836 43.5097C601.394 43.0251 600.489 42.5193 599.12 41.9924C597.58 41.3995 596.367 40.6185 595.483 39.6494C593.935 37.9534 593.129 35.914 593.064 33.5313C593.054 31.2091 594.079 29.1083 596.138 27.2291C598.561 25.0181 601.157 24.0921 603.927 24.451C606.757 24.7545 609.112 25.936 610.991 27.9955C613.7 30.9635 614.828 34.2075 614.377 37.7275C614.042 41.2528 612.329 44.4249 609.24 47.2438C604.273 51.7762 598.677 54.2192 592.45 54.5729C586.278 54.9871 580.216 53.6361 574.264 50.5197L575.648 46.9263ZM536.274 83.5218L545.541 75.065L566.932 98.5062L557.665 106.963L536.274 83.5218ZM449.382 176.8C447.503 174.74 446.621 172.436 446.738 169.888C446.855 167.339 447.943 165.125 450.002 163.246C452.061 161.367 454.365 160.485 456.914 160.602C459.463 160.719 461.677 161.807 463.556 163.866C465.435 165.925 466.316 168.229 466.2 170.778C466.083 173.327 464.995 175.54 462.936 177.42C460.876 179.299 458.572 180.18 456.024 180.064C453.475 179.947 451.261 178.859 449.382 176.8Z" fill="black"/>
<path d="M1182.66 1052.61C1180.6 1050.5 1179.59 1048.1 1179.62 1045.4C1179.65 1042.7 1180.72 1040.33 1182.82 1038.27C1184.93 1036.21 1187.33 1035.19 1190.03 1035.22C1192.72 1035.25 1195.1 1036.32 1197.16 1038.42C1199.22 1040.53 1200.24 1042.93 1200.21 1045.63C1200.18 1048.32 1199.11 1050.7 1197 1052.76C1194.9 1054.82 1192.5 1055.84 1189.8 1055.81C1187.1 1055.78 1184.73 1054.71 1182.66 1052.61ZM1128.39 1089.7C1133.63 1092.21 1138.76 1093.31 1143.79 1092.99C1148.82 1092.8 1152.82 1091.25 1155.8 1088.35C1156.23 1087.92 1156.45 1087.4 1156.46 1086.79C1156.58 1086.18 1156.41 1085.63 1155.92 1085.13C1155.44 1084.63 1154.46 1084.13 1153 1083.63C1151.35 1083.06 1150.04 1082.28 1149.07 1081.28C1147.37 1079.55 1146.45 1077.43 1146.29 1074.91C1146.19 1072.46 1147.2 1070.2 1149.31 1068.14C1151.78 1065.72 1154.49 1064.64 1157.43 1064.92C1160.43 1065.14 1162.96 1066.3 1165.02 1068.41C1167.99 1071.44 1169.3 1074.83 1168.96 1078.56C1168.73 1082.3 1167.04 1085.71 1163.88 1088.8C1158.8 1093.77 1152.98 1096.56 1146.41 1097.16C1139.91 1097.82 1133.46 1096.62 1127.06 1093.54L1128.39 1089.7Z" fill="black"/>
<path d="M395.737 925.831L401.778 932.536C402.806 933.677 403.89 933.733 405.032 932.705L461.234 882.07C462.375 881.042 462.432 879.957 461.403 878.816L455.363 872.112L457.36 870.313L472.14 886.717L408.52 944.035L393.74 927.631L395.737 925.831ZM316.877 994.296L401.185 954.778L405.555 959.628L321.246 999.146L316.877 994.296ZM283.493 1024.89L323.549 1018L324.834 1019.43L313.823 1058.55L308.811 1052.99L316.489 1025.66L288.505 1030.45L283.493 1024.89Z" fill="black"/>
<path d="M307.878 187.79L317.991 175.374L349.398 200.954L339.285 213.37L307.878 187.79ZM200.631 305.546L206.976 297.755L270.277 349.312L263.932 357.103L200.631 305.546ZM168.435 376.898C167.551 373.343 168.001 370.47 169.786 368.279C170.975 366.818 172.421 366.038 174.122 365.938C175.823 365.839 177.404 366.384 178.864 367.574C180.001 368.499 180.824 369.642 181.335 371.004C181.847 372.365 181.954 374.14 181.657 376.327L178.808 401.951L174.589 402.159L168.435 376.898Z" fill="black"/>
<path d="M352.341 832.904L324.532 728.609L328.223 725.061L431.336 756.977L429.006 764.897L334.893 735.694L360.347 830.89L352.341 832.904ZM257.732 786.423L263.638 780.746L338.501 858.634L332.595 864.311L257.732 786.423ZM238.537 804.873L244.443 799.196L319.306 877.083L313.4 882.76L238.537 804.873ZM145.702 906.53L148.032 898.61L242.145 927.813L216.691 832.617L224.697 830.603L252.506 934.898L248.815 938.446L145.702 906.53Z" fill="black"/>
<path d="M1159.28 862.952L1173.41 852.31L1165.6 844.779L1169.87 840.357L1178.37 848.554L1195.25 835.757L1184.81 825.694L1189.08 821.272L1200.2 832.002L1214.47 821.221L1219.03 825.62L1204.76 836.4L1216.23 847.464L1230.5 836.683L1235.06 841.082L1220.79 851.862L1228.74 859.527L1224.47 863.949L1215.84 855.618L1198.96 868.415L1209.32 878.412L1205.06 882.834L1194 872.171L1179.87 882.813L1175.31 878.415L1189.37 867.705L1177.97 856.709L1163.84 867.351L1159.28 862.952ZM1182.93 852.953L1194.4 864.016L1211.28 851.219L1199.81 840.156L1182.93 852.953ZM1094.51 940.614C1091.67 936.637 1090.04 932.57 1089.6 928.414C1089.26 924.256 1090.77 920.427 1094.15 916.926C1095.97 915.037 1097.96 913.983 1100.13 913.763C1102.39 913.541 1104.3 914.185 1105.87 915.696C1106.88 916.673 1107.38 917.864 1107.36 919.267C1107.43 920.669 1107.04 921.808 1106.2 922.683C1105.04 923.881 1103.95 924.557 1102.91 924.711C1101.96 924.864 1100.62 924.73 1098.9 924.308C1097.67 924.014 1096.79 923.916 1096.24 924.017C1095.7 924.117 1095.14 924.467 1094.57 925.065C1093.32 926.355 1092.9 928.218 1093.31 930.655C1093.76 933.046 1094.89 935.606 1096.71 938.334L1116.43 917.882L1114.97 912.069C1113.17 904.995 1114.8 898.833 1119.86 893.582C1123.42 889.897 1127.21 887.905 1131.23 887.606C1135.25 887.307 1139.16 888.232 1142.96 890.382L1148.16 884.992L1150.37 887.125L1145.64 892.031C1146.88 892.959 1148 893.912 1149.01 894.889C1149.66 895.511 1150.49 896.401 1151.51 897.56L1156.17 892.723L1158.38 894.856L1153.38 900.038C1155.94 903.749 1157.3 907.458 1157.46 911.167C1157.7 914.874 1156.45 918.155 1153.7 921.011C1151.83 922.946 1149.7 924.229 1147.31 924.861C1144.93 925.492 1143 925.097 1141.52 923.675C1140.32 922.52 1139.67 921.264 1139.55 919.909C1139.48 918.597 1139.94 917.435 1140.92 916.422C1141.76 915.546 1142.75 915.031 1143.88 914.874C1145.05 914.763 1146.18 914.878 1147.28 915.22C1148.69 915.693 1149.76 915.923 1150.48 915.91C1151.25 915.941 1151.95 915.634 1152.57 914.989C1153.72 913.792 1154.17 912.041 1153.9 909.737C1153.72 907.432 1152.82 904.959 1151.19 902.318L1131.92 922.287L1133.02 926.544C1134 930.51 1134.15 934.173 1133.49 937.535C1132.87 940.94 1131.19 944.071 1128.43 946.927C1124.88 950.612 1121.04 952.65 1116.93 953.041C1112.82 953.432 1108.8 952.532 1104.87 950.34L1099.73 955.66L1097.52 953.527L1102.25 948.621C1101.15 947.827 1100.14 946.985 1099.22 946.096C1097.93 944.852 1096.99 943.851 1096.38 943.092L1091.72 947.929L1089.51 945.796L1094.51 940.614ZM1149.31 899.84C1148.57 898.858 1147.67 897.855 1146.61 896.833C1145.45 895.723 1144.4 894.882 1143.44 894.311L1128.71 909.581L1131.05 918.772L1149.31 899.84ZM1140.56 892.869C1138.42 891.957 1136.33 891.633 1134.3 891.896C1132.31 892.113 1130.63 892.935 1129.25 894.363C1126.8 896.896 1126.33 900.798 1127.83 906.066L1140.56 892.869ZM1101.35 943.885C1102.41 944.907 1103.43 945.749 1104.39 946.41L1119.65 930.587L1117.31 921.396L1098.52 940.881C1099.72 942.217 1100.66 943.219 1101.35 943.885ZM1107.13 947.99C1109.5 949.034 1111.66 949.334 1113.6 948.892C1115.54 948.45 1117.13 947.584 1118.37 946.294C1120.15 944.451 1121.09 942.511 1121.19 940.472C1121.33 938.388 1121.11 936.264 1120.53 934.102L1107.13 947.99ZM1050.22 987.082C1048.56 985.483 1047.46 983.443 1046.92 980.964C1046.46 978.482 1046.69 975.853 1047.59 973.076C1048.58 970.297 1050.28 967.664 1052.67 965.177C1055.07 962.689 1057.64 960.9 1060.39 959.81C1063.17 958.764 1065.81 958.422 1068.31 958.784C1070.85 959.191 1072.95 960.194 1074.61 961.793C1076.27 963.393 1077.35 965.456 1077.85 967.981C1078.34 970.507 1078.12 973.182 1077.18 976.005C1076.23 978.828 1074.56 981.483 1072.16 983.971C1069.76 986.458 1067.17 988.225 1064.38 989.271C1061.64 990.271 1058.99 990.568 1056.45 990.161C1054 989.753 1051.92 988.726 1050.22 987.082ZM1021.86 1010.68L1101.56 987.786L1105.01 991.118L1025.31 1014.01L1021.86 1010.68ZM1051.55 985.701C1052.7 986.811 1054.31 986.76 1056.37 985.546C1058.48 984.376 1061.53 981.719 1065.53 977.573C1069.53 973.427 1072.09 970.258 1073.23 968.065C1074.37 965.871 1074.38 964.242 1073.28 963.175C1072.17 962.109 1070.57 962.206 1068.46 963.466C1066.4 964.68 1063.35 967.383 1059.31 971.575C1055.26 975.766 1052.67 978.914 1051.53 981.016C1050.44 983.073 1050.45 984.634 1051.55 985.701ZM1052.39 1039.86C1050.73 1038.26 1049.63 1036.23 1049.09 1033.75C1048.64 1031.26 1048.86 1028.63 1049.76 1025.86C1050.75 1023.08 1052.45 1020.45 1054.85 1017.96C1057.25 1015.47 1059.82 1013.68 1062.56 1012.59C1065.35 1011.55 1067.99 1011.2 1070.48 1011.57C1073.03 1011.97 1075.13 1012.98 1076.79 1014.58C1078.44 1016.17 1079.52 1018.24 1080.02 1020.76C1080.52 1023.29 1080.29 1025.96 1079.35 1028.79C1078.41 1031.61 1076.73 1034.27 1074.33 1036.75C1071.93 1039.24 1069.34 1041.01 1066.55 1042.05C1063.81 1043.05 1061.17 1043.35 1058.63 1042.94C1056.17 1042.53 1054.1 1041.51 1052.39 1039.86ZM1053.73 1038.48C1054.88 1039.59 1056.48 1039.54 1058.54 1038.33C1060.65 1037.16 1063.7 1034.5 1067.7 1030.35C1071.7 1026.21 1074.27 1023.04 1075.4 1020.85C1076.54 1018.65 1076.56 1017.02 1075.45 1015.96C1074.35 1014.89 1072.74 1014.99 1070.64 1016.25C1068.58 1017.46 1065.53 1020.16 1061.48 1024.36C1057.44 1028.55 1054.85 1031.7 1053.71 1033.8C1052.61 1035.85 1052.62 1037.42 1053.73 1038.48ZM956.579 1086.65C952.433 1082.65 949.959 1078.44 949.155 1074.02C948.395 1069.55 949.704 1065.57 953.08 1062.07C955.924 1059.12 959.672 1057.4 964.326 1056.91C969.023 1056.37 974.913 1056.67 981.994 1057.81L984.65 1058.24L985.023 1056.33C985.645 1053.2 986.369 1050.65 987.193 1048.69C988.064 1046.77 989.543 1044.73 991.632 1042.57C993.898 1040.22 996.382 1038.7 999.086 1038.02C1001.88 1037.34 1004.57 1037.4 1007.17 1038.21C1009.85 1039.02 1012.23 1040.43 1014.31 1042.43C1016.24 1044.3 1017.36 1046.27 1017.67 1048.34C1018.07 1050.42 1017.92 1052.37 1017.23 1054.19C1016.54 1056.01 1015.55 1057.59 1014.26 1058.93C1011.91 1061.37 1009.17 1062.82 1006.06 1063.29C1002.99 1063.79 999.165 1063.75 994.583 1063.15L989.149 1093.12C992.13 1092.8 994.992 1092.09 997.733 1091C1000.52 1089.86 1002.53 1088.65 1003.78 1087.36C1004.62 1086.49 1005.01 1085.57 1004.95 1084.62C1004.93 1083.63 1004.56 1082.78 1003.82 1082.06L1001.19 1079.53L1003.33 1077.32L1017.9 1091.38L1015.77 1093.59L1015.22 1093.06C1012.73 1090.66 1009.1 1090.37 1004.34 1092.17C998.09 1094.5 992.865 1095.86 988.662 1096.26C987.823 1099.89 987.331 1102.75 987.188 1104.84C987.09 1106.97 987.594 1108.56 988.7 1109.63C989.621 1110.52 990.805 1110.91 992.251 1110.79C993.743 1110.72 995.456 1110.32 997.39 1109.61L998.105 1111.63C995.683 1112.85 992.821 1113.52 989.519 1113.62C986.261 1113.68 983.457 1112.58 981.108 1110.31C979.588 1108.84 978.488 1106.85 977.809 1104.33C977.22 1101.8 977.173 1099.18 977.667 1096.45C974.63 1096.19 971.059 1095.19 966.954 1093.46C962.893 1091.67 959.435 1089.41 956.579 1086.65ZM995.269 1059.81C998.853 1060.25 1001.91 1060.22 1004.43 1059.72C1007.05 1059.22 1009.49 1057.79 1011.76 1055.44C1013.36 1053.78 1014.21 1051.94 1014.3 1049.9C1014.45 1047.9 1013.76 1046.17 1012.24 1044.71C1010.81 1043.33 1009.08 1042.59 1007.04 1042.49C1005.05 1042.44 1003.28 1043.22 1001.72 1044.83C999.854 1046.76 998.553 1048.62 997.815 1050.4C997.122 1052.13 996.274 1055.27 995.269 1059.81ZM966.935 1088.64C968.501 1090.15 970.242 1091.29 972.157 1092.07C974.162 1092.85 976.184 1093.29 978.223 1093.39L984.099 1061.58C981.155 1061.49 978.735 1061.56 976.838 1061.78C974.987 1062.04 973.21 1062.63 971.507 1063.57C969.804 1064.51 968.041 1065.92 966.219 1067.81C964.176 1069.93 962.906 1072.3 962.41 1074.94C962.005 1077.57 962.232 1080.1 963.09 1082.53C963.995 1085 965.276 1087.04 966.935 1088.64ZM917.927 1103.08C919.252 1101.24 920.27 1099.96 920.981 1099.22C922.18 1097.98 923.413 1097.3 924.678 1097.18C925.988 1097.02 927.15 1097.43 928.163 1098.41C929.176 1099.39 929.627 1100.53 929.515 1101.85C929.447 1103.12 928.814 1104.37 927.614 1105.62C926.903 1106.35 925.655 1107.42 923.87 1108.81L913.155 1117.01L910.114 1114.08L917.927 1103.08Z" fill="black"/>
<path d="M219.407 487.6C218.712 484.782 218.687 482.197 219.334 479.843C220.101 477.504 221.457 475.57 223.403 474.041C226.422 471.668 229.889 470.626 233.805 470.913C237.721 471.2 241.102 473.155 243.95 476.778C246.164 479.596 247.974 483.003 249.379 487C250.783 490.997 252.291 496.161 253.902 502.493C255.202 507.875 256.436 512.277 257.606 515.699C258.776 519.121 260.126 521.804 261.655 523.75C262.498 524.824 263.606 525.473 264.976 525.698C266.347 525.923 267.703 525.508 269.045 524.454C270.454 523.347 271.338 522.055 271.698 520.579C272.057 519.102 272.078 517.403 271.762 515.481L274.983 515.229C275.678 518.048 275.642 520.626 274.876 522.965C274.229 525.318 272.933 527.26 270.987 528.789C267.968 531.161 264.5 532.204 260.584 531.917C256.669 531.63 253.287 529.675 250.44 526.052C248.225 523.234 246.416 519.827 245.011 515.829C243.606 511.832 242.098 506.668 240.487 500.337C239.188 494.955 237.953 490.553 236.783 487.131C235.613 483.709 234.264 481.025 232.735 479.08C231.891 478.006 230.784 477.357 229.413 477.132C228.042 476.907 226.686 477.321 225.344 478.376C223.935 479.483 223.051 480.775 222.692 482.251C222.333 483.727 222.311 485.427 222.628 487.348L219.407 487.6ZM126.053 567.316C123.522 564.095 122.386 560.647 122.645 556.971C123.023 553.309 124.621 550.371 127.439 548.156C130.19 545.994 133.156 545.074 136.339 545.395C139.588 545.663 142.109 546.937 143.902 549.218C145.589 551.365 146.297 553.577 146.024 555.854C145.818 558.078 144.776 559.928 142.897 561.404C141.891 562.195 140.613 562.711 139.065 562.95C137.824 563.166 136.935 563.485 136.398 563.907C135.325 564.75 135.263 565.776 136.212 566.984C137.003 567.99 138.139 568.4 139.62 568.213C141.153 568.093 142.994 567.189 145.141 565.502L191.234 529.278C192.777 528.065 193.855 526.675 194.468 525.107L197.796 517.12C198.409 515.553 198.03 513.897 196.66 512.152L189.62 503.195L192.639 500.823L213.678 527.593L189.313 587.115L221.015 562.201C225.108 558.984 229.167 557.314 233.193 557.188C237.286 557.011 240.941 558.968 244.157 563.061C246.688 566.281 247.764 569.722 247.386 573.384C247.128 577.06 245.59 580.006 242.772 582.22C240.021 584.382 237.021 585.329 233.771 585.061C230.589 584.74 228.101 583.439 226.308 581.158C224.621 579.011 223.88 576.826 224.086 574.602C224.359 572.325 225.435 570.449 227.313 568.972C228.32 568.181 229.597 567.666 231.145 567.426C232.386 567.21 233.275 566.891 233.812 566.47C234.886 565.626 234.948 564.6 233.999 563.393C233.208 562.386 232.046 561.943 230.512 562.063C229.031 562.25 227.217 563.187 225.07 564.875L162.673 613.912L159.668 610.088L189.423 537.538L188.948 536.934L149.196 568.176C145.103 571.392 141.01 573.089 136.917 573.267C132.891 573.392 129.27 571.408 126.053 567.316ZM191.833 621.601C188.301 617.106 187.231 612.086 188.625 606.54C190.139 601.009 193.546 596.161 198.847 591.995C204.147 587.83 209.63 585.691 215.295 585.581C221.08 585.484 225.739 587.683 229.271 592.179C232.804 596.674 233.814 601.687 232.3 607.218C230.906 612.764 227.559 617.619 222.258 621.785C216.958 625.95 211.415 628.081 205.63 628.178C199.965 628.289 195.366 626.096 191.833 621.601ZM194.249 619.703C195.514 621.313 197.242 621.855 199.432 621.327C201.623 620.8 203.657 619.798 205.536 618.321L222.846 604.717C224.724 603.241 226.179 601.501 227.209 599.498C228.239 597.494 228.122 595.687 226.856 594.077C225.591 592.467 223.863 591.925 221.673 592.453C219.482 592.98 217.448 593.982 215.569 595.459L198.259 609.062C196.381 610.539 194.926 612.279 193.896 614.282C192.866 616.286 192.983 618.093 194.249 619.703ZM168.598 617.722L175.844 612.027L197.357 639.401L190.111 645.096L168.598 617.722Z" fill="black"/>
<path d="M27.6713 735.195C25.2637 737.047 22.6819 737.793 19.9258 737.433C17.1698 737.073 14.8659 735.69 13.0142 733.282C11.1625 730.875 10.4165 728.293 10.7762 725.537C11.1359 722.781 12.5195 720.477 14.9271 718.625C17.3347 716.773 19.9165 716.027 22.6725 716.387C25.4286 716.747 27.7324 718.13 29.5842 720.538C31.4359 722.946 32.1819 725.527 31.8222 728.283C31.4625 731.039 30.0789 733.343 27.6713 735.195ZM57.4413 712.299C55.0337 714.15 52.4518 714.896 49.6958 714.537C46.9398 714.177 44.6359 712.793 42.7842 710.386C40.9325 707.978 40.1865 705.396 40.5461 702.64C40.9058 699.884 42.2895 697.58 44.6971 695.729C47.1047 693.877 49.6865 693.131 52.4425 693.491C55.1985 693.85 57.5024 695.234 59.3541 697.641C61.2058 700.049 61.9519 702.631 61.5922 705.387C61.2325 708.143 59.8489 710.447 57.4413 712.299ZM87.2112 689.402C84.8036 691.254 82.2218 692 79.4658 691.64C76.7097 691.28 74.4059 689.897 72.5542 687.489C70.7024 685.082 69.9564 682.5 70.3161 679.744C70.6758 676.988 72.0594 674.684 74.467 672.832C76.8746 670.98 79.4564 670.234 82.2125 670.594C84.9685 670.954 87.2724 672.337 89.1241 674.745C90.9758 677.153 91.7218 679.734 91.3621 682.49C91.0025 685.246 89.6188 687.55 87.2112 689.402ZM88.6366 814.462C86.229 816.314 83.6472 817.06 80.8911 816.7C78.1351 816.34 75.8312 814.957 73.9795 812.549C72.1278 810.141 71.3818 807.56 71.7415 804.804C72.1012 802.048 73.4848 799.744 75.8924 797.892C78.3 796.04 80.8818 795.294 83.6378 795.654C86.3939 796.014 88.6977 797.397 90.5495 799.805C92.4012 802.212 93.1472 804.794 92.7875 807.55C92.4278 810.306 91.0442 812.61 88.6366 814.462ZM121.804 815.324C125.012 810.265 126.764 805.142 127.058 799.957C127.478 794.788 126.381 790.504 123.766 787.105C123.385 786.609 122.881 786.32 122.255 786.239C121.645 786.032 121.057 786.146 120.49 786.582C119.924 787.017 119.292 787.954 118.595 789.392C117.81 791.01 116.851 792.254 115.718 793.126C113.736 794.651 111.448 795.339 108.855 795.192C106.334 794.991 104.147 793.686 102.295 791.278C100.117 788.446 99.3488 785.543 99.9917 782.569C100.58 779.524 102.078 777.076 104.486 775.224C107.956 772.555 111.581 771.627 115.36 772.439C119.157 773.125 122.444 775.274 125.221 778.886C129.687 784.692 131.827 790.992 131.642 797.784C131.527 804.521 129.506 810.978 125.578 817.155L121.804 815.324ZM151.574 792.428C154.782 787.368 156.534 782.245 156.828 777.06C157.248 771.891 156.151 767.607 153.536 764.208C153.155 763.713 152.651 763.424 152.025 763.342C151.415 763.135 150.827 763.25 150.26 763.685C149.694 764.121 149.062 765.058 148.365 766.496C147.58 768.113 146.621 769.358 145.488 770.229C143.506 771.754 141.218 772.443 138.625 772.296C136.104 772.094 133.917 770.789 132.065 768.382C129.887 765.549 129.119 762.646 129.762 759.672C130.35 756.628 131.848 754.179 134.256 752.328C137.726 749.659 141.35 748.731 145.13 749.542C148.927 750.229 152.214 752.378 154.991 755.989C159.457 761.796 161.597 768.095 161.412 774.887C161.297 781.625 159.276 788.082 155.348 794.258L151.574 792.428ZM177.946 745.772C175.539 747.624 172.957 748.37 170.201 748.01C167.445 747.651 165.141 746.267 163.289 743.859C161.438 741.452 160.692 738.87 161.051 736.114C161.411 733.358 162.795 731.054 165.202 729.202C167.61 727.351 170.192 726.605 172.948 726.964C175.704 727.324 178.008 728.708 179.859 731.115C181.711 733.523 182.457 736.105 182.097 738.861C181.738 741.617 180.354 743.921 177.946 745.772ZM207.716 722.876C205.309 724.728 202.727 725.474 199.971 725.114C197.215 724.754 194.911 723.371 193.059 720.963C191.208 718.555 190.462 715.974 190.821 713.218C191.181 710.461 192.565 708.158 194.972 706.306C197.38 704.454 199.962 703.708 202.718 704.068C205.474 704.428 207.778 705.811 209.629 708.219C211.481 710.626 212.227 713.208 211.867 715.964C211.508 718.72 210.124 721.024 207.716 722.876ZM240.883 723.738C244.092 718.678 245.843 713.556 246.138 708.371C246.558 703.202 245.461 698.918 242.846 695.519C242.465 695.023 241.961 694.734 241.335 694.653C240.725 694.446 240.137 694.56 239.57 694.996C239.004 695.431 238.372 696.368 237.674 697.806C236.89 699.424 235.931 700.668 234.798 701.54C232.816 703.065 230.528 703.753 227.935 703.606C225.413 703.404 223.227 702.1 221.375 699.692C219.196 696.86 218.429 693.957 219.072 690.983C219.66 687.938 221.158 685.49 223.566 683.638C227.035 680.969 230.66 680.041 234.44 680.853C238.237 681.539 241.524 683.688 244.301 687.3C248.767 693.106 250.907 699.406 250.722 706.198C250.607 712.935 248.585 719.392 244.658 725.569L240.883 723.738ZM267.256 677.083C264.849 678.935 262.267 679.681 259.511 679.321C256.755 678.961 254.451 677.578 252.599 675.17C250.748 672.762 250.002 670.18 250.361 667.424C250.721 664.668 252.105 662.365 254.512 660.513C256.92 658.661 259.502 657.915 262.258 658.275C265.014 658.634 267.318 660.018 269.169 662.426C271.021 664.833 271.767 667.415 271.407 670.171C271.048 672.927 269.664 675.231 267.256 677.083Z" fill="black"/>
<circle cx="1072.54" cy="0.0356177" r="67.5" transform="rotate(2.47358 1072.54 0.0356177)" fill="black"/>
<path d="M1247.83 527.134C1238.21 749.812 1036.08 923.322 794.668 912.894C553.254 902.465 366.845 712.17 376.465 489.492C386.084 266.815 588.209 93.3042 829.623 103.733C1071.04 114.162 1257.45 304.457 1247.83 527.134Z" fill="black" stroke="black" stroke-width="23"/>
<path d="M1166.12 586.483C1087.38 743.564 885.703 810.616 714.771 733.815C543.839 657.015 471.185 466.707 549.932 309.626C628.679 152.545 830.353 85.4934 1001.28 162.294C1172.22 239.094 1244.87 429.403 1166.12 586.483Z" fill="white" stroke="black" stroke-width="34"/>
<ellipse cx="62.7089" cy="60.1778" rx="62.7089" ry="60.1778" transform="matrix(0.912159 0.409837 -0.448155 0.893956 827.984 368.182)" fill="black"/>
<rect width="49.1147" height="209.57" transform="matrix(0.912159 0.409837 -0.448155 0.893956 911.465 287.69)" fill="black"/>
<rect width="21.5534" height="209.945" transform="matrix(0.988503 -0.254013 0.276154 0.938919 852.271 460.515)" fill="black"/>
<path d="M918.877 237.977L925.182 240.81C925.999 241.177 926.625 241.283 927.06 241.128C927.524 240.916 927.943 240.438 928.316 239.694L951.849 192.751L943.443 188.974L944.992 185.884L948.232 187.34C950.8 188.494 953.437 189.013 956.142 188.896C958.905 188.806 961.168 187.93 962.931 186.269L969.499 189.219L941.276 245.517C940.903 246.261 940.776 246.87 940.896 247.344C941.103 247.788 941.586 248.18 942.345 248.521L948.65 251.354L947.273 254.1L917.5 240.723L918.877 237.977ZM986.522 273.417C982.786 271.739 980.052 267.917 978.322 261.952C977.815 260.252 977.297 259.003 976.767 258.204C976.325 257.374 975.578 256.724 974.528 256.251C973.71 255.884 972.91 255.84 972.126 256.119C971.371 256.341 970.779 256.88 970.349 257.739L967.595 263.231L964.093 261.657L966.115 257.624C967.233 255.392 968.484 253.396 969.868 251.634C971.339 249.842 973.552 247.997 976.506 246.099C979.488 244.145 983.461 242.355 988.425 240.729C994.723 238.582 999.871 236.374 1003.87 234.105C1007.9 231.778 1010.9 228.641 1012.88 224.693C1014.49 221.489 1015.16 218.499 1014.91 215.721C1014.66 212.944 1012.92 210.834 1009.71 209.391C1007.5 208.395 1005.27 208.27 1003.03 209.019C1000.89 209.736 999.339 211.039 998.393 212.927C997.245 215.215 997.202 217.299 998.263 219.178C999.089 220.67 999.593 222.018 999.776 223.222C1000.05 224.395 999.852 225.64 999.192 226.956C998.446 228.443 997.275 229.424 995.678 229.898C994.082 230.373 992.437 230.229 990.744 229.469C988.234 228.341 986.489 226.47 985.51 223.858C984.589 221.271 984.875 218.49 986.366 215.515C987.886 212.483 990.095 210.075 992.991 208.292C995.975 206.478 999.27 205.47 1002.88 205.268C1006.54 205.092 1010.12 205.79 1013.63 207.364C1020.05 210.249 1024.19 213.899 1026.06 218.311C1027.95 222.667 1027.71 227.219 1025.33 231.968C1023.69 235.229 1021.16 237.704 1017.74 239.391C1014.38 241.105 1010.72 242.266 1006.77 242.873C1002.9 243.45 998.136 243.901 992.465 244.227C989.266 244.472 986.027 245.155 982.748 246.275C979.468 247.395 976.674 249.259 974.365 251.867L974.629 252.196C977.563 251.481 980.343 251.714 982.97 252.894C984.021 253.366 985.204 254.073 986.52 255.015C987.895 255.983 988.992 256.862 989.812 257.651C992.272 259.878 994.699 261.529 997.093 262.605C999.194 263.549 1001.25 263.735 1003.25 263.163C1005.28 262.534 1006.71 261.39 1007.55 259.73C1008.38 258.071 1009.19 256.089 1009.99 253.784L1012.71 255.003C1011.82 257.621 1010.88 259.931 1009.87 261.933C1008.41 264.851 1006.5 267.46 1004.13 269.761C1001.84 272.03 999.165 273.595 996.087 274.455C993.038 275.258 989.849 274.912 986.522 273.417Z" fill="black"/>
<path d="M1058.03 363.185L1064.33 366.018C1065.15 366.385 1065.78 366.491 1066.21 366.337C1066.68 366.124 1067.1 365.646 1067.47 364.903L1091 317.959L1082.6 314.182L1084.14 311.093L1087.38 312.548C1089.95 313.703 1092.59 314.221 1095.29 314.105C1098.06 314.014 1100.32 313.139 1102.08 311.477L1108.65 314.428L1080.43 370.726C1080.06 371.469 1079.93 372.079 1080.05 372.553C1080.26 372.996 1080.74 373.389 1081.5 373.73L1087.8 376.562L1086.43 379.309L1056.65 365.932L1058.03 363.185Z" fill="black"/>
<path d="M722.309 702.066C717.989 700.125 714.912 697.06 713.078 692.872C711.303 688.709 710.701 683.917 711.273 678.496C711.903 673.101 713.609 667.629 716.391 662.079C719.69 655.5 723.535 650.112 727.927 645.917C732.378 641.747 737.086 639.061 742.053 637.858C747.019 636.654 751.925 637.141 756.77 639.318C759.514 640.551 761.592 642.185 763.003 644.221C764.443 646.2 765.214 648.299 765.318 650.519C765.479 652.765 765.058 654.889 764.054 656.891C762.821 659.351 761.044 661.112 758.724 662.173C756.405 663.233 754.077 663.239 751.742 662.19C749.991 661.403 748.818 660.245 748.225 658.717C747.72 657.158 747.897 655.52 748.757 653.804C750.077 651.172 752.279 649.988 755.365 650.253C756.734 650.377 757.81 650.37 758.595 650.232C759.379 650.094 759.929 649.71 760.245 649.081C760.818 647.937 760.679 646.717 759.826 645.423C758.973 644.128 757.466 642.996 755.306 642.025C752.037 640.556 748.926 640.841 745.973 642.879C743.078 644.943 740.67 647.892 738.748 651.725L732.596 663.997L732.993 664.491C734.385 663.995 735.956 663.859 737.703 664.084C739.479 664.251 741.213 664.715 742.906 665.475C748.744 668.098 752.247 671.74 753.415 676.401C754.642 681.088 753.936 686.063 751.297 691.327C749.662 694.588 747.399 697.391 744.506 699.737C741.701 702.052 738.365 703.497 734.5 704.074C730.693 704.676 726.629 704.007 722.309 702.066ZM723.599 699.281C725.583 700.173 727.344 700.157 728.879 699.235C730.501 698.281 731.946 696.827 733.212 694.873C734.506 692.861 736.072 690.024 737.907 686.362C740.23 681.728 741.7 677.797 742.317 674.569C743.021 671.31 742.293 669.195 740.133 668.225C736.981 666.808 734.218 667.039 731.846 668.918C730.717 669.743 729.578 671.088 728.428 672.955C727.277 674.821 725.87 677.414 724.207 680.732C721.597 685.939 720.215 690.05 720.062 693.065C719.91 696.081 721.088 698.153 723.599 699.281Z" fill="black"/>
<path d="M1084.98 613.576C1079.96 611.32 1076.42 608.256 1074.35 604.384C1072.38 600.482 1072.42 596.471 1074.49 592.351C1075.66 590.006 1077.47 588.329 1079.9 587.32C1082.43 586.281 1084.89 586.299 1087.28 587.375C1089.26 588.267 1090.57 589.518 1091.19 591.13C1091.81 592.742 1091.72 594.348 1090.92 595.95C1089.52 598.754 1087.18 600.124 1083.92 600.062C1083.14 600.06 1082.35 600.198 1081.57 600.477C1080.85 600.782 1080.32 601.249 1080.01 601.878C1079.23 603.423 1079.38 604.994 1080.44 606.591C1081.58 608.158 1083.47 609.531 1086.1 610.712C1092.28 613.492 1097.92 609.819 1102.99 599.692C1105.37 594.943 1106.29 591.044 1105.75 587.995C1105.2 584.946 1103.67 582.857 1101.16 581.73L1092.32 577.756L1093.87 574.666L1102.53 578.561C1105.28 579.794 1107.77 579.685 1110 578.233C1112.31 576.75 1114.55 573.864 1116.7 569.573C1119.31 564.366 1120.44 560.531 1120.11 558.065C1119.85 555.569 1118.45 553.744 1115.88 552.59C1113.66 551.593 1111.45 551.37 1109.24 551.921C1107.06 552.414 1105.48 553.633 1104.51 555.579C1103.88 556.837 1104.15 558.432 1105.33 560.363C1106.71 562.597 1106.87 564.773 1105.81 566.89C1105.12 568.263 1103.99 569.228 1102.43 569.786C1100.92 570.37 1099.29 570.268 1097.54 569.481C1095.38 568.511 1093.93 566.842 1093.18 564.475C1092.52 562.076 1092.84 559.59 1094.13 557.015C1095.57 554.155 1097.59 551.978 1100.19 550.486C1102.8 548.994 1105.68 548.253 1108.82 548.263C1112.05 548.241 1115.21 548.926 1118.3 550.316C1124.2 552.965 1128.27 556.476 1130.51 560.849C1132.76 565.221 1132.7 569.753 1130.35 574.444C1128.31 578.507 1125.26 581.097 1121.2 582.214C1117.19 583.358 1113.03 583.452 1108.72 582.496L1108.33 583.268C1110.96 584.73 1113.17 586.739 1114.96 589.298C1116.78 591.799 1117.91 594.548 1118.34 597.544C1118.77 600.541 1118.27 603.47 1116.83 606.33C1113.99 611.994 1109.71 615.398 1103.99 616.542C1098.32 617.712 1091.99 616.723 1084.98 613.576Z" fill="black"/>
<path d="M581.415 387.322C578.672 386.089 576.58 384.483 575.14 382.504C573.729 380.468 572.942 378.327 572.781 376.081C572.677 373.862 573.128 371.751 574.131 369.748C575.365 367.288 577.141 365.528 579.461 364.467C581.781 363.407 584.109 363.401 586.444 364.45C588.195 365.237 589.324 366.41 589.83 367.969C590.423 369.497 590.289 371.12 589.428 372.836C588.109 375.468 585.906 376.651 582.82 376.386C581.452 376.262 580.376 376.269 579.591 376.407C578.806 376.546 578.256 376.929 577.941 377.559C577.367 378.703 577.507 379.922 578.36 381.217C579.213 382.512 580.72 383.644 582.88 384.615C586.149 386.084 589.231 385.786 592.125 383.722C595.078 381.684 597.516 378.748 599.437 374.915L605.59 362.642L605.193 362.149C603.8 362.645 602.216 362.809 600.44 362.642C598.692 362.418 596.972 361.925 595.279 361.165C589.442 358.542 585.909 354.887 584.683 350.2C583.514 345.539 584.25 340.576 586.888 335.313C588.523 332.052 590.743 329.264 593.549 326.949C596.441 324.604 599.791 323.129 603.598 322.527C607.464 321.95 611.556 322.632 615.876 324.573C620.196 326.514 623.244 329.566 625.02 333.729C626.854 337.918 627.456 342.71 626.826 348.104C626.254 353.526 624.577 359.011 621.794 364.561C618.496 371.14 614.622 376.515 610.171 380.684C605.779 384.879 601.1 387.579 596.133 388.782C591.167 389.985 586.261 389.499 581.415 387.322ZM598.053 358.415C601.205 359.831 603.967 359.6 606.34 357.722C607.468 356.897 608.608 355.551 609.758 353.685C610.909 351.818 612.315 349.226 613.979 345.908C616.589 340.701 617.97 336.59 618.123 333.574C618.276 330.559 617.097 328.487 614.587 327.359C612.602 326.467 610.799 326.498 609.176 327.451C607.641 328.374 606.226 329.841 604.931 331.853C603.665 333.808 602.114 336.616 600.279 340.278C597.955 344.912 596.442 348.858 595.738 352.117C595.121 355.345 595.893 357.444 598.053 358.415Z" fill="black"/>
<path d="M1099.41 489.154C1095.68 487.475 1092.94 483.653 1091.21 477.688C1090.7 475.988 1090.19 474.739 1089.66 473.94C1089.21 473.111 1088.47 472.46 1087.42 471.988C1086.6 471.621 1085.8 471.576 1085.02 471.855C1084.26 472.077 1083.67 472.617 1083.24 473.475L1080.48 478.967L1076.98 477.394L1079 473.36C1080.12 471.129 1081.37 469.132 1082.76 467.371C1084.23 465.578 1086.44 463.733 1089.4 461.836C1092.38 459.881 1096.35 458.091 1101.31 456.466C1107.61 454.318 1112.76 452.11 1116.76 449.841C1120.79 447.514 1123.79 444.377 1125.77 440.43C1127.38 437.226 1128.05 434.235 1127.8 431.458C1127.55 428.68 1125.81 426.57 1122.6 425.128C1120.39 424.131 1118.16 424.007 1115.92 424.755C1113.78 425.473 1112.23 426.775 1111.28 428.663C1110.14 430.952 1110.09 433.035 1111.15 434.914C1111.98 436.407 1112.48 437.755 1112.67 438.959C1112.94 440.132 1112.74 441.376 1112.08 442.692C1111.34 444.18 1110.16 445.16 1108.57 445.635C1106.97 446.109 1105.33 445.966 1103.63 445.205C1101.12 444.077 1099.38 442.207 1098.4 439.594C1097.48 437.007 1097.76 434.226 1099.26 431.251C1100.78 428.219 1102.98 425.811 1105.88 424.028C1108.86 422.214 1112.16 421.206 1115.77 421.004C1119.43 420.828 1123.01 421.527 1126.52 423.1C1132.94 425.986 1137.08 429.635 1138.95 434.048C1140.84 438.404 1140.6 442.956 1138.22 447.704C1136.58 450.966 1134.05 453.44 1130.63 455.127C1127.27 456.841 1123.61 458.002 1119.66 458.609C1115.79 459.186 1111.03 459.637 1105.35 459.963C1102.16 460.209 1098.92 460.891 1095.64 462.011C1092.36 463.132 1089.56 464.996 1087.25 467.604L1087.52 467.933C1090.45 467.218 1093.23 467.45 1095.86 468.631C1096.91 469.103 1098.09 469.81 1099.41 470.752C1100.78 471.72 1101.88 472.598 1102.7 473.387C1105.16 475.614 1107.59 477.265 1109.98 478.341C1112.08 479.285 1114.14 479.471 1116.14 478.899C1118.17 478.27 1119.6 477.126 1120.44 475.467C1121.27 473.808 1122.08 471.825 1122.88 469.52L1125.59 470.74C1124.71 473.357 1123.77 475.667 1122.76 477.67C1121.3 480.588 1119.39 483.197 1117.02 485.497C1114.73 487.766 1112.05 489.331 1108.98 490.192C1105.93 490.995 1102.74 490.649 1099.41 489.154Z" fill="black"/>
<path d="M967.004 695.59L975.41 699.367C976.227 699.734 976.854 699.84 977.289 699.685C977.753 699.473 978.171 698.995 978.544 698.251L984.912 685.55L965.647 676.894L967.239 673.719L1010.58 643.559L1019.77 647.691L999.42 688.283L1008.88 692.532L1007.33 695.622L997.872 691.373L991.504 704.074C991.131 704.818 991.005 705.427 991.125 705.901C991.332 706.345 991.814 706.737 992.573 707.078L998.878 709.911L997.501 712.657L965.627 698.336L967.004 695.59ZM971.574 675.772L986.461 682.46L999.539 656.371L971.574 675.772Z" fill="black"/>
<path d="M849.987 733.937C846.718 732.468 844.085 730.584 842.09 728.286C840.182 725.957 839.03 723.476 838.633 720.844C838.264 718.155 838.682 715.609 839.887 713.206C840.776 711.432 841.973 710.042 843.479 709.036C845.072 708 846.697 707.398 848.354 707.231C850.098 707.033 851.642 707.236 852.984 707.839C854.852 708.679 855.996 709.893 856.415 711.484C856.862 713.017 856.713 714.527 855.967 716.014C854.82 718.303 852.676 719.513 849.534 719.643C847.468 719.486 845.99 720.294 845.1 722.067C844.441 723.383 844.568 724.913 845.483 726.656C846.484 728.367 848.357 729.84 851.101 731.072C854.428 732.568 857.377 731.965 859.947 729.264C862.575 726.589 865.252 722.534 867.977 717.099C870.042 712.98 871.443 709.614 872.181 707.001C872.947 704.331 873.018 702.12 872.395 700.367C871.771 698.615 870.321 697.227 868.044 696.205C866.935 695.706 865.421 695.516 863.501 695.636C861.611 695.697 859.679 696.126 857.706 696.922C855.821 697.687 854.272 698.779 853.06 700.197L850.783 699.175L867.347 666.134L869.658 665.805C872.187 669.605 875.671 672.502 880.107 674.496C882.384 675.519 885.081 676.275 888.197 676.764C891.401 677.222 894.384 677.265 897.145 676.893L897.947 679.146C892.587 682.276 886.998 683.866 881.179 683.915C875.447 683.934 869.896 682.736 864.526 680.323L857.814 693.711L858.253 694.119C860.633 693.225 862.914 692.813 865.096 692.882C867.279 692.951 869.508 693.498 871.785 694.521C875.813 696.33 878.944 698.718 881.176 701.684C883.409 704.65 884.597 707.988 884.74 711.697C884.941 715.433 884.067 719.246 882.116 723.137C880.023 727.313 877.195 730.529 873.632 732.784C870.099 734.982 866.252 736.163 862.093 736.327C857.933 736.491 853.898 735.694 849.987 733.937Z" fill="black"/>
<path d="M620.162 634.275C618.06 633.331 616.71 631.743 616.112 629.511C615.573 627.306 615.991 624.83 617.368 622.084C619.089 618.651 621.556 615.799 624.769 613.528C628.041 611.282 632.113 609.081 636.985 606.924C644.12 603.821 649.714 600.937 653.768 598.272C656.49 596.41 658.874 594.222 660.922 591.707L660.701 591.292C658.145 591.966 655.758 591.805 653.54 590.808C651.205 589.759 648.923 588.103 646.696 585.841C644.646 583.938 642.453 582.462 640.118 581.413C637.724 580.338 635.467 580.06 633.347 580.579C631.256 581.041 629.477 582.45 628.01 584.806L624.991 589.758L621.838 588.342L636.071 564.874L639.223 566.29L635.946 571.757L636.21 572.086C641.776 569.26 646.573 568.751 650.601 570.561C652.411 571.374 653.655 572.529 654.335 574.026C655.102 575.493 655.669 577.359 656.034 579.627C656.37 581.81 656.775 583.57 657.25 584.905C657.726 586.24 658.43 587.117 659.364 587.537C661.232 588.376 662.597 587.938 663.457 586.221C663.973 585.192 663.82 584.071 662.996 582.86C661.939 581.403 661.739 580.017 662.399 578.701C662.743 578.014 663.249 577.576 663.917 577.385C664.614 577.137 665.37 577.197 666.188 577.564C667.706 578.246 668.501 579.655 668.575 581.791C668.707 583.954 668.314 585.95 667.396 587.781C665.532 591.5 663.271 594.655 660.613 597.246C657.983 599.78 654.511 602.426 650.196 605.184C646.171 607.791 642.616 611.101 639.532 615.113C636.534 619.094 633.803 623.545 631.336 628.465C629.844 631.44 628.113 633.396 626.141 634.333C624.257 635.239 622.263 635.219 620.162 634.275Z" fill="black"/>
<path d="M581.268 524.612C577.998 523.144 575.103 521.072 572.582 518.397C570.119 515.748 568.483 512.804 567.674 509.567C566.952 506.298 567.394 503.062 569 499.858C570.807 496.254 573.422 493.678 576.844 492.131C580.266 490.584 583.636 489.855 586.953 489.944L587.039 489.772C582.599 483.361 582.072 476.78 585.456 470.029C587.349 466.253 589.962 463.466 593.295 461.669C596.687 459.898 600.259 459.05 604.013 459.124C607.854 459.167 611.409 459.923 614.678 461.392C618.531 463.123 621.383 465.281 623.235 467.865C625.145 470.476 626.153 473.102 626.259 475.744C626.424 478.411 626.004 480.746 625 482.749C623.566 485.61 621.327 487.793 618.283 489.299C615.297 490.832 612.234 491.664 609.093 491.795L608.921 492.138L610.154 493.744C612.767 496.95 614.348 500.43 614.899 504.182C615.45 507.935 614.994 511.27 613.531 514.188C611.667 517.907 609.114 520.931 605.872 523.26C602.63 525.588 598.886 526.921 594.641 527.256C590.396 527.592 585.938 526.711 581.268 524.612ZM607.114 489.749C609.908 489.883 612.521 489.164 614.954 487.593C617.415 485.965 619.291 483.864 620.582 481.289C621.758 478.944 622.163 476.637 621.798 474.37C621.432 472.103 620.501 470.107 619.005 468.384C617.596 466.629 615.899 465.306 613.914 464.414C610.762 462.997 607.441 462.416 603.951 462.671C600.52 462.952 598.001 464.695 596.395 467.899C595.248 470.187 594.898 472.168 595.347 473.842C595.795 475.515 596.798 477.298 598.353 479.188L607.114 489.749ZM585.009 522.929C587.577 524.083 590.084 524.648 592.527 524.624C595 524.543 597.149 523.967 598.974 522.894C600.857 521.848 602.244 520.438 603.133 518.664C604.28 516.376 604.497 514.16 603.783 512.016C603.07 509.873 601.832 507.705 600.07 505.511L589.062 491.943C586.096 492.152 583.555 492.869 581.44 494.091C579.354 495.257 577.422 497.613 575.643 501.161C573.808 504.822 573.279 508.16 574.057 511.173C574.922 514.156 576.409 516.611 578.518 518.54C580.685 520.495 582.849 521.958 585.009 522.929Z" fill="black"/>
<path d="M640.49 275.145L646.795 277.978C647.612 278.345 648.238 278.451 648.674 278.296C649.138 278.084 649.556 277.606 649.929 276.862L673.462 229.919L665.056 226.142L666.605 223.052L669.845 224.508C672.413 225.662 675.05 226.181 677.755 226.065C680.519 225.974 682.782 225.098 684.544 223.437L691.112 226.388L662.889 282.685C662.516 283.429 662.39 284.038 662.509 284.513C662.716 284.956 663.199 285.348 663.958 285.689L670.263 288.522L668.886 291.268L639.113 277.891L640.49 275.145ZM704.107 308.776C699.904 306.887 697 303.62 695.395 298.973C693.849 294.353 693.434 289.189 694.149 283.482C694.951 277.744 696.6 272.386 699.096 267.408C701.591 262.431 704.918 257.862 709.078 253.702C713.325 249.512 717.827 246.523 722.586 244.735C727.403 242.974 731.913 243.037 736.116 244.926C740.319 246.814 743.194 250.069 744.74 254.689C746.345 259.336 746.746 264.528 745.944 270.266C745.228 275.973 743.623 281.316 741.128 286.293C738.632 291.271 735.261 295.855 731.015 300.046C726.855 304.205 722.367 307.166 717.55 308.927C712.791 310.715 708.31 310.664 704.107 308.776ZM705.484 306.029C707.644 307 709.765 306.551 711.846 304.682C714.014 302.782 715.772 300.488 717.12 297.799L735.362 261.411C736.71 258.722 737.462 256.01 737.617 253.276C737.858 250.511 736.899 248.643 734.739 247.672C732.579 246.702 730.415 247.166 728.247 249.066C726.166 250.935 724.451 253.214 723.103 255.903L704.861 292.29C703.513 294.979 702.718 297.707 702.476 300.472C702.321 303.207 703.324 305.059 705.484 306.029Z" fill="black"/>
<path d="M767.158 229.731L773.463 232.564C774.28 232.931 774.906 233.037 775.342 232.882C775.806 232.67 776.224 232.192 776.597 231.449L800.13 184.505L791.724 180.728L793.273 177.639L796.513 179.094C799.081 180.248 801.718 180.767 804.423 180.651C807.187 180.56 809.45 179.684 811.212 178.023L817.78 180.974L789.557 237.272C789.184 238.015 789.057 238.624 789.177 239.099C789.384 239.542 789.867 239.935 790.626 240.276L796.931 243.108L795.554 245.855L765.781 232.477L767.158 229.731ZM817.954 252.554L824.259 255.387C825.076 255.754 825.702 255.86 826.137 255.705C826.601 255.493 827.02 255.015 827.393 254.271L850.926 207.328L842.52 203.551L844.069 200.461L847.309 201.917C849.877 203.071 852.514 203.59 855.219 203.473C857.982 203.383 860.245 202.507 862.008 200.846L868.576 203.797L840.353 260.094C839.98 260.838 839.853 261.447 839.973 261.922C840.18 262.365 840.663 262.757 841.422 263.098L847.727 265.931L846.35 268.677L816.577 255.3L817.954 252.554Z" fill="black"/>
<ellipse cx="29.3811" cy="27.7743" rx="29.3811" ry="27.7743" transform="matrix(0.912159 0.409837 -0.448155 0.893956 843.676 411.184)" fill="white"/>
<path d="M1122.21 212.808C1087.32 284.188 1087.45 133.331 1012.67 100.555C937.889 67.7791 816.507 165.495 851.402 94.1158C886.296 22.7363 975.207 -8.55797 1049.99 24.218C1124.77 56.9941 1157.11 141.429 1122.21 212.808Z" fill="black"/>
<ellipse cx="1035.94" cy="51.898" rx="33.171" ry="31.6825" transform="rotate(2.47358 1035.94 51.898)" fill="white"/>
<path d="M62.0833 990.171C59.2269 988.302 57.2893 985.964 56.2708 983.157C55.3236 980.396 55.7609 977.623 57.5827 974.838C59.2177 972.338 61.2701 970.214 63.74 968.464C66.2813 966.762 69.3555 965.102 72.9626 963.485C77.9845 961.263 82.0711 958.991 85.2223 956.668C88.4917 954.32 91.5979 950.896 94.5408 946.397C96.3626 943.612 97.2023 940.848 97.06 938.103C96.9178 935.359 95.6326 933.193 93.2046 931.605C90.3481 929.736 87.2208 929.373 83.8225 930.515C80.471 931.586 77.7909 933.656 75.7822 936.727C74.0539 939.369 72.9615 941.663 72.5051 943.607C72.1201 945.599 72.0468 948.049 72.2852 950.958L68.6303 951.168C68.2931 947.786 68.35 944.815 68.8011 942.255C69.2521 939.695 70.4118 936.987 72.2804 934.13C74.0555 931.417 76.3565 929.302 79.1834 927.786C82.1285 926.246 85.3179 925.579 88.7515 925.786C92.3033 925.968 95.8288 927.203 99.328 929.492C102.684 931.688 105.24 934.328 106.995 937.413C108.749 940.498 109.606 943.71 109.564 947.047C109.569 950.313 108.614 953.41 106.698 956.338C104.503 959.695 101.07 962.293 96.3997 964.132C91.7294 965.972 86.2393 967.428 79.9293 968.501C75.1082 969.324 71.188 970.328 68.1689 971.515C65.2678 972.676 62.9298 974.613 61.1547 977.327C59.9869 979.112 59.742 980.89 60.4202 982.659C61.145 984.357 62.4001 985.789 64.1854 986.957C66.0421 988.172 67.9265 988.487 69.8385 987.902C71.7972 987.246 73.4539 985.882 74.8086 983.811C75.3692 982.954 75.7979 981.909 76.0948 980.676L79.3664 981.286C79.2096 982.305 79.0157 983.147 78.7849 983.812C78.6007 984.405 78.2517 985.095 77.7378 985.88C75.7759 988.88 73.2717 990.759 70.2251 991.52C67.2967 992.255 64.5828 991.806 62.0833 990.171ZM49.2316 1010.52C46.8036 1008.93 45.3179 1006.84 44.7746 1004.24C44.2312 1001.64 44.7536 999.127 46.3418 996.699C47.9301 994.271 50.0236 992.785 52.6223 992.241C55.2211 991.698 57.7345 992.221 60.1625 993.809C62.5905 995.397 64.0762 997.49 64.6196 1000.09C65.1629 1002.69 64.6405 1005.2 63.0523 1007.63C61.464 1010.06 59.3705 1011.54 56.7718 1012.09C54.173 1012.63 51.6597 1012.11 49.2316 1010.52ZM65.3056 1049.48L160.537 969.837L167.821 974.602L72.5896 1054.25L65.3056 1049.48Z" fill="black"/>
<path d="M82.1617 451.098C79.6957 449.485 78.1868 447.359 77.635 444.72C77.0831 442.08 77.6137 439.528 79.2267 437.062C80.8398 434.596 82.966 433.087 85.6054 432.535C88.2447 431.983 90.7974 432.514 93.2633 434.127C95.7293 435.74 97.2382 437.866 97.79 440.506C98.3419 443.145 97.8113 445.698 96.1983 448.163C94.5852 450.629 92.459 452.138 89.8196 452.69C87.1803 453.242 84.6276 452.711 82.1617 451.098ZM57.8235 488.305C55.3576 486.692 53.8487 484.566 53.2968 481.927C52.7449 479.287 53.2755 476.735 54.8886 474.269C56.5016 471.803 58.6278 470.294 61.2672 469.742C63.9065 469.19 66.4592 469.721 68.9251 471.334C71.3911 472.947 72.9 475.073 73.4519 477.712C74.0037 480.352 73.4731 482.904 71.8601 485.37C70.247 487.836 68.1208 489.345 65.4815 489.897C62.8421 490.449 60.2895 489.918 57.8235 488.305Z" fill="black"/>
<path d="M577.906 1025.58C573.376 1021.16 570.304 1016.97 568.69 1013.01C567.129 1009.08 567.627 1005.16 570.185 1001.25L580.8 985.024C582.552 982.346 583.048 980.185 582.288 978.541C581.563 976.843 579.862 975.118 577.184 973.367L578.55 971.278C581.228 973.03 583.473 973.924 585.284 973.962C587.13 973.946 588.928 972.599 590.68 969.921L601.296 953.692C603.853 949.782 607.244 947.756 611.467 947.612C615.744 947.504 620.813 948.64 626.674 951.021L625.845 953.691C622.461 952.318 619.802 951.764 617.87 952.03C615.937 952.295 614.147 953.687 612.501 956.204L602.306 971.79C600.028 975.271 597.455 977.335 594.585 977.981C591.768 978.662 588.757 978.414 585.552 977.234L585.447 977.395C587.811 979.86 589.246 982.519 589.75 985.372C590.308 988.261 589.448 991.446 587.171 994.927L576.976 1010.51C575.329 1013.03 574.771 1015.23 575.302 1017.1C575.834 1018.98 577.406 1021.2 580.02 1023.75L577.906 1025.58ZM537.283 1097.85C531.927 1094.34 527.842 1089.95 525.026 1084.67C522.246 1079.33 521.025 1073.6 521.362 1067.47C521.699 1061.35 523.759 1055.39 527.543 1049.61C531.186 1044.04 535.889 1039.77 541.65 1036.81C547.411 1033.85 553.488 1032.51 559.88 1032.79C566.362 1033.05 572.414 1035.02 578.038 1038.7C583.769 1042.45 587.953 1046.98 590.592 1052.3C593.23 1057.62 594.316 1063.15 593.852 1068.89C593.476 1074.61 591.658 1079.96 588.4 1084.94C586.508 1087.83 583.788 1090.41 580.24 1092.68C576.745 1094.98 572.887 1096.32 568.666 1096.7C564.498 1097.1 560.486 1096.05 556.63 1093.53C554.648 1092.23 553.311 1090.59 552.619 1088.61C551.963 1086.57 552.14 1084.55 553.152 1082.53L552.883 1082.24C550.866 1082.99 548.509 1083.43 545.812 1083.58C543.115 1083.73 540.642 1083.07 538.393 1081.6C535.768 1079.88 534.053 1077.53 533.246 1074.56C532.439 1071.58 533.086 1068.49 535.188 1065.28C537.395 1061.9 540.014 1058.83 543.043 1056.07C546.107 1053.26 549.152 1051.35 552.179 1050.35C556.162 1049.05 559.707 1048.54 562.816 1048.82C565.979 1049.13 568.658 1050 570.854 1051.44C572.193 1052.31 573.046 1053.52 573.415 1055.06C573.818 1056.55 573.795 1057.99 573.346 1059.38L573.667 1059.59L576.811 1056.71L585.407 1062.33L563.304 1083.32C562.09 1084.59 561.203 1085.66 560.642 1086.51C559.731 1087.91 559.37 1089.16 559.557 1090.28C559.744 1091.4 560.159 1092.16 560.802 1092.58C562.998 1094.02 565.494 1094.24 568.29 1093.24C571.085 1092.24 573.804 1090.54 576.446 1088.13C579.123 1085.68 581.372 1083.06 583.194 1080.27C586.417 1075.35 588.229 1070.41 588.63 1065.47C589.065 1060.48 588.146 1055.87 585.873 1051.63C583.599 1047.39 580.159 1043.76 575.553 1040.75C571.215 1037.91 566.436 1036.5 561.218 1036.53C555.999 1036.56 550.9 1038.04 545.92 1040.98C540.993 1043.95 536.743 1048.17 533.169 1053.63C529.666 1058.99 527.591 1064.32 526.945 1069.63C526.335 1074.89 527.185 1079.85 529.498 1084.5C531.846 1089.09 535.591 1093.07 540.732 1096.43C543.303 1098.12 546.065 1099.27 549.017 1099.9C552.004 1100.48 554.722 1100.77 557.172 1100.76L556.958 1103.72C554.439 1103.83 551.453 1103.48 548.003 1102.68C544.552 1101.88 540.979 1100.27 537.283 1097.85ZM541.582 1080.93C543.564 1082.23 546.331 1081.97 549.883 1080.16C553.435 1078.36 556.892 1075.76 560.253 1072.38C565.077 1067.81 568.172 1064.48 569.538 1062.39C570.799 1060.46 571.503 1058.75 571.65 1057.24C571.831 1055.67 571.413 1054.56 570.396 1053.89C568.789 1052.84 566.852 1052.64 564.586 1053.3C562.355 1053.91 559.484 1055.55 555.975 1058.22C553.859 1059.82 551.5 1062.03 548.897 1064.84C546.348 1067.68 544.128 1070.55 542.236 1073.44C541.15 1075.1 540.568 1076.63 540.492 1078.04C540.469 1079.47 540.832 1080.44 541.582 1080.93Z" fill="black"/>
<path d="M825.641 977.835C822.087 975.51 820.018 972.499 819.433 968.802C818.968 965.08 819.946 961.37 822.366 957.671C826.257 951.724 831.306 947.726 837.514 945.678C843.795 943.676 850.392 943.487 857.304 945.11L856.835 949.152C851.174 947.831 845.886 947.841 840.97 949.181C836.174 950.497 832.637 952.895 830.359 956.376C830.027 956.884 829.864 957.45 829.869 958.075C829.994 958.675 830.347 959.165 830.927 959.544C831.508 959.924 832.568 960.203 834.108 960.382C835.84 960.583 837.287 961.064 838.447 961.823C840.478 963.151 841.804 965.003 842.425 967.377C843.119 969.799 842.66 972.243 841.046 974.709C839.148 977.61 836.711 979.277 833.734 979.712C830.804 980.074 828.107 979.448 825.641 977.835ZM849.574 993.493C846.02 991.168 843.951 988.157 843.366 984.46C842.901 980.738 843.879 977.028 846.299 973.329C850.189 967.382 855.239 963.384 861.447 961.336C867.728 959.334 874.324 959.145 881.237 960.768L880.767 964.81C875.107 963.489 869.819 963.499 864.903 964.839C860.107 966.155 856.57 968.553 854.292 972.034C853.96 972.542 853.797 973.108 853.802 973.733C853.927 974.333 854.28 974.823 854.86 975.202C855.441 975.582 856.501 975.861 858.041 976.04C859.773 976.242 861.22 976.722 862.38 977.481C864.411 978.81 865.737 980.661 866.358 983.035C867.052 985.457 866.592 987.901 864.979 990.367C863.081 993.268 860.644 994.936 857.667 995.37C854.737 995.732 852.04 995.106 849.574 993.493ZM764.414 1062.87C765.81 1060.26 767.844 1055.02 770.516 1047.13C771.898 1042.96 773.189 1039.41 774.39 1036.46C775.638 1033.45 777.044 1030.74 778.61 1028.35C780.793 1025.01 783.335 1022.95 786.237 1022.15C789.139 1021.36 791.895 1021.82 794.506 1023.52C797.117 1025.23 798.639 1027.58 799.074 1030.55C799.508 1033.53 798.634 1036.69 796.451 1040.02C794.885 1042.41 792.971 1044.79 790.708 1047.14C788.492 1049.42 785.75 1052.02 782.482 1054.96C776.853 1060.08 772.861 1064.05 770.506 1066.86L758.445 1081.49L755.834 1079.78L764.414 1062.87ZM741.695 1104.24C739.229 1102.63 737.721 1100.5 737.169 1097.86C736.617 1095.23 737.148 1092.67 738.761 1090.21C740.375 1087.74 742.501 1086.23 745.14 1085.68C747.78 1085.13 750.332 1085.66 752.798 1087.27C755.264 1088.89 756.773 1091.01 757.324 1093.65C757.876 1096.29 757.345 1098.84 755.732 1101.31C754.119 1103.78 751.992 1105.28 749.353 1105.84C746.714 1106.39 744.161 1105.86 741.695 1104.24Z" fill="black"/>
</g>
<defs>
<clipPath id="clip0_174_699">
<rect width="1280" height="1121" fill="white"/>
</clipPath>
</defs>
</svg>
