<svg width="1280" height="749" viewBox="0 0 1280 749" fill="none" xmlns="http://www.w3.org/2000/svg">
<path d="M1171.75 378.704C1178.37 385.238 1184.82 393.574 1193.19 396.9C1192.09 387.709 1191.19 378.681 1191.51 369.335C1191.72 363.339 1204.61 366.553 1207.83 367.595C1215.81 370.175 1243.02 394.196 1247.6 379.508C1251.62 366.652 1267.52 353.525 1277.25 347.116C1298.51 333.124 1321.89 338.617 1344.72 342.163C1376.44 347.088 1406.15 346.936 1430.57 374.689C1449.79 396.524 1462.71 416.392 1458.04 448.307C1453.26 481.01 1437.58 501.477 1408.85 508.005C1399.48 510.134 1415.67 514.8 1421.15 518.177C1432.38 525.1 1443.05 535.462 1443.56 551.239C1443.95 563.157 1443.56 581.082 1433.56 588.048C1418.34 598.654 1396.69 597.487 1379.77 597.685C1322.49 598.357 1270.72 580.342 1216.57 559.939C1199.63 553.556 1214.12 564.613 1214.27 577.072C1214.52 598.5 1204.63 606.768 1187.49 608.393C1141.55 612.748 1095.86 611.504 1051.76 595.276C1038.62 590.442 1016.48 576.018 1001.88 579.883C997.326 581.087 999.481 589.835 998.197 593.67C995.062 603.035 978.777 606.803 971.763 609.598C953.948 616.696 935.328 616.694 916.683 616.692L915.791 616.692C893.594 616.692 865.036 619.803 844.877 606.252C835.099 599.678 824.794 591.079 815.914 582.961C806.559 574.409 811.044 554.294 819.64 544.805C807.11 545.459 791.266 548.234 779.825 543.475C751.327 531.622 762.982 482.717 773.849 461.023C780.571 447.601 793.327 445.985 805.57 444.559C813.792 443.602 836.123 449.088 830.281 442.284C825.55 436.774 825.126 433.316 825.338 425.017C825.607 414.556 825.639 398.151 831.775 389.814C845.912 370.605 872.738 360.069 893.379 356.485C923.611 351.237 962.58 364.528 989.003 382.185C1000.66 389.976 1004.5 375.045 1012.22 365.721C1028.79 345.706 1042.93 328.017 1066.24 320.613C1091.69 312.528 1106.47 318.144 1127.84 336.14C1143.19 349.066 1157.3 364.464 1171.75 378.704Z" fill="black"/>
<path d="M1195.65 397.711C1186.06 395.188 1179.01 385.864 1171.75 378.704C1157.3 364.464 1143.19 349.066 1127.84 336.14C1106.47 318.144 1091.69 312.528 1066.24 320.613C1042.93 328.017 1028.79 345.706 1012.22 365.721C1004.5 375.045 1000.66 389.976 989.003 382.185C962.58 364.528 923.611 351.237 893.379 356.485C872.738 360.069 845.912 370.605 831.775 389.814C825.639 398.151 825.607 414.556 825.338 425.017C825.126 433.316 825.55 436.774 830.281 442.284C836.123 449.088 813.792 443.602 805.57 444.559C793.327 445.985 780.571 447.601 773.849 461.023C762.982 482.717 751.327 531.622 779.825 543.475C792.477 548.738 810.514 544.787 823.499 544.68C838.832 544.553 831.709 537.536 824.994 540.664C813.284 546.119 804.758 572.763 815.914 582.961C824.794 591.079 835.099 599.678 844.877 606.252C865.036 619.803 893.594 616.692 915.791 616.692C934.733 616.692 953.664 616.809 971.763 609.598C978.777 606.803 995.062 603.035 998.197 593.67C999.481 589.835 997.326 581.087 1001.88 579.883C1016.48 576.018 1038.62 590.442 1051.76 595.276C1095.86 611.504 1141.55 612.748 1187.49 608.393C1204.63 606.768 1214.52 598.5 1214.27 577.072C1214.12 564.613 1199.63 553.556 1216.57 559.939C1270.72 580.342 1322.49 598.357 1379.77 597.685C1396.69 597.487 1418.34 598.654 1433.56 588.048C1443.56 581.082 1443.95 563.157 1443.56 551.239C1443.05 535.462 1432.38 525.1 1421.15 518.177C1415.67 514.8 1399.48 510.134 1408.85 508.005C1437.58 501.477 1453.26 481.01 1458.04 448.307C1462.71 416.392 1449.79 396.524 1430.57 374.689C1406.15 346.936 1376.44 347.088 1344.72 342.163C1321.89 338.617 1298.51 333.124 1277.25 347.116C1267.52 353.525 1251.62 366.652 1247.6 379.508C1243.02 394.196 1215.81 370.175 1207.83 367.595C1204.61 366.553 1191.72 363.339 1191.51 369.335C1191.16 379.771 1192.32 389.809 1193.58 400.121" stroke="black" stroke-width="3" stroke-linecap="round"/>
<line x1="1006.77" y1="57.7906" x2="892.744" y2="168.89" stroke="black" stroke-width="5"/>
<line x1="1229.77" y1="107.791" x2="1115.74" y2="218.89" stroke="black" stroke-width="5"/>
<line x1="541.77" y1="12.7906" x2="427.744" y2="123.89" stroke="black" stroke-width="5"/>
<line x1="725.036" y1="30.6168" x2="642.453" y2="111.094" stroke="black" stroke-width="10"/>
<line x1="528.036" y1="88.6168" x2="445.453" y2="169.094" stroke="white" stroke-width="10"/>
<line x1="765.036" y1="208.617" x2="682.453" y2="289.094" stroke="white" stroke-width="10"/>
<line x1="1050.04" y1="196.617" x2="967.453" y2="277.094" stroke="black" stroke-width="10"/>
<line x1="201.77" y1="122.791" x2="87.7439" y2="233.89" stroke="white" stroke-width="5"/>
<path d="M467.502 149.641C475.888 156.697 484.049 165.7 494.641 169.292C493.249 159.366 492.111 149.616 492.518 139.522C492.778 133.046 509.093 136.517 513.17 137.642C523.264 140.429 557.688 166.371 563.492 150.508C568.571 136.624 588.694 122.447 601.015 115.525C627.912 100.414 657.492 106.347 686.387 110.176C726.521 115.495 764.127 115.331 795.03 145.304C819.344 168.886 835.693 190.343 829.79 224.812C823.742 260.131 803.894 282.235 767.542 289.285C755.684 291.585 776.171 296.624 783.104 300.272C797.312 307.748 810.818 318.939 811.465 335.978C811.953 348.849 811.461 368.209 798.812 375.732C779.551 387.187 752.155 385.926 730.746 386.14C658.256 386.865 592.746 367.409 524.223 345.374C502.786 338.481 521.129 350.422 521.314 363.878C521.633 387.02 509.116 395.95 487.427 397.705C429.296 402.408 371.472 401.064 315.664 383.538C299.042 378.318 271.023 362.739 252.544 366.913C246.787 368.214 249.514 377.662 247.89 381.803C243.923 391.918 223.315 395.987 214.439 399.006C191.895 406.671 168.333 406.669 144.74 406.667L143.61 406.667C115.522 406.667 79.3838 410.027 53.8745 395.392C41.5015 388.293 28.4607 379.005 17.2239 370.238C5.38561 361.002 11.0611 339.277 21.9395 329.029C6.08332 329.736 -13.9661 332.733 -28.4438 327.593C-64.5062 314.792 -49.7573 261.975 -36.0066 238.545C-27.4992 224.049 -11.3587 222.304 4.13445 220.764C14.5382 219.73 42.797 225.655 35.4038 218.306C29.4175 212.356 28.8807 208.621 29.1499 199.658C29.4892 188.361 29.53 170.643 37.2945 161.639C55.1845 140.894 89.1299 129.514 115.25 125.644C153.507 119.975 202.818 134.331 236.255 153.399C251.01 161.815 255.864 145.688 265.633 135.619C286.604 114.003 304.49 94.8988 333.989 86.9021C366.202 78.17 384.902 84.2355 411.945 103.671C431.369 117.631 449.225 134.261 467.502 149.641Z" fill="black"/>
<path d="M497.753 170.168C485.611 167.443 476.691 157.373 467.502 149.641C449.225 134.261 431.369 117.631 411.945 103.671C384.902 84.2355 366.202 78.17 333.989 86.9021C304.49 94.8988 286.604 114.003 265.633 135.619C255.864 145.688 251.01 161.815 236.255 153.399C202.818 134.331 153.507 119.975 115.25 125.644C89.1299 129.514 55.1845 140.894 37.2945 161.639C29.53 170.643 29.4892 188.361 29.1499 199.658C28.8807 208.621 29.4175 212.356 35.4038 218.306C42.797 225.655 14.5382 219.73 4.13445 220.764C-11.3587 222.304 -27.4992 224.049 -36.0066 238.545C-49.7573 261.975 -64.5062 314.792 -28.4438 327.593C-12.4334 333.277 10.3909 329.01 26.8229 328.894C46.2249 328.758 37.2109 321.179 28.7136 324.558C13.8958 330.449 3.10636 359.224 17.2239 370.238C28.4607 379.005 41.5015 388.293 53.8745 395.392C79.3838 410.028 115.522 406.667 143.61 406.667C167.58 406.667 191.535 406.794 214.439 399.006C223.315 395.987 243.923 391.918 247.89 381.803C249.514 377.662 246.787 368.214 252.544 366.913C271.023 362.739 299.042 378.318 315.664 383.538C371.472 401.064 429.296 402.408 487.427 397.705C509.116 395.95 521.633 387.02 521.314 363.878C521.129 350.422 502.786 338.481 524.223 345.374C592.746 367.409 658.256 386.865 730.746 386.14C752.155 385.926 779.551 387.187 798.812 375.732C811.461 368.209 811.953 348.849 811.465 335.978C810.818 318.939 797.312 307.748 783.104 300.272C776.171 296.624 755.684 291.585 767.542 289.285C803.894 282.235 823.742 260.131 829.79 224.812C835.693 190.343 819.344 168.886 795.03 145.304C764.127 115.331 726.521 115.495 686.387 110.176C657.492 106.347 627.912 100.414 601.015 115.525C588.694 122.447 568.571 136.624 563.492 150.508C557.688 166.371 523.264 140.429 513.17 137.642C509.093 136.517 492.778 133.046 492.518 139.522C492.064 150.792 493.535 161.634 495.136 172.77" stroke="black" stroke-width="3" stroke-linecap="round"/>
<line x1="79.3431" y1="158.46" x2="10.494" y2="225.553" stroke="white" stroke-width="7"/>
<line x1="137.343" y1="353.46" x2="68.494" y2="420.553" stroke="white" stroke-width="7"/>
<path d="M52.4368 702.8C48.0893 698.097 43.8571 692.096 38.3682 689.704C39.0935 696.323 39.687 702.825 39.4808 709.557C39.3486 713.876 30.8944 711.566 28.7818 710.817C23.5508 708.962 5.70492 691.673 2.70493 702.254C0.0792815 711.514 -10.3403 720.976 -16.7206 725.596C-30.6494 735.682 -45.9772 731.735 -60.9492 729.191C-81.7442 725.658 -101.228 725.78 -117.251 705.801C-129.858 690.083 -138.338 675.779 -135.294 652.791C-132.176 629.235 -121.902 614.487 -103.072 609.774C-96.929 608.236 -107.545 604.883 -111.139 602.452C-118.503 597.471 -125.505 590.012 -125.848 578.65C-126.106 570.066 -125.859 557.156 -119.309 552.135C-109.335 544.489 -95.1408 545.321 -84.0493 545.171C-46.4931 544.663 -12.5443 557.616 22.9662 572.288C34.0756 576.878 24.5672 568.921 24.4654 559.948C24.2902 544.514 30.7717 538.555 42.0076 537.378C72.123 534.222 102.082 535.099 131.003 546.768C139.617 550.244 154.14 560.624 163.712 557.834C166.694 556.964 165.277 550.665 166.117 547.903C168.168 541.156 178.843 538.435 183.44 536.419C195.117 531.3 207.324 531.293 219.548 531.287L220.133 531.286C234.685 531.277 253.407 529.024 266.629 538.776C273.043 543.506 279.803 549.695 285.628 555.538C291.766 561.694 288.835 576.183 283.203 583.021C291.418 582.545 301.804 580.54 309.307 583.962C327.996 592.487 320.377 627.715 313.263 643.344C308.862 653.014 300.5 654.183 292.474 655.215C287.084 655.909 272.441 651.967 276.275 656.865C279.379 660.831 279.658 663.321 279.523 669.299C279.352 676.833 279.338 688.649 275.319 694.656C266.059 708.496 248.477 716.097 234.947 718.686C215.128 722.479 189.574 712.922 172.243 700.217C164.595 694.61 162.087 705.366 157.03 712.084C146.174 726.506 136.916 739.252 121.636 744.595C104.95 750.429 95.2592 746.39 81.2405 733.438C71.171 724.135 61.9128 713.051 52.4368 702.8Z" fill="black"/>
<path d="M36.7551 689.121C43.0474 690.934 47.6728 697.647 52.4368 702.8C61.9128 713.051 71.171 724.135 81.2405 733.438C95.2592 746.39 104.95 750.429 121.636 744.595C136.916 739.252 146.174 726.506 157.03 712.084C162.087 705.366 164.595 694.61 172.243 700.217C189.574 712.922 215.128 722.479 234.947 718.686C248.477 716.097 266.059 708.496 275.319 694.656C279.338 688.649 279.352 676.833 279.523 669.299C279.658 663.321 279.379 660.831 276.275 656.865C272.441 651.967 287.084 655.909 292.474 655.215C300.5 654.183 308.862 653.014 313.263 643.344C320.377 627.715 327.996 592.487 309.307 583.962C301.009 580.177 289.186 583.03 280.673 583.113C270.621 583.211 275.294 588.261 279.695 586.006C287.37 582.072 292.947 562.879 285.628 555.538C279.803 549.695 273.043 543.506 266.629 538.776C253.407 529.024 234.685 531.277 220.133 531.286C207.714 531.294 195.303 531.218 183.44 536.419C178.843 538.435 168.168 541.156 166.117 547.903C165.277 550.665 166.694 556.964 163.712 557.834C154.14 560.624 139.617 550.244 131.003 546.768C102.082 535.099 72.123 534.222 42.0076 537.378C30.7717 538.555 24.2902 544.514 24.4653 559.948C24.5672 568.921 34.0756 576.878 22.9662 572.288C-12.5443 557.616 -46.4931 544.663 -84.0493 545.171C-95.1408 545.321 -109.335 544.489 -119.309 552.135C-125.859 557.156 -126.106 570.066 -125.848 578.65C-125.505 590.012 -118.503 597.471 -111.139 602.452C-107.545 604.883 -96.929 608.236 -103.072 609.774C-121.902 614.487 -132.176 629.235 -135.294 652.791C-138.338 675.779 -129.858 690.083 -117.251 705.801C-101.228 725.78 -81.7442 725.658 -60.9492 729.191C-45.9772 731.735 -30.6494 735.682 -16.7206 725.596C-10.3403 720.976 0.0792793 711.514 2.70493 702.254C5.70491 691.673 23.5508 708.962 28.7818 710.817C30.8944 711.566 39.3486 713.876 39.4808 709.557C39.711 702.04 38.9443 694.811 38.1103 687.385" stroke="black" stroke-width="3" stroke-linecap="round"/>
<line x1="1237.34" y1="503.46" x2="1168.49" y2="570.553" stroke="white" stroke-width="7"/>
<line x1="160.343" y1="510.46" x2="91.494" y2="577.553" stroke="white" stroke-width="7"/>
<line x1="1148.34" y1="353.46" x2="1079.49" y2="420.553" stroke="white" stroke-width="7"/>
<line x1="125.343" y1="667.46" x2="56.494" y2="734.553" stroke="white" stroke-width="7"/>
<line x1="941.343" y1="458.46" x2="872.494" y2="525.553" stroke="white" stroke-width="7"/>
<line x1="522.343" y1="308.46" x2="453.494" y2="375.553" stroke="white" stroke-width="7"/>
<line x1="361.036" y1="83.6168" x2="278.453" y2="164.094" stroke="white" stroke-width="10"/>
<line x1="131.036" y1="42.6168" x2="48.4529" y2="123.094" stroke="black" stroke-width="10"/>
<line x1="322.77" y1="-16.2094" x2="208.744" y2="94.8899" stroke="black" stroke-width="5"/>
</svg>
