<svg width="813" height="867" viewBox="0 0 813 867" fill="none" xmlns="http://www.w3.org/2000/svg">
<path d="M506.767 196.637C506.767 290.843 431.046 482.064 317.464 482.064C150.145 482.064 97.6289 278.334 97.6289 184.128C97.6289 89.9231 186.784 -14.8744 282.046 11.2794C376.698 -44.4406 580.656 120.448 506.767 196.637Z" fill="white"/>
<path d="M156.555 457.744C158.216 455.943 160.801 455.237 163.117 455.952L517.701 565.433C522.099 566.791 523.187 572.256 519.671 575.332L478.415 611.43C477.782 611.983 477.042 612.409 476.242 612.681L435.818 626.413C433.637 627.154 432.026 628.991 431.642 631.173L409.473 757.132C408.908 760.344 405.764 762.604 402.442 762.185L13.9051 713.253C10.1296 712.778 7.8536 709.101 9.1664 705.598L38.1534 628.255C38.3118 627.833 38.5188 627.427 38.7705 627.046L77.4723 568.464L114.37 503.711C114.601 503.306 114.879 502.927 115.199 502.58L156.555 457.744Z" fill="white"/>
<path d="M615.253 205.367C617.94 206.592 617.25 210.416 614.258 210.882L516.435 226.122C516.099 226.175 515.758 226.174 515.425 226.122L414.798 210.094C412.627 209.748 411.606 207.4 412.861 205.637L489.055 98.5854C490.406 96.6871 493.38 96.8372 494.385 98.8545L527.086 164.468C527.375 165.049 527.864 165.515 528.474 165.794L615.253 205.367Z" fill="white"/>
<path d="M583.681 328.247C590.477 335.602 584.937 347.56 574.527 348.004L450.719 353.282C441.789 353.662 435.792 345.003 439.477 337.049L482.451 244.296C486.136 236.342 497.016 234.462 502.846 240.771L583.681 328.247Z" fill="white"/>
<path d="M85.2192 362.666C79.4757 364.881 73.6286 359.796 75.611 354.309L111.866 253.972C113.551 249.309 119.842 247.81 123.688 251.154L192.476 310.98C196.322 314.324 195.144 320.271 190.262 322.154L85.2192 362.666Z" fill="white"/>
<path d="M107.304 414.198C105.664 410.284 108.942 406.003 113.452 406.172L207.357 409.676C212.236 409.858 214.856 415.032 211.974 418.796L152.221 496.814C149.339 500.577 143.231 499.957 141.457 495.721L107.304 414.198Z" fill="white"/>
<ellipse cx="493.333" cy="370.054" rx="43.3564" ry="40.9377" fill="white"/>
<path d="M527.529 399.62C527.529 422.229 538.039 482.064 514.094 482.064C490.149 482.064 369.369 463.167 369.369 440.558C369.369 417.948 413.947 322.862 483.561 399.62C483.561 336.508 527.529 377.011 527.529 399.62Z" fill="white"/>
<path d="M199.35 366.644L518.37 482.064L448.342 496.28L417.609 537.787L155.639 470.388L199.35 366.644Z" fill="white"/>
<path d="M288.563 200.236C289.637 197.917 292.933 197.917 294.007 200.236L345.789 312.05C346.71 314.039 345.258 316.311 343.067 316.311H239.503C237.312 316.311 235.86 314.039 236.781 312.05L288.563 200.236Z" fill="black"/>
<path d="M289.214 153.579C290.321 151.375 293.467 151.375 294.575 153.579L317.156 198.505C318.159 200.5 316.708 202.852 314.476 202.852H269.313C267.08 202.852 265.63 200.5 266.632 198.505L289.214 153.579Z" fill="black"/>
<rect x="285.799" y="90" width="12.1896" height="116.493" fill="black"/>
<rect x="269.953" y="194.358" width="42.6637" height="123.773" fill="black"/>
<rect x="243.137" y="302.356" width="96.298" height="519.363" fill="black"/>
<rect x="327.244" y="515.926" width="24.3792" height="232.985" fill="black"/>
<rect x="232.164" y="515.926" width="18.2844" height="232.985" fill="black"/>
<rect x="230.945" y="356.962" width="24.3792" height="124.987" fill="black"/>
<rect x="327.244" y="356.962" width="24.3792" height="124.987" fill="black"/>
<rect x="346.746" y="346.041" width="9.7517" height="124.987" fill="black"/>
<rect x="226.07" y="346.041" width="9.7517" height="124.987" fill="black"/>
<rect x="194.377" y="650.621" width="9.7517" height="124.987" fill="black"/>
<rect x="379.66" y="615.43" width="9.7517" height="124.987" fill="black"/>
<rect x="144.398" y="704.013" width="9.7517" height="124.987" fill="black"/>
<rect x="98.0781" y="748.911" width="169.436" height="72.8079" fill="black"/>
<rect x="327.244" y="693.092" width="169.436" height="72.8079" fill="black"/>
<rect x="49.3203" y="667.609" width="71.9188" height="72.8079" fill="black"/>
<rect x="3" y="722.215" width="169.436" height="72.8079" fill="black"/>
<rect x="412.57" y="632.418" width="60.9481" height="72.8079" fill="black"/>
<rect x="184.625" y="704.013" width="29.2551" height="72.8079" fill="black"/>
<ellipse cx="85.2797" cy="670.036" rx="35.9594" ry="35.1905" fill="black"/>
<ellipse cx="291.894" cy="418.849" rx="52.4154" ry="52.179" fill="white"/>
<ellipse cx="291.284" cy="419.456" rx="14.0181" ry="13.9548" fill="black"/>
<rect x="287.02" y="371.524" width="8.53273" height="47.3251" fill="black"/>
<rect width="8.51709" height="35.2968" transform="matrix(0.771331 -0.636434 0.639854 0.768497 262.639 395.146)" fill="black"/>
<line y1="-2" x2="76.8459" y2="-2" transform="matrix(0.999993 0.0036136 -0.00364642 0.999993 252.887 355.749)" stroke="white" stroke-width="4"/>
<line y1="-2" x2="76.8459" y2="-2" transform="matrix(0.999993 0.0036136 -0.00364642 0.999993 252.887 486.803)" stroke="white" stroke-width="4"/>
<line y1="-2" x2="76.8459" y2="-2" transform="matrix(0.999993 0.0036136 -0.00364642 0.999993 252.887 346.041)" stroke="white" stroke-width="4"/>
<line y1="-2" x2="76.8459" y2="-2" transform="matrix(0.999993 0.0036136 -0.00364642 0.999993 252.887 336.333)" stroke="white" stroke-width="4"/>
<line y1="-2" x2="76.8459" y2="-2" transform="matrix(0.999993 0.0036136 -0.00364642 0.999993 252.887 327.839)" stroke="white" stroke-width="4"/>
<line y1="-2" x2="76.8459" y2="-2" transform="matrix(0.999993 0.0036136 -0.00364642 0.999993 252.887 513.499)" stroke="white" stroke-width="4"/>
<line y1="-2" x2="76.8459" y2="-2" transform="matrix(0.999993 0.0036136 -0.00364642 0.999993 252.887 503.792)" stroke="white" stroke-width="4"/>
<line y1="-2" x2="76.8459" y2="-2" transform="matrix(0.999993 0.0036136 -0.00364642 0.999993 252.887 495.297)" stroke="white" stroke-width="4"/>
<line y1="-2" x2="32.913" y2="-2" transform="matrix(0.999964 0.00843709 -0.00156173 0.999999 274.828 230.762)" stroke="white" stroke-width="4"/>
<line y1="-2" x2="32.913" y2="-2" transform="matrix(0.999964 0.00843709 -0.00156173 0.999999 274.828 221.054)" stroke="white" stroke-width="4"/>
<line y1="-2" x2="32.913" y2="-2" transform="matrix(0.999964 0.00843709 -0.00156173 0.999999 274.828 212.56)" stroke="white" stroke-width="4"/>
<line x1="248.449" y1="740.417" x2="248.449" y2="519.566" stroke="white" stroke-width="4"/>
<line x1="256.982" y1="741.631" x2="256.982" y2="519.567" stroke="white" stroke-width="4"/>
<line x1="265.516" y1="740.417" x2="265.516" y2="519.566" stroke="white" stroke-width="4"/>
<line x1="319.148" y1="740.417" x2="319.148" y2="519.566" stroke="white" stroke-width="4"/>
<line x1="327.682" y1="741.631" x2="327.682" y2="519.567" stroke="white" stroke-width="4"/>
<line x1="336.215" y1="740.417" x2="336.215" y2="519.566" stroke="white" stroke-width="4"/>
<line x1="283.799" y1="740.417" x2="283.799" y2="519.566" stroke="white" stroke-width="4"/>
<line x1="292.332" y1="741.631" x2="292.332" y2="519.567" stroke="white" stroke-width="4"/>
<line x1="300.863" y1="740.417" x2="300.863" y2="519.566" stroke="white" stroke-width="4"/>
<line x1="241.918" y1="742.057" x2="463.769" y2="742.057" stroke="white" stroke-width="4"/>
<line x1="357.719" y1="719.001" x2="489.457" y2="719.001" stroke="white" stroke-width="4"/>
<line x1="20.0664" y1="733.563" x2="151.805" y2="733.563" stroke="white" stroke-width="4"/>
<line x1="20.0664" y1="751.765" x2="151.805" y2="751.765" stroke="white" stroke-width="4"/>
<line x1="20.0664" y1="769.967" x2="151.805" y2="769.967" stroke="white" stroke-width="4"/>
<line x1="157.809" y1="783.315" x2="289.547" y2="783.315" stroke="white" stroke-width="4"/>
<line x1="227.289" y1="802.731" x2="315.088" y2="802.731" stroke="white" stroke-width="4"/>
<line x1="54.1953" y1="671.677" x2="116.504" y2="671.677" stroke="white" stroke-width="4"/>
<line x1="416.229" y1="636.486" x2="469.863" y2="636.486" stroke="white" stroke-width="4"/>
<path d="M493.991 404.787L500.419 385.37L507.793 386.555L515.517 388.497L524.264 391.924L533.517 396.839L542.77 401.754L553.557 408.648L557.668 411.108L567.671 417.275L579.481 425.653L588.718 433.053L598.974 442.434L608.702 453.805L616.192 464.841L621.453 476.588L623.956 488.499L626.994 497.425L630.048 503.867L633.121 507.327L637.226 510.781L642.365 513.733L650.073 518.16L655.738 519.617L662.959 519.575L670.705 518.039L677.439 513.528L682.638 507.038L686.299 499.066L689.511 489.642L691.063 479.659L691.126 469.721L694.274 461.256L697.91 457.259L702.571 454.251L711.339 454.2L723.203 454.13L753.119 453.955L761.887 453.904L761.887 458.537L760.718 466.025L764.917 472.015L761.887 481.499L753.434 503.867L758.636 527.578L764.684 527.578L764.684 544.988L763.871 549.199L762.288 553.281L760.718 556.768L758.964 559.681L756.032 563.752L753.434 566.749L750.321 569.748L747.217 571.753L738.423 575.283L729.126 577.325L719.829 579.367L709.507 580.421L695.524 580.578L682.686 580.578L669.524 580.578L656.524 579.149L649.764 577.651L643.523 574.844L633.755 569.932L621.955 559.567L614.276 550.667L608.154 540.268L605.272 535.223L603.712 528.733L600.051 516.961L596.432 501.622L590.968 484.717L585.882 473.318L580.271 463.413L574.639 456.986L567.464 450.071L562.335 445.132L558.234 441.181L553.377 437.234L546.952 430.812L540.278 425.882L531.028 420.471L524.345 417.032L519.203 414.577L509.946 410.159L500.168 406.738L493.991 404.787Z" fill="white"/>
<rect x="688.746" y="452.362" width="75.9197" height="87.8526" rx="8" fill="white"/>
<rect width="77.2182" height="14.1601" rx="7.08004" transform="matrix(0.337973 0.941156 -0.949373 0.314151 594.367 463.343)" fill="white"/>
<path d="M540.651 411.384C543.798 408.986 548.394 409.513 550.916 412.563L593.518 464.079C596.046 467.135 595.497 471.568 592.301 473.92L591.316 474.645C588.595 476.647 584.668 476.047 582.684 473.326L539.524 421.254C536.996 418.205 537.501 413.784 540.651 411.384Z" fill="white"/>
<path d="M497.302 408.796C491.231 407.394 488.484 400.602 491.91 395.464L497.564 386.986C500.327 382.843 505.997 381.6 510.225 384.21L533.286 398.452L560.32 417.676C561.011 418.167 561.625 418.752 562.143 419.413L629.929 505.86C632.425 509.042 632.359 513.492 629.769 516.687L624.826 522.786C620.68 527.901 612.533 527.234 609.52 521.532L562.813 433.143C561.874 431.365 560.332 429.96 558.441 429.16L526.742 415.735C526.252 415.528 525.744 415.363 525.223 415.243L497.302 408.796Z" fill="white"/>
<path d="M588.019 469.615C589.365 469.84 590.13 471.264 589.54 472.448L587.354 476.832C586.733 478.076 584.905 478.07 584.244 476.821L582.684 473.826L582.164 472.827L581.559 471.739C580.754 470.291 581.985 468.605 583.644 468.882L588.019 469.615Z" fill="white"/>
<ellipse cx="657.565" cy="490.298" rx="31.1999" ry="29.9498" fill="black"/>
<path d="M632.039 504.989C631.709 506.03 630.183 505.851 630.089 504.761L630.019 503.955C630.009 503.836 629.978 503.72 629.926 503.612L627.402 498.284L624.802 490.797L609.771 455.32C609.451 454.565 610.124 453.772 610.921 453.964L644.551 462.091C645.118 462.228 645.452 462.817 645.276 463.37L632.039 504.989Z" fill="black"/>
<path d="M605.775 450.26C605.241 449.429 606.106 448.409 607.013 448.801L616.448 452.875C617.071 453.144 617.251 453.944 616.802 454.454L612.864 458.927C612.425 459.425 611.631 459.365 611.272 458.807L605.775 450.26Z" fill="black"/>
</svg>
