<svg width="1280" height="1378" viewBox="0 0 1280 1378" fill="none" xmlns="http://www.w3.org/2000/svg">
<path d="M1056.74 254.262C1058.72 252.854 1062.73 251.377 1064.38 248.844C1069.13 246.805 1075.75 243.974 1073.67 238.48C1071.54 232.856 1066.85 229.324 1062.72 225.815C1060.49 223.925 1061.84 212.921 1060.23 209.448C1056.74 201.952 1051.23 195.929 1044.46 192.887C1032.87 187.676 1019.32 195.076 1007.87 190.938C1005.95 190.243 1004.25 178.66 1001.32 175.935C997.221 172.134 988.59 161.041 982.732 164.05C975.831 167.595 968.211 168.06 961.16 170.869C958.139 172.073 955.385 176.232 951.868 174.961C948.678 173.809 950.601 167.686 948.964 165.024C945.493 159.382 934.976 161.322 929.964 161.322C919.392 161.322 908.319 160.788 898.186 164.927C896.605 165.572 888.103 171.9 887.4 167.362C885.666 156.161 861.368 162.868 856.121 165.024C836.031 173.28 818.745 184.252 820.278 209.448C820.729 216.875 781.24 222.347 783.061 232.5C785.341 245.217 801.412 276.426 811.061 277C843.561 289 888.689 254.017 904.409 263.419C929.228 278.265 952.332 271.752 977.256 259.717C981.886 257.482 992.596 248.991 997.833 254.262C1004.32 260.792 1014.13 259.523 1022.06 259.523C1033.48 259.523 1046.59 261.499 1056.74 254.262Z" fill="#646F75"/>
<path d="M1065.04 247.248C1064.37 250.803 1059.1 252.581 1056.74 254.262C1046.59 261.499 1033.48 259.523 1022.06 259.523C1014.13 259.523 1004.32 260.792 997.833 254.262C992.596 248.991 981.886 257.482 977.256 259.717C952.332 271.752 929.228 278.265 904.409 263.419C888.689 254.017 843.561 289 811.061 277C801.412 276.426 785.341 245.217 783.061 232.5C781.24 222.347 820.729 216.875 820.278 209.448C818.745 184.252 836.031 173.28 856.121 165.024C861.368 162.868 885.666 156.161 887.4 167.362C888.103 171.9 896.605 165.572 898.186 164.927C908.319 160.788 919.392 161.322 929.964 161.322C934.976 161.322 945.493 159.382 948.964 165.024C950.601 167.686 948.678 173.809 951.868 174.961C955.385 176.232 958.139 172.073 961.16 170.869C968.211 168.06 975.831 167.595 982.732 164.05C988.59 161.041 997.221 172.134 1001.32 175.935C1004.25 178.66 1005.95 190.243 1007.87 190.938C1019.32 195.076 1032.87 187.676 1044.46 192.887C1051.23 195.929 1056.74 201.952 1060.23 209.448C1061.84 212.921 1060.49 223.925 1062.72 225.815C1066.85 229.324 1071.54 232.856 1073.67 238.48C1076.47 245.876 1063.51 248.446 1060.56 250.755" stroke="#646F75" stroke-width="3" stroke-linecap="round"/>
<path d="M975.069 626.262C973.693 624.854 970.893 623.377 969.746 620.844C966.436 618.805 961.825 615.974 963.274 610.48C964.758 604.856 968.023 601.324 970.906 597.815C972.459 595.925 971.516 584.921 972.641 581.448C975.067 573.952 978.912 567.929 983.626 564.887C991.7 559.676 1001.14 567.076 1009.12 562.938C1010.46 562.243 1011.64 550.66 1013.69 547.935C1016.55 544.134 1022.56 533.041 1026.64 536.05C1031.45 539.595 1036.76 540.06 1041.67 542.869C1043.78 544.073 1045.7 548.232 1048.15 546.961C1050.37 545.809 1049.03 539.686 1050.17 537.024C1052.59 531.382 1059.92 533.322 1063.41 533.322C1070.78 533.322 1078.5 532.788 1085.56 536.927C1086.66 537.572 1092.58 543.9 1093.07 539.362C1094.28 528.161 1111.21 534.868 1114.87 537.024C1128.87 545.28 1135.37 561.415 1134.3 586.611C1133.98 594.039 1141.12 594.189 1139.85 604.342C1138.26 617.059 1123.79 630.949 1117.07 631.523C1104.95 632.557 1092.18 626.017 1081.22 635.419C1063.93 650.265 1047.83 643.752 1030.46 631.717C1027.23 629.482 1019.77 620.991 1016.12 626.262C1011.6 632.792 1004.76 631.523 999.237 631.523C991.279 631.523 982.144 633.499 975.069 626.262Z" fill="#646F75"/>
<path d="M969.287 619.248C969.756 622.803 973.426 624.581 975.069 626.262C982.144 633.499 991.279 631.523 999.237 631.523C1004.76 631.523 1011.6 632.792 1016.12 626.262C1019.77 620.991 1027.23 629.482 1030.46 631.717C1047.83 643.752 1063.93 650.265 1081.22 635.419C1092.18 626.017 1104.95 632.557 1117.07 631.523C1123.79 630.949 1138.26 617.059 1139.85 604.342C1141.12 594.189 1133.98 594.039 1134.3 586.611C1135.37 561.415 1128.87 545.28 1114.87 537.024C1111.21 534.868 1094.28 528.161 1093.07 539.362C1092.58 543.9 1086.66 537.572 1085.56 536.927C1078.5 532.788 1070.78 533.322 1063.41 533.322C1059.92 533.322 1052.59 531.382 1050.17 537.024C1049.03 539.686 1050.37 545.809 1048.15 546.961C1045.7 548.232 1043.78 544.073 1041.67 542.869C1036.76 540.06 1031.45 539.595 1026.64 536.05C1022.56 533.041 1016.55 544.134 1013.69 547.935C1011.64 550.66 1010.46 562.243 1009.12 562.938C1001.14 567.076 991.7 559.676 983.626 564.887C978.912 567.929 975.067 573.952 972.641 581.448C971.516 584.921 972.459 595.925 970.906 597.815C968.023 601.324 964.758 604.856 963.274 610.48C961.323 617.876 970.354 620.446 972.409 622.755" stroke="#646F75" stroke-width="3" stroke-linecap="round"/>
<path d="M197.342 262.262C195.25 260.854 190.996 259.377 189.252 256.844C184.222 254.805 177.214 251.974 179.417 246.48C181.671 240.856 186.633 237.324 191.015 233.815C193.375 231.925 191.943 220.921 193.651 217.448C197.34 209.952 203.182 203.929 210.347 200.887C222.618 195.676 236.969 203.076 249.097 198.938C251.136 198.243 252.929 186.66 256.039 183.935C260.377 180.134 269.518 169.041 275.722 172.05C283.031 175.595 291.1 176.06 298.568 178.869C301.767 180.073 304.684 184.232 308.409 182.961C311.787 181.809 309.751 175.686 311.484 173.024C315.16 167.382 326.299 169.322 331.607 169.322C342.803 169.322 354.529 168.788 365.261 172.927C366.935 173.572 375.939 179.9 376.684 175.362C378.521 164.161 404.253 170.868 409.81 173.024C431.086 181.28 440.958 197.415 439.335 222.611C438.856 230.039 449.698 230.189 447.77 240.342C445.355 253.059 423.368 266.949 413.149 267.523C394.726 268.557 375.318 262.017 358.67 271.419C332.386 286.265 307.918 279.752 281.521 267.717C276.618 265.482 265.276 256.991 259.729 262.262C252.858 268.792 242.468 267.523 234.071 267.523C221.977 267.523 208.094 269.499 197.342 262.262Z" fill="#646F75"/>
<path d="M188.555 255.248C189.268 258.803 194.845 260.581 197.342 262.262C208.094 269.499 221.977 267.523 234.071 267.523C242.468 267.523 252.858 268.792 259.729 262.262C265.276 256.991 276.618 265.482 281.521 267.717C307.918 279.752 332.386 286.265 358.67 271.419C375.318 262.017 394.726 268.557 413.149 267.523C423.368 266.949 445.355 253.059 447.77 240.342C449.698 230.189 438.856 230.039 439.335 222.611C440.958 197.415 431.086 181.28 409.81 173.024C404.253 170.868 378.521 164.161 376.684 175.362C375.939 179.9 366.935 173.572 365.261 172.927C354.529 168.788 342.803 169.322 331.607 169.322C326.299 169.322 315.16 167.382 311.484 173.024C309.751 175.686 311.787 181.809 308.409 182.961C304.684 184.232 301.767 180.073 298.568 178.869C291.1 176.06 283.031 175.595 275.722 172.05C269.518 169.041 260.377 180.134 256.039 183.935C252.929 186.66 251.136 198.243 249.097 198.938C236.969 203.076 222.618 195.676 210.347 200.887C203.182 203.929 197.34 209.952 193.651 217.448C191.943 220.921 193.375 231.925 191.015 233.815C186.633 237.324 181.671 240.856 179.417 246.48C176.452 253.876 190.176 256.446 193.3 258.755" stroke="#646F75" stroke-width="3" stroke-linecap="round"/>
<path d="M303.681 798.262C305.656 796.854 309.673 795.377 311.32 792.844C316.069 790.805 322.686 787.974 320.607 782.48C318.478 776.856 313.792 773.324 309.655 769.815C307.426 767.925 308.779 756.921 307.166 753.448C303.683 745.952 298.166 739.929 291.401 736.887C279.814 731.676 266.264 739.076 254.812 734.938C252.887 734.243 251.193 722.66 248.257 719.935C244.16 716.134 235.529 705.041 229.672 708.05C222.77 711.595 215.151 712.06 208.1 714.869C205.078 716.073 202.325 720.232 198.807 718.961C195.617 717.809 197.54 711.686 195.903 709.024C192.433 703.382 181.915 705.322 176.903 705.322C166.331 705.322 155.259 704.788 145.126 708.927C143.545 709.572 135.042 715.9 134.34 711.362C132.605 700.161 108.308 706.868 103.06 709.024C82.9705 717.28 73.6495 733.415 75.1822 758.611C75.634 766.039 65.3967 766.189 67.2171 776.342C69.4971 789.059 90.2589 802.949 99.9072 803.523C117.303 804.557 135.629 798.017 151.348 807.419C176.167 822.265 199.271 815.752 224.196 803.717C228.826 801.482 239.535 792.991 244.772 798.262C251.26 804.792 261.071 803.523 268.999 803.523C280.419 803.523 293.528 805.499 303.681 798.262Z" fill="#646F75"/>
<path d="M311.978 791.248C311.305 794.803 306.038 796.581 303.681 798.262C293.528 805.499 280.419 803.523 268.999 803.523C261.071 803.523 251.26 804.792 244.772 798.262C239.535 792.991 228.826 801.482 224.196 803.717C199.271 815.752 176.167 822.265 151.348 807.419C135.629 798.017 117.303 804.557 99.9072 803.523C90.2589 802.949 69.4971 789.059 67.2171 776.342C65.3967 766.189 75.634 766.039 75.1822 758.611C73.6495 733.415 82.9705 717.28 103.06 709.024C108.308 706.868 132.605 700.161 134.34 711.362C135.042 715.9 143.545 709.572 145.126 708.927C155.259 704.788 166.331 705.322 176.903 705.322C181.915 705.322 192.433 703.382 195.903 709.024C197.54 711.686 195.617 717.809 198.807 718.961C202.325 720.232 205.078 716.073 208.1 714.869C215.151 712.06 222.77 711.595 229.672 708.05C235.529 705.041 244.16 716.134 248.257 719.935C251.193 722.66 252.887 734.243 254.812 734.938C266.264 739.076 279.814 731.676 291.401 736.887C298.166 739.929 303.683 745.952 307.166 753.448C308.779 756.921 307.426 767.925 309.655 769.815C313.792 773.324 318.478 776.856 320.607 782.48C323.406 789.876 310.447 792.446 307.497 794.755" stroke="#646F75" stroke-width="3" stroke-linecap="round"/>
<path d="M0 25H424L302 182L195 323.5H0V25Z" fill="black"/>
<path d="M442 25H838.5L900.5 110H375L442 25Z" fill="black"/>
<rect x="-78" y="339" width="273" height="140" fill="black"/>
<rect x="-78" y="519" width="273" height="140" fill="black"/>
<rect x="-78" y="693" width="273" height="140" fill="black"/>
<rect x="-78" y="865" width="273" height="140" fill="black"/>
<rect x="-78" y="1045" width="273" height="140" fill="black"/>
<rect x="-78" y="1219" width="273" height="140" fill="black"/>
<rect width="213" height="140" transform="matrix(-1 0 0 1 1299 339)" fill="black"/>
<rect width="213" height="140" transform="matrix(-1 0 0 1 1299 519)" fill="black"/>
<rect width="213" height="140" transform="matrix(-1 0 0 1 1299 693)" fill="black"/>
<rect width="213" height="140" transform="matrix(-1 0 0 1 1299 865)" fill="black"/>
<rect width="213" height="140" transform="matrix(-1 0 0 1 1299 1045)" fill="black"/>
<rect width="213" height="140" transform="matrix(-1 0 0 1 1299 1219)" fill="black"/>
<path d="M1280 25H856L978 182L1085 323.5H1280V25Z" fill="black"/>
<rect x="195" y="972" width="892" height="387" fill="#646F75"/>
<rect x="776.164" y="957.24" width="181.903" height="87.7597" fill="black"/>
<rect x="341.699" y="957.24" width="184.91" height="87.7597" fill="black"/>
<rect x="373.27" y="639.318" width="121.77" height="102.662" fill="black"/>
<rect x="804.727" y="639.318" width="121.77" height="102.662" fill="black"/>
<rect x="382.289" y="970.487" width="246.721" height="105.233" transform="rotate(-90 382.289 970.487)" fill="black"/>
<rect x="813.746" y="970.487" width="246.721" height="105.233" transform="rotate(-90 813.746 970.487)" fill="black"/>
<path d="M487.523 900.942H510.073V910.877H520.597V957.24H487.523V900.942Z" fill="black"/>
<path d="M813.746 900.942H791.196V910.877H780.673V957.24H813.746V900.942Z" fill="black"/>
<path d="M918.98 904.253H941.53V914.188H952.054V960.552H918.98V904.253Z" fill="black"/>
<path d="M382.289 900.942H359.739V910.877H349.216V957.24H382.289V900.942Z" fill="black"/>
<rect x="490.529" y="672.435" width="326.223" height="34.7727" fill="black"/>
<rect x="486.02" y="717.143" width="326.223" height="6.62338" fill="black"/>
<rect x="26" y="922.468" width="1353" height="6.62338" fill="black"/>
<rect x="592.756" y="650.909" width="9.02" height="26.4935" fill="black"/>
<rect x="705.506" y="650.909" width="9.02" height="26.4935" fill="black"/>
<path d="M434.906 535L475.266 646.769H394.546L434.906 535Z" fill="black"/>
<path d="M866.363 535L906.723 646.769H826.003L866.363 535Z" fill="black"/>
<path d="M477 596.266L495.227 640.974H458.773L477 596.266Z" fill="black"/>
<path d="M391.31 596.266L409.537 640.974H373.083L391.31 596.266Z" fill="black"/>
<path d="M908.457 594.61L926.684 639.318H890.23L908.457 594.61Z" fill="black"/>
<path d="M822.767 596.266L840.994 640.974H804.54L822.767 596.266Z" fill="black"/>
<path d="M35.125 919.536L150.025 900.942L177.837 894.318L207.152 884.383L236.467 869.481L265.782 851.266L286.829 835.536L303.365 821.461L334.935 790L353.727 770.13L368.76 749.432L389.912 714.211" stroke="black" stroke-width="4"/>
<path d="M1267.04 919.156L1152.14 900.561L1124.33 893.938L1095.02 884.003L1065.7 869.1L1036.39 850.886L1015.34 835.156L998.803 821.081L967.233 789.62L948.441 769.75L933.408 749.052L912.256 713.831" stroke="black" stroke-width="4"/>
<line x1="942.029" y1="761.851" x2="942.029" y2="922.467" stroke="black"/>
<line x1="961.574" y1="781.721" x2="961.574" y2="942.338" stroke="black"/>
<line x1="982.436" y1="940" x2="982.436" y2="804.897" stroke="black"/>
<line x1="1001.16" y1="945.661" x2="1001.16" y2="821.461" stroke="black"/>
<line x1="1014.69" y1="957.251" x2="1014.69" y2="833.052" stroke="black"/>
<line x1="1035.5" y1="953.974" x2="1035.5" y2="848" stroke="black"/>
<line x1="1051.53" y1="942.346" x2="1051.53" y2="859.537" stroke="black"/>
<line x1="1073.32" y1="957.256" x2="1073.32" y2="874.448" stroke="black"/>
<line x1="1086.1" y1="942.349" x2="1086.1" y2="881.06" stroke="black"/>
<line x1="1110.91" y1="950.64" x2="1110.91" y2="889.351" stroke="black"/>
<line x1="1128.95" y1="942.369" x2="1128.95" y2="897.63" stroke="black"/>
<line x1="1149.99" y1="947.336" x2="1149.99" y2="902.598" stroke="black"/>
<line x1="1166.53" y1="945.68" x2="1166.53" y2="900.942" stroke="black"/>
<line x1="1183.07" y1="947.336" x2="1183.07" y2="902.598" stroke="black"/>
<line y1="-0.5" x2="162.765" y2="-0.5" transform="matrix(0 1 1 0 349 774)" stroke="black"/>
<line x1="329.5" y1="949" x2="329.5" y2="796.294" stroke="black"/>
<line y1="-0.5" x2="125.86" y2="-0.5" transform="matrix(0 -1 -1 0 309 943.435)" stroke="black"/>
<line x1="289.5" y1="940.844" x2="289.5" y2="831.762" stroke="black"/>
<line x1="276.557" y1="941.247" x2="276.557" y2="842.232" stroke="black"/>
<line x1="254.006" y1="939.555" x2="254.006" y2="857.333" stroke="black"/>
<line x1="238.598" y1="941.235" x2="238.598" y2="867.391" stroke="black"/>
<line x1="216.5" y1="936.754" x2="216.5" y2="878" stroke="black"/>
<line x1="203.5" y1="938.036" x2="203.5" y2="886" stroke="black"/>
<line x1="178.84" y1="941.233" x2="178.84" y2="897.605" stroke="black"/>
<line x1="160.801" y1="941.233" x2="160.801" y2="897.605" stroke="black"/>
<line x1="139.754" y1="936.245" x2="139.754" y2="905.995" stroke="black"/>
<line x1="123.217" y1="939.555" x2="123.217" y2="909.351" stroke="black"/>
<line x1="107.432" y1="941.256" x2="107.432" y2="911.006" stroke="black"/>
<path d="M866.364 564.805L892.402 630.625H840.325L866.364 564.805Z" fill="white"/>
<path d="M477 609.513L484.812 629.383H469.189L477 609.513Z" fill="white"/>
<path d="M391.309 609.513L399.121 629.383H383.498L391.309 609.513Z" fill="white"/>
<path d="M822.766 607.857L830.578 627.727H814.955L822.766 607.857Z" fill="white"/>
<path d="M908.458 607.857L916.269 627.727H900.646L908.458 607.857Z" fill="white"/>
<path d="M477 617.792L480.906 626.485H473.094L477 617.792Z" fill="black"/>
<path d="M822.766 616.136L826.672 624.83H818.86L822.766 616.136Z" fill="black"/>
<path d="M908.457 616.136L912.363 624.83H904.551L908.457 616.136Z" fill="black"/>
<path d="M867.115 578.052L884.691 625.243H849.539L867.115 578.052Z" fill="black"/>
<mask id="path-85-inside-1_174_314" fill="white">
<path d="M650.635 940.682L779.922 961.38L650.635 948.961L523.604 961.38L650.635 940.682Z"/>
</mask>
<path d="M650.635 940.682L779.922 961.38L650.635 948.961L523.604 961.38L650.635 940.682Z" fill="black"/>
<path d="M650.635 940.682L654.429 916.984L650.601 916.371L646.775 916.994L650.635 940.682ZM779.922 961.38L777.627 985.27L783.716 937.682L779.922 961.38ZM523.604 961.38L519.744 937.692L525.939 985.266L523.604 961.38ZM650.635 948.961L652.93 925.071L650.615 924.849L648.3 925.075L650.635 948.961ZM646.841 964.38L776.128 985.078L783.716 937.682L654.429 916.984L646.841 964.38ZM527.463 985.068L654.495 964.37L646.775 916.994L519.744 937.692L527.463 985.068ZM782.217 937.49L652.93 925.071L648.34 972.851L777.627 985.27L782.217 937.49ZM648.3 925.075L521.268 937.494L525.939 985.266L652.97 972.847L648.3 925.075Z" fill="black" mask="url(#path-85-inside-1_174_314)"/>
<path d="M434.907 568.117L460.945 633.937H408.868L434.907 568.117Z" fill="white"/>
<path d="M391.311 617.792L395.217 626.485H387.405L391.311 617.792Z" fill="black"/>
<path d="M435.658 579.708L453.234 626.899H418.082L435.658 579.708Z" fill="black"/>
<rect x="952" y="935" width="299" height="24" fill="black"/>
<rect x="67" y="935" width="299" height="24" fill="black"/>
<rect x="387.057" y="653.353" width="18.1714" height="24.9412" fill="white"/>
<rect x="462.771" y="653.353" width="18.1714" height="24.9412" fill="white"/>
<rect x="426.428" y="644" width="18.1714" height="24.9412" fill="white"/>
<rect x="423.4" y="693.882" width="24.2286" height="24.9412" fill="white"/>
<rect x="411.285" y="834.177" width="48.4571" height="24.9412" fill="white"/>
<rect x="411.285" y="771.823" width="12.1143" height="24.9412" fill="white"/>
<rect x="429.457" y="771.823" width="12.1143" height="24.9412" fill="white"/>
<rect x="447.629" y="771.823" width="12.1143" height="24.9412" fill="white"/>
<rect x="447.629" y="902.765" width="9.08572" height="24.9412" fill="white"/>
<rect x="414.314" y="902.765" width="9.08572" height="24.9412" fill="white"/>
<rect x="429.457" y="893.412" width="12.1143" height="37.4118" fill="white"/>
<rect x="447.629" y="890.294" width="9.08572" height="6.23529" fill="white"/>
<rect x="414.314" y="890.294" width="9.08572" height="6.23529" fill="white"/>
<rect x="414.314" y="937.059" width="42.4" height="24.9412" fill="white"/>
<rect x="390.086" y="656.47" width="12.1143" height="18.7059" fill="black"/>
<rect x="465.801" y="656.47" width="12.1143" height="18.7059" fill="black"/>
<rect x="429.457" y="647.117" width="12.1143" height="18.7059" fill="black"/>
<rect x="426.428" y="697" width="18.1714" height="18.7059" fill="black"/>
<rect x="414.314" y="774.941" width="6.05714" height="18.7059" fill="black"/>
<rect x="432.486" y="774.941" width="6.05714" height="18.7059" fill="black"/>
<rect x="450.656" y="774.941" width="6.05714" height="18.7059" fill="black"/>
<rect x="450.656" y="905.882" width="3.02857" height="18.7059" fill="black"/>
<rect x="417.344" y="905.882" width="3.02857" height="18.7059" fill="black"/>
<rect x="450.656" y="890.294" width="3.02857" height="3.11765" fill="black"/>
<rect x="417.344" y="890.294" width="3.02857" height="3.11765" fill="black"/>
<rect x="432.486" y="896.529" width="6.05714" height="31.1765" fill="black"/>
<rect x="414.314" y="837.294" width="42.4" height="18.7059" fill="black"/>
<rect x="417.344" y="940.176" width="36.3429" height="18.7059" fill="black"/>
<rect x="373" y="735" width="123" height="3" fill="white"/>
<rect x="381" y="750" width="108" height="3" fill="white"/>
<rect x="382" y="759" width="107" height="3" fill="white"/>
<rect x="381" y="809" width="107" height="3" fill="white"/>
<rect x="381" y="862" width="108" height="3" fill="white"/>
<path d="M382 871.588H488V874.706H382V871.588Z" fill="white"/>
<rect x="350" y="931" width="171" height="3" fill="white"/>
<rect x="447.629" y="958.882" width="21.8235" height="3.02857" transform="rotate(-90 447.629 958.882)" fill="white"/>
<rect x="420.371" y="958.882" width="21.8235" height="3.02857" transform="rotate(-90 420.371 958.882)" fill="white"/>
<rect x="429.457" y="962" width="21.8235" height="3.02857" transform="rotate(-90 429.457 962)" fill="white"/>
<rect x="438.543" y="958.882" width="21.8235" height="3.02857" transform="rotate(-90 438.543 958.882)" fill="white"/>
<rect x="417.344" y="859.118" width="21.8235" height="3.02857" transform="rotate(-90 417.344 859.118)" fill="white"/>
<rect x="450.656" y="859.118" width="21.8235" height="3.02857" transform="rotate(-90 450.656 859.118)" fill="white"/>
<rect x="429.457" y="859.118" width="21.8235" height="3.02857" transform="rotate(-90 429.457 859.118)" fill="white"/>
<rect x="438.543" y="856" width="21.8235" height="3.02857" transform="rotate(-90 438.543 856)" fill="white"/>
<rect x="456.715" y="781.176" width="9.08572" height="3.11765" transform="rotate(-180 456.715 781.176)" fill="white"/>
<rect x="456.715" y="790.53" width="9.08572" height="3.11765" transform="rotate(-180 456.715 790.53)" fill="white"/>
<rect x="438.543" y="781.176" width="9.08572" height="3.11765" transform="rotate(-180 438.543 781.176)" fill="white"/>
<rect x="438.543" y="790.53" width="9.08572" height="3.11765" transform="rotate(-180 438.543 790.53)" fill="white"/>
<rect x="420.371" y="781.176" width="9.08572" height="3.11765" transform="rotate(-180 420.371 781.176)" fill="white"/>
<rect x="420.371" y="790.53" width="9.08572" height="3.11765" transform="rotate(-180 420.371 790.53)" fill="white"/>
<rect x="429.457" y="700.118" width="12.1143" height="12.4706" fill="white"/>
<rect x="468.828" y="659.588" width="6.05714" height="12.4706" fill="white"/>
<rect x="432.486" y="650.235" width="6.05714" height="12.4706" fill="white"/>
<rect x="393.115" y="659.588" width="6.05714" height="12.4706" fill="white"/>
<rect x="818.057" y="650.353" width="18.1714" height="24.9412" fill="white"/>
<rect x="893.771" y="650.353" width="18.1714" height="24.9412" fill="white"/>
<rect x="857.428" y="641" width="18.1714" height="24.9412" fill="white"/>
<rect x="854.4" y="690.882" width="24.2286" height="24.9412" fill="white"/>
<rect x="842.285" y="831.177" width="48.4571" height="24.9412" fill="white"/>
<rect x="842.285" y="768.823" width="12.1143" height="24.9412" fill="white"/>
<rect x="860.457" y="768.823" width="12.1143" height="24.9412" fill="white"/>
<rect x="878.629" y="768.823" width="12.1143" height="24.9412" fill="white"/>
<rect x="878.629" y="899.765" width="9.08572" height="24.9412" fill="white"/>
<rect x="845.314" y="899.765" width="9.08572" height="24.9412" fill="white"/>
<rect x="860.457" y="890.412" width="12.1143" height="37.4118" fill="white"/>
<rect x="878.629" y="887.294" width="9.08572" height="6.23529" fill="white"/>
<rect x="845.314" y="887.294" width="9.08572" height="6.23529" fill="white"/>
<rect x="845.314" y="934.059" width="42.4" height="24.9412" fill="white"/>
<rect x="821.086" y="653.47" width="12.1143" height="18.7059" fill="black"/>
<rect x="896.801" y="653.47" width="12.1143" height="18.7059" fill="black"/>
<rect x="860.457" y="644.117" width="12.1143" height="18.7059" fill="black"/>
<rect x="857.428" y="694" width="18.1714" height="18.7059" fill="black"/>
<rect x="845.314" y="771.941" width="6.05714" height="18.7059" fill="black"/>
<rect x="863.486" y="771.941" width="6.05714" height="18.7059" fill="black"/>
<rect x="881.656" y="771.941" width="6.05714" height="18.7059" fill="black"/>
<rect x="881.656" y="902.882" width="3.02857" height="18.7059" fill="black"/>
<rect x="848.344" y="902.882" width="3.02857" height="18.7059" fill="black"/>
<rect x="881.656" y="887.294" width="3.02857" height="3.11765" fill="black"/>
<rect x="848.344" y="887.294" width="3.02857" height="3.11765" fill="black"/>
<rect x="863.486" y="893.529" width="6.05714" height="31.1765" fill="black"/>
<rect x="845.314" y="834.294" width="42.4" height="18.7059" fill="black"/>
<rect x="848.344" y="937.176" width="36.3429" height="18.7059" fill="black"/>
<rect x="804" y="735" width="123" height="3" fill="white"/>
<rect x="812" y="747" width="108" height="3" fill="white"/>
<rect x="813" y="756" width="107" height="3" fill="white"/>
<rect x="812" y="806" width="107" height="3" fill="white"/>
<rect x="812" y="859" width="108" height="3" fill="white"/>
<path d="M813 868.588H919V871.706H813V868.588Z" fill="white"/>
<rect x="781" y="928" width="171" height="3" fill="white"/>
<rect x="878.629" y="955.882" width="21.8235" height="3.02857" transform="rotate(-90 878.629 955.882)" fill="white"/>
<rect x="851.371" y="955.882" width="21.8235" height="3.02857" transform="rotate(-90 851.371 955.882)" fill="white"/>
<rect x="860.457" y="959" width="21.8235" height="3.02857" transform="rotate(-90 860.457 959)" fill="white"/>
<rect x="869.543" y="955.882" width="21.8235" height="3.02857" transform="rotate(-90 869.543 955.882)" fill="white"/>
<rect x="848.344" y="856.118" width="21.8235" height="3.02857" transform="rotate(-90 848.344 856.118)" fill="white"/>
<rect x="881.656" y="856.118" width="21.8235" height="3.02857" transform="rotate(-90 881.656 856.118)" fill="white"/>
<rect x="860.457" y="856.118" width="21.8235" height="3.02857" transform="rotate(-90 860.457 856.118)" fill="white"/>
<rect x="869.543" y="853" width="21.8235" height="3.02857" transform="rotate(-90 869.543 853)" fill="white"/>
<rect x="887.715" y="778.176" width="9.08572" height="3.11765" transform="rotate(-180 887.715 778.176)" fill="white"/>
<rect x="887.715" y="787.53" width="9.08572" height="3.11765" transform="rotate(-180 887.715 787.53)" fill="white"/>
<rect x="869.543" y="778.176" width="9.08572" height="3.11765" transform="rotate(-180 869.543 778.176)" fill="white"/>
<rect x="869.543" y="787.53" width="9.08572" height="3.11765" transform="rotate(-180 869.543 787.53)" fill="white"/>
<rect x="851.371" y="778.176" width="9.08572" height="3.11765" transform="rotate(-180 851.371 778.176)" fill="white"/>
<rect x="851.371" y="787.53" width="9.08572" height="3.11765" transform="rotate(-180 851.371 787.53)" fill="white"/>
<rect x="860.457" y="697.118" width="12.1143" height="12.4706" fill="white"/>
<rect x="899.828" y="656.588" width="6.05714" height="12.4706" fill="white"/>
<rect x="863.486" y="647.235" width="6.05714" height="12.4706" fill="white"/>
<rect x="824.115" y="656.588" width="6.05714" height="12.4706" fill="white"/>
<path d="M412.5 1115H430L450 1380.5H390L412.5 1115Z" fill="black"/>
<ellipse cx="513" cy="303.5" rx="125" ry="123.5" fill="black"/>
<path d="M271.5 1112.5H289L309 1378H249L271.5 1112.5Z" fill="black"/>
<path d="M553.5 1115H571L591 1380.5H531L553.5 1115Z" fill="black"/>
<path d="M857.5 1115.5H875L895 1381H835L857.5 1115.5Z" fill="black"/>
<path d="M716.5 1113H734L754 1378.5H694L716.5 1113Z" fill="black"/>
<path d="M998.5 1115.5H1016L1036 1381H976L998.5 1115.5Z" fill="black"/>
<circle cx="280.5" cy="1091.5" r="26.5" fill="black"/>
<circle cx="421.5" cy="1091.5" r="26.5" fill="black"/>
<circle cx="562.5" cy="1091.5" r="26.5" fill="black"/>
<circle cx="725.5" cy="1091.5" r="26.5" fill="black"/>
<circle cx="866.5" cy="1091.5" r="26.5" fill="black"/>
<circle cx="1007.5" cy="1091.5" r="26.5" fill="black"/>
<path d="M186.998 1164L643.999 1201.5L1111 1164" stroke="black" stroke-width="6"/>
<line x1="-315" y1="1369.5" x2="1757.07" y2="1369.5" stroke="black" stroke-width="17"/>
<path d="M779.681 447.262C781.656 445.854 785.673 444.377 787.32 441.844C792.069 439.805 798.686 436.974 796.607 431.48C794.478 425.856 789.792 422.324 785.655 418.815C783.426 416.925 784.779 405.921 783.166 402.448C779.683 394.952 774.166 388.929 767.401 385.887C755.814 380.676 742.264 388.076 730.812 383.938C728.887 383.243 727.193 371.66 724.257 368.935C720.16 365.134 711.529 354.041 705.672 357.05C698.77 360.595 691.151 361.06 684.1 363.869C681.078 365.073 678.325 369.232 674.807 367.961C671.617 366.809 673.54 360.686 671.903 358.024C668.433 352.382 657.915 354.322 652.903 354.322C642.331 354.322 631.259 353.788 621.126 357.927C619.545 358.572 611.042 364.9 610.34 360.362C608.605 349.161 584.308 355.868 579.06 358.024C558.97 366.28 549.649 382.415 551.182 407.611C551.634 415.039 541.397 415.189 543.217 425.342C545.497 438.059 566.259 451.949 575.907 452.523C593.303 453.557 611.629 447.017 627.348 456.419C652.167 471.265 675.271 464.752 700.196 452.717C704.826 450.482 715.535 441.991 720.772 447.262C727.26 453.792 737.071 452.523 744.999 452.523C756.419 452.523 769.528 454.499 779.681 447.262Z" fill="#646F75"/>
<path d="M787.978 440.248C787.305 443.803 782.038 445.581 779.681 447.262C769.528 454.499 756.419 452.523 744.999 452.523C737.071 452.523 727.26 453.792 720.772 447.262C715.535 441.991 704.826 450.482 700.196 452.717C675.271 464.752 652.167 471.265 627.348 456.419C611.629 447.017 593.303 453.557 575.907 452.523C566.259 451.949 545.497 438.059 543.217 425.342C541.397 415.189 551.634 415.039 551.182 407.611C549.649 382.415 558.97 366.28 579.06 358.024C584.308 355.868 608.605 349.161 610.34 360.362C611.042 364.9 619.545 358.572 621.126 357.927C631.259 353.788 642.331 354.322 652.903 354.322C657.915 354.322 668.433 352.382 671.903 358.024C673.54 360.686 671.617 366.809 674.807 367.961C678.325 369.232 681.078 365.073 684.1 363.869C691.151 361.06 698.77 360.595 705.672 357.05C711.529 354.041 720.16 365.134 724.257 368.935C727.193 371.66 728.887 383.243 730.812 383.938C742.264 388.076 755.814 380.676 767.401 385.887C774.166 388.929 779.683 394.952 783.166 402.448C784.779 405.921 783.426 416.925 785.655 418.815C789.792 422.324 794.478 425.856 796.607 431.48C799.406 438.876 786.447 441.446 783.497 443.755" stroke="#646F75" stroke-width="3" stroke-linecap="round"/>
<rect width="1280" height="34" fill="white"/>
</svg>
